<svg width="665" height="334" viewBox="0 0 665 334" fill="none" xmlns="http://www.w3.org/2000/svg">
<path d="M10.6201 134C10.6201 134 10.6201 97.0615 10.6201 23.1846C10.6201 23.1846 36.8408 23.1846 89.2822 23.1846C89.2822 23.1846 89.2822 60.123 89.2822 134C89.2822 134 82.4219 134 68.7012 134C68.7012 134 68.7012 103.604 68.7012 42.8135C68.7012 42.8135 56.2012 42.8135 31.2012 42.8135C31.2012 42.8135 31.2012 73.209 31.2012 134C31.2012 134 24.3408 134 10.6201 134ZM108.032 161.759C108.032 161.759 108.032 124.796 108.032 50.8701C108.032 50.8701 114.111 50.8701 126.27 50.8701C126.27 50.8701 126.27 54.1416 126.27 60.6846C132.861 52.8721 141.968 48.9658 153.589 48.9658C161.499 48.9658 168.604 50.8213 174.902 54.5322C181.201 58.1943 186.108 63.3213 189.624 69.9131C193.188 76.5049 194.971 83.9268 194.971 92.1787C194.971 100.479 193.188 107.975 189.624 114.664C186.06 121.305 181.104 126.529 174.756 130.338C168.457 134.098 161.353 135.978 153.442 135.978C148.364 135.978 143.799 135.196 139.746 133.634C135.693 132.071 131.763 129.605 127.954 126.236V161.759H108.032ZM150.586 67.2764C143.848 67.2764 138.184 69.7178 133.594 74.6006C129.053 79.4346 126.782 85.4893 126.782 92.7646C126.782 99.8447 129.126 105.777 133.813 110.562C138.501 115.299 144.287 117.667 151.172 117.667C157.861 117.667 163.477 115.274 168.018 110.489C172.607 105.655 174.902 99.6982 174.902 92.6182C174.902 85.2939 172.607 79.2393 168.018 74.4541C163.428 69.6689 157.617 67.2764 150.586 67.2764ZM264.331 50.8701C264.331 50.8701 271.069 50.8701 284.546 50.8701C284.546 50.8701 284.546 78.5801 284.546 134C284.546 134 277.954 134 264.771 134C264.771 134 264.771 115.689 264.771 79.0684C264.771 79.0684 252.368 97.3789 227.563 134C227.563 134 220.825 134 207.349 134C207.349 134 207.349 106.29 207.349 50.8701C207.349 50.8701 213.94 50.8701 227.124 50.8701C227.124 50.8701 227.124 69.1807 227.124 105.802C227.124 105.802 239.526 87.4912 264.331 50.8701ZM320.728 69.0342C320.728 69.0342 320.728 73.9902 320.728 83.9023C320.728 83.9023 325.415 83.9023 334.79 83.9023C338.892 83.9023 341.992 83.2432 344.092 81.9248C346.191 80.5576 347.241 78.7266 347.241 76.4316C347.241 74.1367 346.167 72.3301 344.019 71.0117C341.919 69.6934 338.843 69.0342 334.79 69.0342H320.728ZM320.728 98.4775C320.728 98.4775 320.728 104.264 320.728 115.836C320.728 115.836 326.782 115.836 338.892 115.836C341.919 115.836 344.336 115.055 346.143 113.492C347.998 111.881 348.926 109.757 348.926 107.12C348.926 104.483 347.998 102.384 346.143 100.821C344.336 99.2588 341.919 98.4775 338.892 98.4775H320.728ZM356.543 90.7871C360.01 92.1055 362.939 94.1562 365.332 96.9395C367.773 99.6738 368.994 103.067 368.994 107.12C368.994 114.64 366.309 121.012 360.938 126.236C355.566 131.412 348.657 134 340.21 134H300.806V50.8701C300.806 50.8701 312.207 50.8701 335.01 50.8701C344.434 50.8701 352.002 53.0674 357.715 57.4619C363.477 61.8564 366.357 68.1797 366.357 76.4316C366.357 79.6055 365.381 82.5107 363.428 85.1475C361.523 87.7842 359.229 89.6641 356.543 90.7871ZM463.989 101.334C463.989 101.334 442.529 101.334 399.609 101.334C400.83 106.363 403.491 110.343 407.593 113.272C411.694 116.202 416.699 117.667 422.607 117.667C426.709 117.667 430.127 117.057 432.861 115.836C435.596 114.566 438.257 112.418 440.845 109.391H462.598C461.426 113.15 459.229 117.008 456.006 120.963C447.412 130.973 436.426 135.978 423.047 135.978C416.797 135.978 410.889 134.854 405.322 132.608C399.756 130.362 394.971 127.335 390.967 123.526C387.012 119.669 383.862 115.079 381.519 109.757C379.175 104.386 378.003 98.7217 378.003 92.7646C378.003 84.7568 379.932 77.4082 383.789 70.7188C387.695 63.9805 392.993 58.6826 399.683 54.8252C406.421 50.9189 413.794 48.9658 421.802 48.9658C429.956 48.9658 437.305 50.8945 443.848 54.752C450.391 58.5605 455.493 63.8828 459.155 70.7188C462.866 77.5059 464.722 85.1475 464.722 93.6436C464.722 96.3779 464.478 98.9414 463.989 101.334ZM399.023 83.7559H445.093C443.823 78.4336 441.211 74.3564 437.256 71.5244C433.301 68.6924 428.247 67.2764 422.095 67.2764C416.138 67.2764 411.182 68.6924 407.227 71.5244C403.32 74.3076 400.586 78.3848 399.023 83.7559ZM528.369 69.0342C528.369 69.0342 521.899 69.0342 508.96 69.0342C508.96 69.0342 508.96 90.6895 508.96 134C508.96 134 502.319 134 489.038 134C489.038 134 489.038 112.345 489.038 69.0342C489.038 69.0342 482.593 69.0342 469.702 69.0342C469.702 69.0342 469.702 62.9795 469.702 50.8701C469.702 50.8701 489.258 50.8701 528.369 50.8701C528.369 50.8701 528.369 56.9248 528.369 69.0342ZM532.471 134C532.471 134 532.471 127.604 532.471 114.811C532.471 114.811 539.111 114.811 552.393 114.811C552.393 114.811 552.393 121.549 552.393 135.025C552.393 143.424 549.097 149.381 542.505 152.896C539.722 154.312 536.377 155.021 532.471 155.021C532.471 155.021 532.471 151.676 532.471 144.986C535.596 144.4 537.842 143.448 539.209 142.13C540.576 140.86 541.26 139.054 541.26 136.71C541.26 135.587 541.211 134.684 541.113 134H532.471ZM48.9258 259.052C48.9258 259.052 48.9258 253.046 48.9258 241.034C48.9258 241.034 44.5557 241.034 35.8154 241.034C32.8369 241.034 30.4199 241.889 28.5645 243.598C26.709 245.258 25.7812 247.406 25.7812 250.043C25.7812 252.68 26.709 254.853 28.5645 256.562C30.4199 258.222 32.8369 259.052 35.8154 259.052H48.9258ZM23.584 275.385C18.1152 273.383 13.7695 270.087 10.5469 265.497C7.32422 260.858 5.71289 255.707 5.71289 250.043C5.71289 242.475 8.39844 236.054 13.7695 230.78C19.1406 225.507 26.0498 222.87 34.4971 222.87H68.8477V306C68.8477 306 62.207 306 48.9258 306C48.9258 306 48.9258 296.405 48.9258 277.216C48.9258 277.216 47.3145 277.216 44.0918 277.216C44.0918 277.216 38.2324 286.811 26.5137 306C26.5137 306 18.5303 306 2.56348 306C2.56348 306 9.57031 295.795 23.584 275.385ZM119.971 306C119.971 306 135.376 269.062 166.187 195.185C166.187 195.185 171.582 195.185 182.373 195.185C182.373 195.185 197.876 232.123 228.882 306C228.882 306 221.338 306 206.25 306C206.25 306 202.295 296.454 194.385 277.362C194.385 277.362 181.25 277.362 154.98 277.362C154.98 277.362 150.879 286.908 142.676 306C142.676 306 135.107 306 119.971 306ZM162.451 257.733C162.451 257.733 170.361 257.733 186.182 257.733C186.182 257.733 182.227 246.527 174.316 224.115C174.316 224.115 170.361 235.321 162.451 257.733ZM238.11 333.759C238.11 333.759 238.11 296.796 238.11 222.87C238.11 222.87 244.189 222.87 256.348 222.87C256.348 222.87 256.348 226.142 256.348 232.685C262.939 224.872 272.046 220.966 283.667 220.966C291.577 220.966 298.682 222.821 304.98 226.532C311.279 230.194 316.187 235.321 319.702 241.913C323.267 248.505 325.049 255.927 325.049 264.179C325.049 272.479 323.267 279.975 319.702 286.664C316.138 293.305 311.182 298.529 304.834 302.338C298.535 306.098 291.431 307.978 283.521 307.978C278.442 307.978 273.877 307.196 269.824 305.634C265.771 304.071 261.841 301.605 258.032 298.236V333.759H238.11ZM280.664 239.276C273.926 239.276 268.262 241.718 263.672 246.601C259.131 251.435 256.86 257.489 256.86 264.765C256.86 271.845 259.204 277.777 263.892 282.562C268.579 287.299 274.365 289.667 281.25 289.667C287.939 289.667 293.555 287.274 298.096 282.489C302.686 277.655 304.98 271.698 304.98 264.618C304.98 257.294 302.686 251.239 298.096 246.454C293.506 241.669 287.695 239.276 280.664 239.276ZM388.77 241.034C388.77 241.034 382.3 241.034 369.36 241.034C369.36 241.034 369.36 262.689 369.36 306C369.36 306 362.72 306 349.438 306C349.438 306 349.438 284.345 349.438 241.034C349.438 241.034 342.993 241.034 330.103 241.034C330.103 241.034 330.103 234.979 330.103 222.87C330.103 222.87 349.658 222.87 388.77 222.87C388.77 222.87 388.77 228.925 388.77 241.034ZM479.663 273.334C479.663 273.334 458.203 273.334 415.283 273.334C416.504 278.363 419.165 282.343 423.267 285.272C427.368 288.202 432.373 289.667 438.281 289.667C442.383 289.667 445.801 289.057 448.535 287.836C451.27 286.566 453.931 284.418 456.519 281.391H478.271C477.1 285.15 474.902 289.008 471.68 292.963C463.086 302.973 452.1 307.978 438.721 307.978C432.471 307.978 426.562 306.854 420.996 304.608C415.43 302.362 410.645 299.335 406.641 295.526C402.686 291.669 399.536 287.079 397.192 281.757C394.849 276.386 393.677 270.722 393.677 264.765C393.677 256.757 395.605 249.408 399.463 242.719C403.369 235.98 408.667 230.683 415.356 226.825C422.095 222.919 429.468 220.966 437.476 220.966C445.63 220.966 452.979 222.895 459.521 226.752C466.064 230.561 471.167 235.883 474.829 242.719C478.54 249.506 480.396 257.147 480.396 265.644C480.396 268.378 480.151 270.941 479.663 273.334ZM414.697 255.756H460.767C459.497 250.434 456.885 246.356 452.93 243.524C448.975 240.692 443.921 239.276 437.769 239.276C431.812 239.276 426.855 240.692 422.9 243.524C418.994 246.308 416.26 250.385 414.697 255.756ZM546.387 288.715C546.387 288.715 542.48 288.715 534.668 288.715C534.668 288.715 527.319 276.166 512.622 251.068C512.622 251.068 512.622 269.379 512.622 306C512.622 306 505.981 306 492.7 306C492.7 306 492.7 278.29 492.7 222.87C492.7 222.87 500.293 222.87 515.479 222.87C515.479 222.87 523.828 237.079 540.527 265.497C540.527 265.497 548.877 251.288 565.576 222.87C565.576 222.87 573.169 222.87 588.354 222.87C588.354 222.87 588.354 250.58 588.354 306C588.354 306 581.714 306 568.433 306C568.433 306 568.433 287.689 568.433 251.068C568.433 251.068 561.084 263.617 546.387 288.715Z" fill="#1D1D1D"/>
<path d="M248.9 14.5C249.033 14.2667 249.267 14.1167 249.6 14.05C249.967 13.9833 250.317 14 250.65 14.1C250.983 14.1667 251.233 14.3167 251.4 14.55C251.567 14.7833 251.517 15.0833 251.25 15.45C250.117 17.0167 248.95 18.8333 247.75 20.9C246.583 22.9667 245.433 25.1167 244.3 27.35C243.167 29.55 242.083 31.7333 241.05 33.9C240.017 36.0667 239.1 38.05 238.3 39.85C237.967 40.55 237.717 41.1833 237.55 41.75C237.383 42.2833 237.35 42.7167 237.45 43.05C237.517 43.35 237.75 43.5167 238.15 43.55C238.583 43.55 239.233 43.3667 240.1 43C240.933 42.6667 241.833 42.2 242.8 41.6C243.767 41 244.733 40.3333 245.7 39.6C246.667 38.8333 247.6 38.0167 248.5 37.15C249.4 36.25 250.2 35.35 250.9 34.45C251.033 34.2833 251.2 34.1833 251.4 34.15C251.633 34.1167 251.833 34.1833 252 34.35C252.167 34.4833 252.267 34.6667 252.3 34.9C252.333 35.1 252.283 35.2833 252.15 35.45C251.417 36.3833 250.567 37.3167 249.6 38.25C248.633 39.1833 247.633 40.05 246.6 40.85C245.6 41.65 244.583 42.3667 243.55 43C242.517 43.6333 241.567 44.1167 240.7 44.45C239.567 44.9167 238.567 45.1333 237.7 45.1C236.8 45.0333 236.117 44.7667 235.65 44.3C235.15 43.8 234.9 43.1167 234.9 42.25C234.867 41.3833 235.167 40.3667 235.8 39.2C236.633 37.3667 237.567 35.35 238.6 33.15C239.633 30.95 240.717 28.75 241.85 26.55C243.017 24.3167 244.183 22.15 245.35 20.05C246.55 17.95 247.733 16.1 248.9 14.5ZM255.991 32.95C255.724 33.0833 255.457 33.25 255.191 33.45C254.924 33.65 254.657 33.9333 254.391 34.3C255.224 34.1333 255.824 33.9667 256.191 33.8C256.724 33.6 257.074 33.4167 257.241 33.25C257.407 33.0833 257.457 32.95 257.391 32.85C257.324 32.75 257.157 32.7 256.891 32.7C256.624 32.7 256.324 32.7833 255.991 32.95ZM255.191 39C255.924 38.9 256.707 38.7167 257.541 38.45C258.407 38.1833 259.257 37.85 260.091 37.45C260.957 37.05 261.757 36.6 262.491 36.1C263.257 35.5667 263.924 35.0167 264.491 34.45C264.657 34.2833 264.841 34.2 265.041 34.2C265.274 34.1667 265.474 34.2333 265.641 34.4C266.007 34.8 266.007 35.1833 265.641 35.55C265.041 36.1833 264.307 36.7833 263.441 37.35C262.607 37.9167 261.724 38.4333 260.791 38.9C259.891 39.3333 258.957 39.7 257.991 40C257.057 40.3 256.174 40.5 255.341 40.6C254.941 40.6667 254.457 40.7167 253.891 40.75C253.357 40.75 252.824 40.7167 252.291 40.65C251.757 40.5833 251.274 40.45 250.841 40.25C250.374 40.0167 250.024 39.6833 249.791 39.25C249.591 38.8833 249.507 38.5 249.541 38.1C249.541 37.7 249.607 37.3 249.741 36.9C249.841 36.4667 249.991 36.0667 250.191 35.7C250.357 35.3 250.541 34.95 250.741 34.65C251.274 33.8833 251.907 33.1833 252.641 32.55C253.374 31.8833 254.207 31.4167 255.141 31.15C256.074 30.9167 256.874 30.9167 257.541 31.15C258.207 31.3833 258.657 31.7333 258.891 32.2C259.124 32.6667 259.091 33.2 258.791 33.8C258.524 34.3667 257.891 34.85 256.891 35.25C256.424 35.4167 255.874 35.5667 255.241 35.7C254.641 35.8333 253.941 35.9333 253.141 36C252.541 37.0333 252.324 37.8 252.491 38.3C252.524 38.5333 252.657 38.7 252.891 38.8C253.124 38.9 253.374 38.9833 253.641 39.05C253.941 39.0833 254.224 39.1 254.491 39.1C254.791 39.0667 255.024 39.0333 255.191 39ZM266.264 22.5C265.73 22.5 265.464 22.2333 265.464 21.7C265.43 21.5 265.48 21.3167 265.614 21.15C265.78 20.9833 265.98 20.9 266.214 20.9L272.264 20.75C272.864 19.8167 273.414 18.95 273.914 18.15C274.414 17.35 274.847 16.6667 275.214 16.1C275.58 15.5 275.88 15.05 276.114 14.75C276.347 14.4167 276.464 14.25 276.464 14.25C276.564 14.05 276.814 13.9167 277.214 13.85C277.614 13.7833 277.997 13.7833 278.364 13.85C278.73 13.8833 279.014 14.0167 279.214 14.25C279.414 14.45 279.38 14.7333 279.114 15.1C279.114 15.1333 278.764 15.6667 278.064 16.7C277.397 17.7 276.547 19.0333 275.514 20.7L279.964 20.55C280.497 20.55 280.764 20.8167 280.764 21.35C280.797 21.5833 280.73 21.7833 280.564 21.95C280.43 22.0833 280.247 22.15 280.014 22.15L274.514 22.3C273.78 23.5 273.014 24.7833 272.214 26.15C271.414 27.4833 270.63 28.85 269.864 30.25C269.097 31.6167 268.364 32.9833 267.664 34.35C266.997 35.7167 266.414 37 265.914 38.2C265.147 39.9667 264.714 41.3 264.614 42.2C264.547 43.0667 264.73 43.6 265.164 43.8C265.63 43.9667 266.314 43.8667 267.214 43.5C268.114 43.1 269.197 42.5333 270.464 41.8C271.364 41.2667 272.264 40.6833 273.164 40.05C274.064 39.3833 274.897 38.7333 275.664 38.1C276.43 37.4333 277.114 36.7833 277.714 36.15C278.347 35.5167 278.83 34.95 279.164 34.45C279.264 34.2833 279.414 34.1833 279.614 34.15C279.847 34.0833 280.064 34.1167 280.264 34.25C280.43 34.3833 280.53 34.5667 280.564 34.8C280.63 35 280.597 35.1833 280.464 35.35C280.097 35.8833 279.597 36.4833 278.964 37.15C278.364 37.7833 277.664 38.4333 276.864 39.1C276.097 39.7667 275.247 40.4333 274.314 41.1C273.414 41.7667 272.497 42.3833 271.564 42.95C269.997 43.9167 268.48 44.6333 267.014 45.1C265.547 45.5667 264.364 45.6667 263.464 45.4C262.53 45.1 261.98 44.35 261.814 43.15C261.614 41.9167 262.03 40.0667 263.064 37.6C263.564 36.4667 264.13 35.25 264.764 33.95C265.397 32.65 266.08 31.35 266.814 30.05C267.547 28.7167 268.297 27.4 269.064 26.1C269.83 24.8 270.564 23.55 271.264 22.35L266.264 22.5ZM282.812 20.3C282.845 20.2333 282.929 20.1833 283.062 20.15C283.229 20.0833 283.379 20.0667 283.512 20.1C283.679 20.1 283.812 20.1333 283.912 20.2C284.045 20.2667 284.095 20.3833 284.062 20.55L283.212 26.1C283.112 26.3333 282.912 26.4833 282.612 26.55C282.345 26.6167 282.079 26.6333 281.812 26.6C281.579 26.5333 281.379 26.4 281.212 26.2C281.079 26 281.095 25.75 281.262 25.45L282.812 20.3ZM293.446 34.5C294.079 35.1667 294.679 35.8333 295.246 36.5C295.813 37.1333 296.279 37.9 296.646 38.8C296.713 38.7333 296.763 38.7 296.796 38.7C296.863 38.6667 296.929 38.6333 296.996 38.6C299.329 37.2667 301.096 35.8833 302.296 34.45C302.429 34.2833 302.596 34.2 302.796 34.2C303.029 34.1667 303.229 34.2167 303.396 34.35C303.563 34.5167 303.663 34.7167 303.696 34.95C303.729 35.15 303.663 35.3333 303.496 35.5C302.163 37.1 300.246 38.6 297.746 40C297.646 40.0667 297.529 40.1333 297.396 40.2C297.296 40.2667 297.179 40.3333 297.046 40.4C297.113 41 297.046 41.65 296.846 42.35C296.679 43.0167 296.346 43.7333 295.846 44.5C295.079 45.6333 294.163 46.4667 293.096 47C292.096 47.5 291.113 47.7667 290.146 47.8C289.179 47.8 288.313 47.6667 287.546 47.4C286.779 47.1333 286.179 46.7667 285.746 46.3C285.279 45.8 285.079 45.2667 285.146 44.7C285.213 44.1333 285.579 43.5833 286.246 43.05C286.913 42.4833 287.979 42 289.446 41.6C291.179 41.1333 292.679 40.6167 293.946 40.05C293.779 39.2167 293.446 38.4833 292.946 37.85C292.446 37.2167 291.963 36.6667 291.496 36.2C291.163 35.8667 290.863 35.5167 290.596 35.15C290.329 34.75 290.163 34.3667 290.096 34C289.996 33.6 290.029 33.2 290.196 32.8C290.363 32.4 290.696 32.0167 291.196 31.65C291.429 31.4833 291.713 31.3333 292.046 31.2C292.379 31.0667 292.729 30.9833 293.096 30.95C293.463 30.8833 293.813 30.9 294.146 31C294.479 31.0667 294.746 31.25 294.946 31.55C295.179 31.8833 295.179 32.2833 294.946 32.75C294.746 33.1833 294.246 33.7667 293.446 34.5ZM291.696 45.15C292.263 44.7833 292.746 44.2833 293.146 43.65C293.579 43.05 293.846 42.4333 293.946 41.8C292.646 42.3333 291.279 42.7667 289.846 43.1C288.246 43.5333 287.296 43.9833 286.996 44.45C286.696 44.9167 286.779 45.3 287.246 45.6C287.679 45.8667 288.346 46 289.246 46C290.113 46 290.929 45.7167 291.696 45.15ZM323.105 33.9C323.172 34.0333 323.222 34.1167 323.255 34.15C323.522 33.7833 323.705 33.45 323.805 33.15C323.872 32.9833 324.055 32.8667 324.355 32.8C324.688 32.7 325.038 32.6667 325.405 32.7C325.772 32.7 326.088 32.7833 326.355 32.95C326.622 33.0833 326.738 33.3167 326.705 33.65C326.638 34.45 326.405 35.4833 326.005 36.75C325.638 37.9833 325.155 39.3833 324.555 40.95C325.155 40.6167 325.722 40.3167 326.255 40.05C326.788 39.7833 327.288 39.5167 327.755 39.25C329.422 38.3167 330.755 37.4833 331.755 36.75C332.788 35.9833 333.688 35.2167 334.455 34.45C334.622 34.2833 334.805 34.2167 335.005 34.25C335.205 34.2833 335.388 34.3833 335.555 34.55C335.955 34.9167 335.972 35.2833 335.605 35.65C334.805 36.4167 333.872 37.2 332.805 38C331.772 38.7667 330.372 39.65 328.605 40.65C327.938 41.0167 327.188 41.4333 326.355 41.9C325.522 42.3333 324.622 42.7833 323.655 43.25C322.922 44.95 322.088 46.7333 321.155 48.6C320.255 50.4667 319.272 52.3 318.205 54.1C317.172 55.9333 316.072 57.6667 314.905 59.3C313.705 60.9667 312.488 62.4167 311.255 63.65C309.988 64.8833 308.705 65.7333 307.405 66.2C306.072 66.6667 304.838 66.8333 303.705 66.7C302.538 66.5667 301.522 66.1667 300.655 65.5C299.755 64.8333 299.122 63.9667 298.755 62.9C298.388 61.8667 298.338 60.6667 298.605 59.3C298.872 57.9333 299.555 56.5 300.655 55C301.755 53.5333 303.105 52.2333 304.705 51.1C306.272 49.9667 307.972 48.9333 309.805 48C311.605 47.0333 313.455 46.15 315.355 45.35C317.222 44.5167 318.988 43.7 320.655 42.9C321.555 40.7333 322.288 38.7833 322.855 37.05C322.455 37.45 321.972 37.85 321.405 38.25C320.272 39.05 319.222 39.5167 318.255 39.65C317.322 39.75 316.588 39.6167 316.055 39.25C315.522 38.85 315.272 38.25 315.305 37.45C315.338 36.65 315.788 35.75 316.655 34.75C317.088 34.25 317.622 33.7833 318.255 33.35C318.888 32.9167 319.555 32.6667 320.255 32.6C320.788 32.5333 321.288 32.6 321.755 32.8C322.255 33 322.705 33.3667 323.105 33.9ZM308.705 62.45C309.805 61.35 310.872 60.1 311.905 58.7C312.905 57.3333 313.872 55.8833 314.805 54.35C315.738 52.85 316.605 51.3167 317.405 49.75C318.205 48.1833 318.938 46.6667 319.605 45.2C318.105 45.9333 316.505 46.6833 314.805 47.45C313.072 48.1833 311.388 48.9833 309.755 49.85C308.088 50.75 306.555 51.7333 305.155 52.8C303.722 53.9 302.538 55.15 301.605 56.55C300.505 58.2167 299.972 59.7333 300.005 61.1C300.038 62.5 300.455 63.55 301.255 64.25C302.055 64.95 303.122 65.2 304.455 65C305.788 64.8 307.205 63.95 308.705 62.45ZM318.955 36.25C318.488 36.9167 318.238 37.3667 318.205 37.6C318.172 37.8333 318.255 37.95 318.455 37.95C318.655 37.9167 318.938 37.8 319.305 37.6C319.672 37.4 320.038 37.1833 320.405 36.95C321.205 36.35 321.888 35.75 322.455 35.15C322.422 35.0833 322.322 34.9667 322.155 34.8C322.022 34.6333 321.805 34.55 321.505 34.55C321.205 34.5167 320.838 34.6167 320.405 34.85C320.005 35.05 319.522 35.5167 318.955 36.25ZM339.536 32.95C339.269 33.0833 339.002 33.25 338.736 33.45C338.469 33.65 338.202 33.9333 337.936 34.3C338.769 34.1333 339.369 33.9667 339.736 33.8C340.269 33.6 340.619 33.4167 340.786 33.25C340.952 33.0833 341.002 32.95 340.936 32.85C340.869 32.75 340.702 32.7 340.436 32.7C340.169 32.7 339.869 32.7833 339.536 32.95ZM338.736 39C339.469 38.9 340.252 38.7167 341.086 38.45C341.952 38.1833 342.802 37.85 343.636 37.45C344.502 37.05 345.302 36.6 346.036 36.1C346.802 35.5667 347.469 35.0167 348.036 34.45C348.202 34.2833 348.386 34.2 348.586 34.2C348.819 34.1667 349.019 34.2333 349.186 34.4C349.552 34.8 349.552 35.1833 349.186 35.55C348.586 36.1833 347.852 36.7833 346.986 37.35C346.152 37.9167 345.269 38.4333 344.336 38.9C343.436 39.3333 342.502 39.7 341.536 40C340.602 40.3 339.719 40.5 338.886 40.6C338.486 40.6667 338.002 40.7167 337.436 40.75C336.902 40.75 336.369 40.7167 335.836 40.65C335.302 40.5833 334.819 40.45 334.386 40.25C333.919 40.0167 333.569 39.6833 333.336 39.25C333.136 38.8833 333.052 38.5 333.086 38.1C333.086 37.7 333.152 37.3 333.286 36.9C333.386 36.4667 333.536 36.0667 333.736 35.7C333.902 35.3 334.086 34.95 334.286 34.65C334.819 33.8833 335.452 33.1833 336.186 32.55C336.919 31.8833 337.752 31.4167 338.686 31.15C339.619 30.9167 340.419 30.9167 341.086 31.15C341.752 31.3833 342.202 31.7333 342.436 32.2C342.669 32.6667 342.636 33.2 342.336 33.8C342.069 34.3667 341.436 34.85 340.436 35.25C339.969 35.4167 339.419 35.5667 338.786 35.7C338.186 35.8333 337.486 35.9333 336.686 36C336.086 37.0333 335.869 37.8 336.036 38.3C336.069 38.5333 336.202 38.7 336.436 38.8C336.669 38.9 336.919 38.9833 337.186 39.05C337.486 39.0833 337.769 39.1 338.036 39.1C338.336 39.0667 338.569 39.0333 338.736 39ZM349.809 22.5C349.275 22.5 349.009 22.2333 349.009 21.7C348.975 21.5 349.025 21.3167 349.159 21.15C349.325 20.9833 349.525 20.9 349.759 20.9L355.809 20.75C356.409 19.8167 356.959 18.95 357.459 18.15C357.959 17.35 358.392 16.6667 358.759 16.1C359.125 15.5 359.425 15.05 359.659 14.75C359.892 14.4167 360.009 14.25 360.009 14.25C360.109 14.05 360.359 13.9167 360.759 13.85C361.159 13.7833 361.542 13.7833 361.909 13.85C362.275 13.8833 362.559 14.0167 362.759 14.25C362.959 14.45 362.925 14.7333 362.659 15.1C362.659 15.1333 362.309 15.6667 361.609 16.7C360.942 17.7 360.092 19.0333 359.059 20.7L363.509 20.55C364.042 20.55 364.309 20.8167 364.309 21.35C364.342 21.5833 364.275 21.7833 364.109 21.95C363.975 22.0833 363.792 22.15 363.559 22.15L358.059 22.3C357.325 23.5 356.559 24.7833 355.759 26.15C354.959 27.4833 354.175 28.85 353.409 30.25C352.642 31.6167 351.909 32.9833 351.209 34.35C350.542 35.7167 349.959 37 349.459 38.2C348.692 39.9667 348.259 41.3 348.159 42.2C348.092 43.0667 348.275 43.6 348.709 43.8C349.175 43.9667 349.859 43.8667 350.759 43.5C351.659 43.1 352.742 42.5333 354.009 41.8C354.909 41.2667 355.809 40.6833 356.709 40.05C357.609 39.3833 358.442 38.7333 359.209 38.1C359.975 37.4333 360.659 36.7833 361.259 36.15C361.892 35.5167 362.375 34.95 362.709 34.45C362.809 34.2833 362.959 34.1833 363.159 34.15C363.392 34.0833 363.609 34.1167 363.809 34.25C363.975 34.3833 364.075 34.5667 364.109 34.8C364.175 35 364.142 35.1833 364.009 35.35C363.642 35.8833 363.142 36.4833 362.509 37.15C361.909 37.7833 361.209 38.4333 360.409 39.1C359.642 39.7667 358.792 40.4333 357.859 41.1C356.959 41.7667 356.042 42.3833 355.109 42.95C353.542 43.9167 352.025 44.6333 350.559 45.1C349.092 45.5667 347.909 45.6667 347.009 45.4C346.075 45.1 345.525 44.35 345.359 43.15C345.159 41.9167 345.575 40.0667 346.609 37.6C347.109 36.4667 347.675 35.25 348.309 33.95C348.942 32.65 349.625 31.35 350.359 30.05C351.092 28.7167 351.842 27.4 352.609 26.1C353.375 24.8 354.109 23.55 354.809 22.35L349.809 22.5ZM383.105 35.35C382.905 35.35 382.722 35.2333 382.555 35C382.189 34.4667 381.822 34.2167 381.455 34.25C381.089 34.25 380.739 34.4 380.405 34.7C380.072 34.9667 379.772 35.3333 379.505 35.8C379.272 36.2333 379.089 36.6167 378.955 36.95C378.822 37.35 378.789 37.6333 378.855 37.8C378.922 37.9667 379.039 38.0667 379.205 38.1C379.372 38.1 379.589 38.05 379.855 37.95C380.122 37.85 380.389 37.7167 380.655 37.55C380.955 37.3833 381.239 37.2 381.505 37C381.772 36.7667 381.972 36.6 382.105 36.5C382.472 36.1333 382.805 35.75 383.105 35.35ZM377.005 34.95C377.305 34.45 377.672 34 378.105 33.6C378.572 33.1667 379.055 32.8333 379.555 32.6C380.089 32.3667 380.639 32.2667 381.205 32.3C381.772 32.3333 382.322 32.5667 382.855 33C383.022 33.1667 383.172 33.3333 383.305 33.5C383.472 33.6333 383.639 33.8167 383.805 34.05C383.805 34.0167 383.805 34 383.805 34C383.839 33.9667 383.855 33.9333 383.855 33.9C383.855 33.6 384.005 33.3667 384.305 33.2C384.605 33.0333 384.939 32.95 385.305 32.95C385.672 32.95 386.005 33.05 386.305 33.25C386.605 33.45 386.755 33.7833 386.755 34.25C386.555 35.2833 386.572 36.0833 386.805 36.65C386.939 37.0167 387.172 37.2333 387.505 37.3C387.839 37.3667 388.222 37.35 388.655 37.25C389.089 37.1167 389.539 36.9167 390.005 36.65C390.505 36.3833 390.972 36.1167 391.405 35.85C391.839 35.55 392.222 35.2667 392.555 35C392.889 34.7333 393.122 34.55 393.255 34.45C393.422 34.3167 393.605 34.2667 393.805 34.3C394.039 34.3 394.222 34.3833 394.355 34.55C394.522 34.7167 394.589 34.9167 394.555 35.15C394.522 35.35 394.422 35.5333 394.255 35.7C393.389 36.4333 392.505 37.0667 391.605 37.6C390.705 38.1333 389.872 38.5 389.105 38.7C388.772 38.8 388.405 38.9 388.005 39C387.605 39.0667 387.189 39.1 386.755 39.1C386.355 39.0667 385.972 39 385.605 38.9C385.239 38.7667 384.905 38.55 384.605 38.25C384.272 37.8833 384.039 37.4333 383.905 36.9L383.155 37.65C382.822 37.95 382.472 38.2333 382.105 38.5C381.739 38.7667 381.339 39 380.905 39.2C379.739 39.8 378.772 40.0667 378.005 40C377.272 39.9333 376.755 39.6667 376.455 39.2C376.122 38.7333 376.005 38.1167 376.105 37.35C376.205 36.55 376.505 35.75 377.005 34.95ZM393.123 34.65C393.457 34.0833 393.907 33.5 394.473 32.9C395.073 32.3 395.707 31.8167 396.373 31.45C396.84 31.1833 397.34 31 397.873 30.9C398.407 30.8 398.907 30.8 399.373 30.9C399.873 31 400.29 31.2167 400.623 31.55C400.99 31.8833 401.24 32.35 401.373 32.95C401.44 33.1833 401.407 33.3833 401.273 33.55C401.14 33.7167 400.973 33.8333 400.773 33.9C400.54 33.9667 400.34 33.9333 400.173 33.8C400.007 33.6667 399.89 33.5 399.823 33.3C399.723 32.7667 399.523 32.5333 399.223 32.6C398.923 32.6333 398.59 32.7667 398.223 33C397.757 33.3 397.307 33.6833 396.873 34.15C396.473 34.5833 396.14 35.0167 395.873 35.45C395.007 36.8833 394.69 37.9 394.923 38.5C395.19 39.0667 396.157 39.2333 397.823 39C398.657 38.8667 399.54 38.65 400.473 38.35C401.407 38.05 402.323 37.7 403.223 37.3C404.123 36.8667 404.973 36.4167 405.773 35.95C406.573 35.45 407.24 34.95 407.773 34.45C407.94 34.2833 408.123 34.2167 408.323 34.25C408.557 34.25 408.757 34.3333 408.923 34.5C409.257 34.9 409.24 35.2833 408.873 35.65C408.273 36.1833 407.54 36.7167 406.673 37.25C405.807 37.7833 404.873 38.2833 403.873 38.75C402.907 39.1833 401.907 39.5667 400.873 39.9C399.873 40.2 398.94 40.4167 398.073 40.55C396.907 40.7167 395.84 40.75 394.873 40.65C393.94 40.55 393.223 40.2667 392.723 39.8C392.19 39.3333 391.94 38.6833 391.973 37.85C391.973 37.0167 392.357 35.95 393.123 34.65ZM415.725 31.35C415.892 31.45 415.992 31.6 416.025 31.8C416.092 32 416.092 32.1833 416.025 32.35C416.159 32.2167 416.292 32.1 416.425 32C416.559 31.8667 416.709 31.7167 416.875 31.55C417.075 31.2833 417.375 31.1167 417.775 31.05C418.209 30.9833 418.592 31.0167 418.925 31.15C419.292 31.25 419.542 31.4333 419.675 31.7C419.809 31.9333 419.692 32.25 419.325 32.65C418.359 33.6833 417.309 34.8833 416.175 36.25C415.042 37.5833 413.892 39.0333 412.725 40.6C413.625 40.5333 414.575 40.4 415.575 40.2C416.609 39.9667 417.675 39.6167 418.775 39.15C419.875 38.6833 420.992 38.0833 422.125 37.35C423.292 36.5833 424.475 35.6167 425.675 34.45C426.042 34.0833 426.425 34.1 426.825 34.5C427.159 34.8667 427.142 35.2333 426.775 35.6C425.342 37 423.909 38.1333 422.475 39C421.042 39.8333 419.659 40.5 418.325 41C417.025 41.4667 415.792 41.7833 414.625 41.95C413.459 42.1167 412.425 42.2167 411.525 42.25C411.425 42.4167 411.309 42.5667 411.175 42.7C411.075 42.8333 410.975 42.9833 410.875 43.15C411.309 44.25 411.625 45.35 411.825 46.45C412.025 47.5167 412.159 48.5833 412.225 49.65C412.325 51.25 412.259 52.7833 412.025 54.25C411.825 55.7167 411.492 57.0833 411.025 58.35C410.292 60.4167 409.442 62.0667 408.475 63.3C407.542 64.5333 406.592 65.3833 405.625 65.85C404.659 66.35 403.742 66.4833 402.875 66.25C402.009 66.05 401.325 65.5333 400.825 64.7C400.292 63.8667 399.992 62.7333 399.925 61.3C399.859 59.8667 400.125 58.2 400.725 56.3C401.292 54.4333 402.092 52.5167 403.125 50.55C404.159 48.5833 405.309 46.6333 406.575 44.7C406.909 44.2 407.242 43.7 407.575 43.2C407.909 42.7 408.242 42.2167 408.575 41.75C408.509 41.5833 408.509 41.4 408.575 41.2C408.642 40.9667 408.775 40.8167 408.975 40.75C409.042 40.6833 409.175 40.65 409.375 40.65C410.175 39.55 410.975 38.5 411.775 37.5C410.909 37.9333 410.125 38.1333 409.425 38.1C408.759 38.0667 408.242 37.85 407.875 37.45C407.542 37.05 407.392 36.4833 407.425 35.75C407.459 35.0167 407.775 34.1667 408.375 33.2C408.709 32.6667 409.125 32.1833 409.625 31.75C410.125 31.2833 410.692 30.95 411.325 30.75C411.959 30.5167 412.642 30.4333 413.375 30.5C414.142 30.5667 414.925 30.85 415.725 31.35ZM409.525 57.8C409.959 56.6333 410.275 55.3667 410.475 54C410.675 52.6667 410.742 51.25 410.675 49.75C410.575 48.15 410.275 46.5 409.775 44.8C409.709 44.9333 409.625 45.0667 409.525 45.2C409.425 45.3 409.342 45.4167 409.275 45.55C408.042 47.45 406.925 49.35 405.925 51.25C404.925 53.15 404.142 55 403.575 56.8C402.775 59.3 402.475 61.2 402.675 62.5C402.875 63.8333 403.342 64.55 404.075 64.65C404.809 64.75 405.692 64.2333 406.725 63.1C407.759 61.9667 408.692 60.2 409.525 57.8ZM415.575 32.75C415.342 32.8833 415.125 32.8667 414.925 32.7C414.492 32.4667 414.075 32.35 413.675 32.35C413.275 32.3167 412.892 32.3833 412.525 32.55C412.192 32.7167 411.892 32.95 411.625 33.25C411.359 33.5167 411.125 33.8167 410.925 34.15C410.459 34.9833 410.225 35.5333 410.225 35.8C410.259 36.0667 410.425 36.1667 410.725 36.1C411.025 36.0333 411.425 35.85 411.925 35.55C412.425 35.25 412.925 34.9167 413.425 34.55C413.925 34.15 414.375 33.7833 414.775 33.45C415.175 33.1167 415.442 32.8833 415.575 32.75ZM427.545 31.2C427.745 31 428.045 30.8667 428.445 30.8C428.879 30.7 429.262 30.6833 429.595 30.75C429.962 30.8167 430.212 30.9833 430.345 31.25C430.512 31.4833 430.412 31.8333 430.045 32.3C429.779 32.5667 429.429 33.0833 428.995 33.85C428.562 34.6167 428.195 35.4167 427.895 36.25C427.695 36.85 427.562 37.3667 427.495 37.8C427.429 38.2 427.445 38.4833 427.545 38.65C427.679 38.7833 427.895 38.7667 428.195 38.6C428.495 38.4333 428.912 38.0333 429.445 37.4C429.945 36.8 430.412 36.1167 430.845 35.35C431.279 34.5833 431.629 33.7667 431.895 32.9C431.962 32.7333 432.162 32.6 432.495 32.5C432.829 32.3667 433.179 32.3167 433.545 32.35C433.912 32.35 434.229 32.4167 434.495 32.55C434.762 32.6833 434.862 32.9167 434.795 33.25L434.745 33.4V33.45C434.479 34.55 434.562 35.3 434.995 35.7C435.429 36.1 435.995 36.2833 436.695 36.25C437.395 36.1833 438.129 35.9833 438.895 35.65C439.662 35.2833 440.262 34.8833 440.695 34.45C440.862 34.2833 441.045 34.2167 441.245 34.25C441.479 34.25 441.679 34.3333 441.845 34.5C442.012 34.6667 442.079 34.85 442.045 35.05C442.045 35.25 441.962 35.4333 441.795 35.6C441.295 36.1 440.595 36.5667 439.695 37C438.829 37.4 437.912 37.6833 436.945 37.85C436.012 38.0167 435.095 37.9833 434.195 37.75C433.329 37.5167 432.662 37 432.195 36.2C431.929 36.6 431.662 36.9833 431.395 37.35C431.162 37.7167 430.912 38.0667 430.645 38.4C429.845 39.3667 429.029 40.05 428.195 40.45C427.362 40.8167 426.645 40.8833 426.045 40.65C425.445 40.4167 425.045 39.9 424.845 39.1C424.612 38.3 424.729 37.2 425.195 35.8C425.495 34.8333 425.879 33.9167 426.345 33.05C426.845 32.15 427.245 31.5333 427.545 31.2ZM446.436 35.35C446.236 35.35 446.052 35.2333 445.886 35C445.519 34.4667 445.152 34.2167 444.786 34.25C444.419 34.25 444.069 34.4 443.736 34.7C443.402 34.9667 443.102 35.3333 442.836 35.8C442.602 36.2333 442.419 36.6167 442.286 36.95C442.152 37.35 442.119 37.6333 442.186 37.8C442.252 37.9667 442.369 38.0667 442.536 38.1C442.702 38.1 442.919 38.05 443.186 37.95C443.452 37.85 443.719 37.7167 443.986 37.55C444.286 37.3833 444.569 37.2 444.836 37C445.102 36.7667 445.302 36.6 445.436 36.5C445.802 36.1333 446.136 35.75 446.436 35.35ZM440.336 34.95C440.636 34.45 441.002 34 441.436 33.6C441.902 33.1667 442.386 32.8333 442.886 32.6C443.419 32.3667 443.969 32.2667 444.536 32.3C445.102 32.3333 445.652 32.5667 446.186 33C446.352 33.1667 446.502 33.3333 446.636 33.5C446.802 33.6333 446.969 33.8167 447.136 34.05C447.136 34.0167 447.136 34 447.136 34C447.169 33.9667 447.186 33.9333 447.186 33.9C447.186 33.6 447.336 33.3667 447.636 33.2C447.936 33.0333 448.269 32.95 448.636 32.95C449.002 32.95 449.336 33.05 449.636 33.25C449.936 33.45 450.086 33.7833 450.086 34.25C449.886 35.2833 449.902 36.0833 450.136 36.65C450.269 37.0167 450.502 37.2333 450.836 37.3C451.169 37.3667 451.552 37.35 451.986 37.25C452.419 37.1167 452.869 36.9167 453.336 36.65C453.836 36.3833 454.302 36.1167 454.736 35.85C455.169 35.55 455.552 35.2667 455.886 35C456.219 34.7333 456.452 34.55 456.586 34.45C456.752 34.3167 456.936 34.2667 457.136 34.3C457.369 34.3 457.552 34.3833 457.686 34.55C457.852 34.7167 457.919 34.9167 457.886 35.15C457.852 35.35 457.752 35.5333 457.586 35.7C456.719 36.4333 455.836 37.0667 454.936 37.6C454.036 38.1333 453.202 38.5 452.436 38.7C452.102 38.8 451.736 38.9 451.336 39C450.936 39.0667 450.519 39.1 450.086 39.1C449.686 39.0667 449.302 39 448.936 38.9C448.569 38.7667 448.236 38.55 447.936 38.25C447.602 37.8833 447.369 37.4333 447.236 36.9L446.486 37.65C446.152 37.95 445.802 38.2333 445.436 38.5C445.069 38.7667 444.669 39 444.236 39.2C443.069 39.8 442.102 40.0667 441.336 40C440.602 39.9333 440.086 39.6667 439.786 39.2C439.452 38.7333 439.336 38.1167 439.436 37.35C439.536 36.55 439.836 35.75 440.336 34.95ZM464.054 27.85L462.854 28.75C462.62 28.9167 462.354 29.0333 462.054 29.1C461.787 29.1667 461.554 29.1833 461.354 29.15C461.154 29.0833 461.02 28.95 460.954 28.75C460.92 28.55 461.02 28.25 461.254 27.85L461.654 27.1C461.887 26.7 462.204 26.4667 462.604 26.4C463.037 26.3 463.42 26.3167 463.754 26.45C464.12 26.5833 464.354 26.7833 464.454 27.05C464.587 27.3167 464.454 27.5833 464.054 27.85ZM461.554 31.75C460.82 32.7167 460.054 33.8333 459.254 35.1C458.487 36.3333 457.904 37.5 457.504 38.6C457.304 39.1667 457.22 39.5833 457.254 39.85C457.32 40.0833 457.47 40.2167 457.704 40.25C457.937 40.2833 458.22 40.2333 458.554 40.1C458.887 39.9333 459.254 39.75 459.654 39.55C460.354 39.15 461.104 38.6667 461.904 38.1C462.704 37.5333 463.454 36.9833 464.154 36.45C464.854 35.9167 465.437 35.45 465.904 35.05C466.37 34.65 466.604 34.45 466.604 34.45C466.77 34.3167 466.954 34.2667 467.154 34.3C467.354 34.3 467.537 34.3833 467.704 34.55C467.87 34.7167 467.937 34.9167 467.904 35.15C467.87 35.35 467.77 35.5333 467.604 35.7C466.87 36.3 466.104 36.9 465.304 37.5C464.637 38 463.87 38.5333 463.004 39.1C462.17 39.6667 461.337 40.1667 460.504 40.6C459.837 40.9333 459.104 41.2167 458.304 41.45C457.504 41.65 456.804 41.7 456.204 41.6C455.604 41.4667 455.17 41.1333 454.904 40.6C454.637 40.0333 454.72 39.15 455.154 37.95C455.42 37.2167 455.67 36.55 455.904 35.95C456.137 35.3167 456.387 34.7333 456.654 34.2C456.954 33.6333 457.27 33.0833 457.604 32.55C457.97 32.0167 458.404 31.4333 458.904 30.8C459.037 30.5667 459.304 30.4167 459.704 30.35C460.137 30.25 460.537 30.2333 460.904 30.3C461.27 30.3667 461.537 30.5333 461.704 30.8C461.904 31.0333 461.854 31.35 461.554 31.75ZM467.713 32.85C467.913 32.5833 468.197 32.4167 468.563 32.35C468.963 32.25 469.33 32.25 469.663 32.35C469.997 32.4167 470.23 32.5833 470.363 32.85C470.497 33.0833 470.43 33.4 470.163 33.8C469.497 34.7333 468.763 35.8167 467.963 37.05C467.197 38.2833 466.53 39.4667 465.963 40.6C465.597 41.4 465.313 42.0667 465.113 42.6C465.413 42.3333 465.747 42.0167 466.113 41.65C466.48 41.25 466.88 40.8167 467.313 40.35C467.88 39.75 468.48 39.1167 469.113 38.45C469.78 37.7833 470.447 37.15 471.113 36.55C471.813 35.9167 472.497 35.3333 473.163 34.8C473.83 34.2667 474.463 33.8167 475.063 33.45C475.097 33.4167 475.13 33.4 475.163 33.4C475.197 33.3667 475.23 33.3333 475.263 33.3C475.797 33.0333 476.28 32.85 476.713 32.75C477.48 32.5833 478.047 32.7167 478.413 33.15C478.78 33.5833 479.047 34.1833 479.213 34.95C479.28 35.2167 479.33 35.5 479.363 35.8C479.397 36.1 479.43 36.4 479.463 36.7C479.53 37.1333 479.58 37.55 479.613 37.95C479.68 38.35 479.763 38.7 479.863 39C480.03 39.5667 480.28 39.9167 480.613 40.05C480.947 40.1833 481.313 40.2 481.713 40.1C482.113 39.9667 482.513 39.7667 482.913 39.5C483.313 39.2 483.663 38.9333 483.963 38.7C484.53 38.2333 485.197 37.6667 485.963 37C486.73 36.3 487.597 35.45 488.563 34.45C488.73 34.2833 488.913 34.2 489.113 34.2C489.347 34.2 489.547 34.2833 489.713 34.45C489.88 34.6167 489.963 34.8167 489.963 35.05C489.963 35.25 489.88 35.4333 489.713 35.6C488.78 36.5667 487.913 37.4 487.113 38.1C486.347 38.7667 485.63 39.35 484.963 39.85C484.463 40.2167 483.863 40.6 483.163 41C482.497 41.4 481.813 41.7 481.113 41.9C480.447 42.0667 479.797 42.0667 479.163 41.9C478.53 41.7333 478.013 41.2667 477.613 40.5C477.38 40.0333 477.197 39.55 477.063 39.05C476.963 38.5167 476.863 37.9667 476.763 37.4C476.697 37.1333 476.647 36.8333 476.613 36.5C476.58 36.1333 476.513 35.8167 476.413 35.55C476.313 35.2833 476.163 35.1 475.963 35C475.797 34.9 475.547 34.9667 475.213 35.2C474.713 35.5667 474.163 36 473.563 36.5C472.997 36.9667 472.413 37.4833 471.813 38.05C471.247 38.6167 470.663 39.2 470.063 39.8C469.497 40.3667 468.963 40.9167 468.463 41.45C467.997 41.9167 467.563 42.3667 467.163 42.8C466.763 43.2 466.397 43.55 466.063 43.85V43.9C465.663 44.3 465.23 44.6167 464.763 44.85C464.297 45.0833 463.863 45.1667 463.463 45.1C463.23 45.1 463.03 45.0667 462.863 45C462.697 44.9 462.563 44.8 462.463 44.7C462.33 44.5667 462.247 44.45 462.213 44.35C461.98 43.8833 461.98 43.2833 462.213 42.55C462.413 41.7833 462.747 40.9333 463.213 40C463.813 38.8333 464.547 37.6 465.413 36.3C466.247 34.9667 467.013 33.8167 467.713 32.85ZM490.336 22.5C489.803 22.5 489.536 22.2333 489.536 21.7C489.503 21.5 489.553 21.3167 489.686 21.15C489.853 20.9833 490.053 20.9 490.286 20.9L496.336 20.75C496.936 19.8167 497.486 18.95 497.986 18.15C498.486 17.35 498.919 16.6667 499.286 16.1C499.653 15.5 499.953 15.05 500.186 14.75C500.419 14.4167 500.536 14.25 500.536 14.25C500.636 14.05 500.886 13.9167 501.286 13.85C501.686 13.7833 502.069 13.7833 502.436 13.85C502.803 13.8833 503.086 14.0167 503.286 14.25C503.486 14.45 503.453 14.7333 503.186 15.1C503.186 15.1333 502.836 15.6667 502.136 16.7C501.469 17.7 500.619 19.0333 499.586 20.7L504.036 20.55C504.569 20.55 504.836 20.8167 504.836 21.35C504.869 21.5833 504.803 21.7833 504.636 21.95C504.503 22.0833 504.319 22.15 504.086 22.15L498.586 22.3C497.853 23.5 497.086 24.7833 496.286 26.15C495.486 27.4833 494.703 28.85 493.936 30.25C493.169 31.6167 492.436 32.9833 491.736 34.35C491.069 35.7167 490.486 37 489.986 38.2C489.219 39.9667 488.786 41.3 488.686 42.2C488.619 43.0667 488.803 43.6 489.236 43.8C489.703 43.9667 490.386 43.8667 491.286 43.5C492.186 43.1 493.269 42.5333 494.536 41.8C495.436 41.2667 496.336 40.6833 497.236 40.05C498.136 39.3833 498.969 38.7333 499.736 38.1C500.503 37.4333 501.186 36.7833 501.786 36.15C502.419 35.5167 502.903 34.95 503.236 34.45C503.336 34.2833 503.486 34.1833 503.686 34.15C503.919 34.0833 504.136 34.1167 504.336 34.25C504.503 34.3833 504.603 34.5667 504.636 34.8C504.703 35 504.669 35.1833 504.536 35.35C504.169 35.8833 503.669 36.4833 503.036 37.15C502.436 37.7833 501.736 38.4333 500.936 39.1C500.169 39.7667 499.319 40.4333 498.386 41.1C497.486 41.7667 496.569 42.3833 495.636 42.95C494.069 43.9167 492.553 44.6333 491.086 45.1C489.619 45.5667 488.436 45.6667 487.536 45.4C486.603 45.1 486.053 44.35 485.886 43.15C485.686 41.9167 486.103 40.0667 487.136 37.6C487.636 36.4667 488.203 35.25 488.836 33.95C489.469 32.65 490.153 31.35 490.886 30.05C491.619 28.7167 492.369 27.4 493.136 26.1C493.903 24.8 494.636 23.55 495.336 22.35L490.336 22.5ZM508.334 32.95C508.068 33.0833 507.801 33.25 507.534 33.45C507.268 33.65 507.001 33.9333 506.734 34.3C507.568 34.1333 508.168 33.9667 508.534 33.8C509.068 33.6 509.418 33.4167 509.584 33.25C509.751 33.0833 509.801 32.95 509.734 32.85C509.668 32.75 509.501 32.7 509.234 32.7C508.968 32.7 508.668 32.7833 508.334 32.95ZM507.534 39C508.268 38.9 509.051 38.7167 509.884 38.45C510.751 38.1833 511.601 37.85 512.434 37.45C513.301 37.05 514.101 36.6 514.834 36.1C515.601 35.5667 516.268 35.0167 516.834 34.45C517.001 34.2833 517.184 34.2 517.384 34.2C517.618 34.1667 517.818 34.2333 517.984 34.4C518.351 34.8 518.351 35.1833 517.984 35.55C517.384 36.1833 516.651 36.7833 515.784 37.35C514.951 37.9167 514.068 38.4333 513.134 38.9C512.234 39.3333 511.301 39.7 510.334 40C509.401 40.3 508.518 40.5 507.684 40.6C507.284 40.6667 506.801 40.7167 506.234 40.75C505.701 40.75 505.168 40.7167 504.634 40.65C504.101 40.5833 503.618 40.45 503.184 40.25C502.718 40.0167 502.368 39.6833 502.134 39.25C501.934 38.8833 501.851 38.5 501.884 38.1C501.884 37.7 501.951 37.3 502.084 36.9C502.184 36.4667 502.334 36.0667 502.534 35.7C502.701 35.3 502.884 34.95 503.084 34.65C503.618 33.8833 504.251 33.1833 504.984 32.55C505.718 31.8833 506.551 31.4167 507.484 31.15C508.418 30.9167 509.218 30.9167 509.884 31.15C510.551 31.3833 511.001 31.7333 511.234 32.2C511.468 32.6667 511.434 33.2 511.134 33.8C510.868 34.3667 510.234 34.85 509.234 35.25C508.768 35.4167 508.218 35.5667 507.584 35.7C506.984 35.8333 506.284 35.9333 505.484 36C504.884 37.0333 504.668 37.8 504.834 38.3C504.868 38.5333 505.001 38.7 505.234 38.8C505.468 38.9 505.718 38.9833 505.984 39.05C506.284 39.0833 506.568 39.1 506.834 39.1C507.134 39.0667 507.368 39.0333 507.534 39ZM539.207 15.4C538.807 16.2667 538.291 17.2833 537.657 18.45C537.057 19.5833 536.407 20.8167 535.707 22.15C535.141 23.2167 534.491 24.4167 533.757 25.75C533.024 27.0833 532.291 28.4333 531.557 29.8C530.824 31.1667 530.141 32.5167 529.507 33.85C528.874 35.15 528.374 36.3 528.007 37.3C527.674 38.2667 527.524 39.0333 527.557 39.6C527.624 40.1333 527.974 40.35 528.607 40.25C529.241 40.15 530.207 39.65 531.507 38.75C532.841 37.8167 534.591 36.3833 536.757 34.45C536.924 34.3167 537.107 34.2667 537.307 34.3C537.507 34.3 537.691 34.3833 537.857 34.55C538.024 34.7167 538.091 34.9 538.057 35.1C538.057 35.3 537.974 35.4833 537.807 35.65C537.674 35.75 537.307 36.0667 536.707 36.6C536.141 37.1 535.441 37.6833 534.607 38.35C533.774 39.0167 532.874 39.6833 531.907 40.35C530.941 40.9833 530.007 41.5 529.107 41.9C528.241 42.2667 527.474 42.45 526.807 42.45C526.141 42.4167 525.674 42.05 525.407 41.35C525.141 40.65 525.207 39.5667 525.607 38.1C526.041 36.6 526.657 34.9 527.457 33C526.091 34.9 524.674 36.5333 523.207 37.9C521.774 39.2667 520.257 40.1667 518.657 40.6C518.091 40.7667 517.607 40.7833 517.207 40.65C516.807 40.5167 516.474 40.2833 516.207 39.95C515.674 39.25 515.541 38.3167 515.807 37.15C516.007 36.0167 516.457 34.9667 517.157 34C517.824 33 518.674 32.2167 519.707 31.65C520.774 31.05 521.957 30.9667 523.257 31.4C523.424 31.4667 523.574 31.5333 523.707 31.6C523.874 31.6333 524.041 31.7 524.207 31.8C524.441 31.9333 524.757 32.1333 525.157 32.4C525.357 32.5667 525.457 32.7833 525.457 33.05C526.724 31.35 527.957 29.4667 529.157 27.4C530.391 25.3333 531.591 23.25 532.757 21.15C534.024 18.7833 535.257 16.6167 536.457 14.65C536.491 14.6167 536.674 14.5667 537.007 14.5C537.374 14.4 537.741 14.3667 538.107 14.4C538.507 14.4 538.824 14.4667 539.057 14.6C539.324 14.7333 539.374 15 539.207 15.4ZM524.907 33.8C524.641 33.8667 524.407 33.8167 524.207 33.65C523.574 33.15 522.957 32.9333 522.357 33C521.791 33.0667 521.207 33.35 520.607 33.85C520.007 34.3833 519.541 34.9667 519.207 35.6C518.907 36.0333 518.707 36.5 518.607 37C518.441 37.5 518.391 37.95 518.457 38.35C518.524 38.7167 518.724 38.8833 519.057 38.85C519.391 38.7833 519.774 38.6 520.207 38.3C520.674 38 521.157 37.6167 521.657 37.15C522.191 36.65 522.674 36.1833 523.107 35.75C523.574 35.2833 523.974 34.8667 524.307 34.5C524.641 34.1333 524.841 33.9 524.907 33.8Z" fill="#F1523C"/>
</svg>
