<svg width="962" height="160" viewBox="0 0 962 160" fill="none" xmlns="http://www.w3.org/2000/svg">
<path d="M8.49609 127C8.49609 127 8.49609 97.4492 8.49609 38.3477C8.49609 38.3477 29.4727 38.3477 71.4258 38.3477C71.4258 38.3477 71.4258 67.8984 71.4258 127C71.4258 127 65.9375 127 54.9609 127C54.9609 127 54.9609 102.684 54.9609 54.0508C54.9609 54.0508 44.9609 54.0508 24.9609 54.0508C24.9609 54.0508 24.9609 78.3672 24.9609 127C24.9609 127 19.4727 127 8.49609 127ZM86.4258 149.207C86.4258 149.207 86.4258 119.637 86.4258 60.4961C86.4258 60.4961 91.2891 60.4961 101.016 60.4961C101.016 60.4961 101.016 63.1133 101.016 68.3477C106.289 62.0977 113.574 58.9727 122.871 58.9727C129.199 58.9727 134.883 60.457 139.922 63.4258C144.961 66.3555 148.887 70.457 151.699 75.7305C154.551 81.0039 155.977 86.9414 155.977 93.543C155.977 100.184 154.551 106.18 151.699 111.531C148.848 116.844 144.883 121.023 139.805 124.07C134.766 127.078 129.082 128.582 122.754 128.582C118.691 128.582 115.039 127.957 111.797 126.707C108.555 125.457 105.41 123.484 102.363 120.789V149.207H86.4258ZM120.469 73.6211C115.078 73.6211 110.547 75.5742 106.875 79.4805C103.242 83.3477 101.426 88.1914 101.426 94.0117C101.426 99.6758 103.301 104.422 107.051 108.25C110.801 112.039 115.43 113.934 120.938 113.934C126.289 113.934 130.781 112.02 134.414 108.191C138.086 104.324 139.922 99.5586 139.922 93.8945C139.922 88.0352 138.086 83.1914 134.414 79.3633C130.742 75.5352 126.094 73.6211 120.469 73.6211ZM211.465 60.4961C211.465 60.4961 216.855 60.4961 227.637 60.4961C227.637 60.4961 227.637 82.6641 227.637 127C227.637 127 222.363 127 211.816 127C211.816 127 211.816 112.352 211.816 83.0547C211.816 83.0547 201.895 97.7031 182.051 127C182.051 127 176.66 127 165.879 127C165.879 127 165.879 104.832 165.879 60.4961C165.879 60.4961 171.152 60.4961 181.699 60.4961C181.699 60.4961 181.699 75.1445 181.699 104.441C181.699 104.441 191.621 89.793 211.465 60.4961ZM256.582 75.0273C256.582 75.0273 256.582 78.9922 256.582 86.9219C256.582 86.9219 260.332 86.9219 267.832 86.9219C271.113 86.9219 273.594 86.3945 275.273 85.3398C276.953 84.2461 277.793 82.7812 277.793 80.9453C277.793 79.1094 276.934 77.6641 275.215 76.6094C273.535 75.5547 271.074 75.0273 267.832 75.0273H256.582ZM256.582 98.582C256.582 98.582 256.582 103.211 256.582 112.469C256.582 112.469 261.426 112.469 271.113 112.469C273.535 112.469 275.469 111.844 276.914 110.594C278.398 109.305 279.141 107.605 279.141 105.496C279.141 103.387 278.398 101.707 276.914 100.457C275.469 99.207 273.535 98.582 271.113 98.582H256.582ZM285.234 92.4297C288.008 93.4844 290.352 95.125 292.266 97.3516C294.219 99.5391 295.195 102.254 295.195 105.496C295.195 111.512 293.047 116.609 288.75 120.789C284.453 124.93 278.926 127 272.168 127H240.645V60.4961C240.645 60.4961 249.766 60.4961 268.008 60.4961C275.547 60.4961 281.602 62.2539 286.172 65.7695C290.781 69.2852 293.086 74.3438 293.086 80.9453C293.086 83.4844 292.305 85.8086 290.742 87.918C289.219 90.0273 287.383 91.5312 285.234 92.4297ZM371.191 100.867C371.191 100.867 354.023 100.867 319.688 100.867C320.664 104.891 322.793 108.074 326.074 110.418C329.355 112.762 333.359 113.934 338.086 113.934C341.367 113.934 344.102 113.445 346.289 112.469C348.477 111.453 350.605 109.734 352.676 107.312H370.078C369.141 110.32 367.383 113.406 364.805 116.57C357.93 124.578 349.141 128.582 338.438 128.582C333.438 128.582 328.711 127.684 324.258 125.887C319.805 124.09 315.977 121.668 312.773 118.621C309.609 115.535 307.09 111.863 305.215 107.605C303.34 103.309 302.402 98.7773 302.402 94.0117C302.402 87.6055 303.945 81.7266 307.031 76.375C310.156 70.9844 314.395 66.7461 319.746 63.6602C325.137 60.5352 331.035 58.9727 337.441 58.9727C343.965 58.9727 349.844 60.5156 355.078 63.6016C360.312 66.6484 364.395 70.9062 367.324 76.375C370.293 81.8047 371.777 87.918 371.777 94.7148C371.777 96.9023 371.582 98.9531 371.191 100.867ZM319.219 86.8047H356.074C355.059 82.5469 352.969 79.2852 349.805 77.0195C346.641 74.7539 342.598 73.6211 337.676 73.6211C332.91 73.6211 328.945 74.7539 325.781 77.0195C322.656 79.2461 320.469 82.5078 319.219 86.8047ZM422.695 75.0273C422.695 75.0273 417.52 75.0273 407.168 75.0273C407.168 75.0273 407.168 92.3516 407.168 127C407.168 127 401.855 127 391.23 127C391.23 127 391.23 109.676 391.23 75.0273C391.23 75.0273 386.074 75.0273 375.762 75.0273C375.762 75.0273 375.762 70.1836 375.762 60.4961C375.762 60.4961 391.406 60.4961 422.695 60.4961C422.695 60.4961 422.695 65.3398 422.695 75.0273ZM425.977 127C425.977 127 425.977 121.883 425.977 111.648C425.977 111.648 431.289 111.648 441.914 111.648C441.914 111.648 441.914 117.039 441.914 127.82C441.914 134.539 439.277 139.305 434.004 142.117C431.777 143.25 429.102 143.816 425.977 143.816C425.977 143.816 425.977 141.141 425.977 135.789C428.477 135.32 430.273 134.559 431.367 133.504C432.461 132.488 433.008 131.043 433.008 129.168C433.008 128.27 432.969 127.547 432.891 127H425.977ZM523.594 89.4414C523.594 89.4414 523.594 84.6367 523.594 75.0273C523.594 75.0273 520.098 75.0273 513.105 75.0273C510.723 75.0273 508.789 75.7109 507.305 77.0781C505.82 78.4062 505.078 80.125 505.078 82.2344C505.078 84.3438 505.82 86.082 507.305 87.4492C508.789 88.7773 510.723 89.4414 513.105 89.4414H523.594ZM503.32 102.508C498.945 100.906 495.469 98.2695 492.891 94.5977C490.312 90.8867 489.023 86.7656 489.023 82.2344C489.023 76.1797 491.172 71.043 495.469 66.8242C499.766 62.6055 505.293 60.4961 512.051 60.4961H539.531V127C539.531 127 534.219 127 523.594 127C523.594 127 523.594 119.324 523.594 103.973C523.594 103.973 522.305 103.973 519.727 103.973C519.727 103.973 515.039 111.648 505.664 127C505.664 127 499.277 127 486.504 127C486.504 127 492.109 118.836 503.32 102.508ZM580.43 127C580.43 127 592.754 97.4492 617.402 38.3477C617.402 38.3477 621.719 38.3477 630.352 38.3477C630.352 38.3477 642.754 67.8984 667.559 127C667.559 127 661.523 127 649.453 127C649.453 127 646.289 119.363 639.961 104.09C639.961 104.09 629.453 104.09 608.438 104.09C608.438 104.09 605.156 111.727 598.594 127C598.594 127 592.539 127 580.43 127ZM614.414 88.3867C614.414 88.3867 620.742 88.3867 633.398 88.3867C633.398 88.3867 630.234 79.4219 623.906 61.4922C623.906 61.4922 620.742 70.457 614.414 88.3867ZM674.941 149.207C674.941 149.207 674.941 119.637 674.941 60.4961C674.941 60.4961 679.805 60.4961 689.531 60.4961C689.531 60.4961 689.531 63.1133 689.531 68.3477C694.805 62.0977 702.09 58.9727 711.387 58.9727C717.715 58.9727 723.398 60.457 728.438 63.4258C733.477 66.3555 737.402 70.457 740.215 75.7305C743.066 81.0039 744.492 86.9414 744.492 93.543C744.492 100.184 743.066 106.18 740.215 111.531C737.363 116.844 733.398 121.023 728.32 124.07C723.281 127.078 717.598 128.582 711.27 128.582C707.207 128.582 703.555 127.957 700.312 126.707C697.07 125.457 693.926 123.484 690.879 120.789V149.207H674.941ZM708.984 73.6211C703.594 73.6211 699.062 75.5742 695.391 79.4805C691.758 83.3477 689.941 88.1914 689.941 94.0117C689.941 99.6758 691.816 104.422 695.566 108.25C699.316 112.039 703.945 113.934 709.453 113.934C714.805 113.934 719.297 112.02 722.93 108.191C726.602 104.324 728.438 99.5586 728.438 93.8945C728.438 88.0352 726.602 83.1914 722.93 79.3633C719.258 75.5352 714.609 73.6211 708.984 73.6211ZM795.469 75.0273C795.469 75.0273 790.293 75.0273 779.941 75.0273C779.941 75.0273 779.941 92.3516 779.941 127C779.941 127 774.629 127 764.004 127C764.004 127 764.004 109.676 764.004 75.0273C764.004 75.0273 758.848 75.0273 748.535 75.0273C748.535 75.0273 748.535 70.1836 748.535 60.4961C748.535 60.4961 764.18 60.4961 795.469 60.4961C795.469 60.4961 795.469 65.3398 795.469 75.0273ZM868.184 100.867C868.184 100.867 851.016 100.867 816.68 100.867C817.656 104.891 819.785 108.074 823.066 110.418C826.348 112.762 830.352 113.934 835.078 113.934C838.359 113.934 841.094 113.445 843.281 112.469C845.469 111.453 847.598 109.734 849.668 107.312H867.07C866.133 110.32 864.375 113.406 861.797 116.57C854.922 124.578 846.133 128.582 835.43 128.582C830.43 128.582 825.703 127.684 821.25 125.887C816.797 124.09 812.969 121.668 809.766 118.621C806.602 115.535 804.082 111.863 802.207 107.605C800.332 103.309 799.395 98.7773 799.395 94.0117C799.395 87.6055 800.938 81.7266 804.023 76.375C807.148 70.9844 811.387 66.7461 816.738 63.6602C822.129 60.5352 828.027 58.9727 834.434 58.9727C840.957 58.9727 846.836 60.5156 852.07 63.6016C857.305 66.6484 861.387 70.9062 864.316 76.375C867.285 81.8047 868.77 87.918 868.77 94.7148C868.77 96.9023 868.574 98.9531 868.184 100.867ZM816.211 86.8047H853.066C852.051 82.5469 849.961 79.2852 846.797 77.0195C843.633 74.7539 839.59 73.6211 834.668 73.6211C829.902 73.6211 825.938 74.7539 822.773 77.0195C819.648 79.2461 817.461 82.5078 816.211 86.8047ZM921.562 113.172C921.562 113.172 918.438 113.172 912.188 113.172C912.188 113.172 906.309 103.133 894.551 83.0547C894.551 83.0547 894.551 97.7031 894.551 127C894.551 127 889.238 127 878.613 127C878.613 127 878.613 104.832 878.613 60.4961C878.613 60.4961 884.688 60.4961 896.836 60.4961C896.836 60.4961 903.516 71.8633 916.875 94.5977C916.875 94.5977 923.555 83.2305 936.914 60.4961C936.914 60.4961 942.988 60.4961 955.137 60.4961C955.137 60.4961 955.137 82.6641 955.137 127C955.137 127 949.824 127 939.199 127C939.199 127 939.199 112.352 939.199 83.0547C939.199 83.0547 933.32 93.0938 921.562 113.172Z" fill="#1D1D1D"/>
<path d="M606.9 16.5C607.033 16.2667 607.267 16.1167 607.6 16.05C607.967 15.9833 608.317 16 608.65 16.1C608.983 16.1667 609.233 16.3167 609.4 16.55C609.567 16.7833 609.517 17.0833 609.25 17.45C608.117 19.0167 606.95 20.8333 605.75 22.9C604.583 24.9667 603.433 27.1167 602.3 29.35C601.167 31.55 600.083 33.7333 599.05 35.9C598.017 38.0667 597.1 40.05 596.3 41.85C595.967 42.55 595.717 43.1833 595.55 43.75C595.383 44.2833 595.35 44.7167 595.45 45.05C595.517 45.35 595.75 45.5167 596.15 45.55C596.583 45.55 597.233 45.3667 598.1 45C598.933 44.6667 599.833 44.2 600.8 43.6C601.767 43 602.733 42.3333 603.7 41.6C604.667 40.8333 605.6 40.0167 606.5 39.15C607.4 38.25 608.2 37.35 608.9 36.45C609.033 36.2833 609.2 36.1833 609.4 36.15C609.633 36.1167 609.833 36.1833 610 36.35C610.167 36.4833 610.267 36.6667 610.3 36.9C610.333 37.1 610.283 37.2833 610.15 37.45C609.417 38.3833 608.567 39.3167 607.6 40.25C606.633 41.1833 605.633 42.05 604.6 42.85C603.6 43.65 602.583 44.3667 601.55 45C600.517 45.6333 599.567 46.1167 598.7 46.45C597.567 46.9167 596.567 47.1333 595.7 47.1C594.8 47.0333 594.117 46.7667 593.65 46.3C593.15 45.8 592.9 45.1167 592.9 44.25C592.867 43.3833 593.167 42.3667 593.8 41.2C594.633 39.3667 595.567 37.35 596.6 35.15C597.633 32.95 598.717 30.75 599.85 28.55C601.017 26.3167 602.183 24.15 603.35 22.05C604.55 19.95 605.733 18.1 606.9 16.5ZM613.991 34.95C613.724 35.0833 613.457 35.25 613.191 35.45C612.924 35.65 612.657 35.9333 612.391 36.3C613.224 36.1333 613.824 35.9667 614.191 35.8C614.724 35.6 615.074 35.4167 615.241 35.25C615.407 35.0833 615.457 34.95 615.391 34.85C615.324 34.75 615.157 34.7 614.891 34.7C614.624 34.7 614.324 34.7833 613.991 34.95ZM613.191 41C613.924 40.9 614.707 40.7167 615.541 40.45C616.407 40.1833 617.257 39.85 618.091 39.45C618.957 39.05 619.757 38.6 620.491 38.1C621.257 37.5667 621.924 37.0167 622.491 36.45C622.657 36.2833 622.841 36.2 623.041 36.2C623.274 36.1667 623.474 36.2333 623.641 36.4C624.007 36.8 624.007 37.1833 623.641 37.55C623.041 38.1833 622.307 38.7833 621.441 39.35C620.607 39.9167 619.724 40.4333 618.791 40.9C617.891 41.3333 616.957 41.7 615.991 42C615.057 42.3 614.174 42.5 613.341 42.6C612.941 42.6667 612.457 42.7167 611.891 42.75C611.357 42.75 610.824 42.7167 610.291 42.65C609.757 42.5833 609.274 42.45 608.841 42.25C608.374 42.0167 608.024 41.6833 607.791 41.25C607.591 40.8833 607.507 40.5 607.541 40.1C607.541 39.7 607.607 39.3 607.741 38.9C607.841 38.4667 607.991 38.0667 608.191 37.7C608.357 37.3 608.541 36.95 608.741 36.65C609.274 35.8833 609.907 35.1833 610.641 34.55C611.374 33.8833 612.207 33.4167 613.141 33.15C614.074 32.9167 614.874 32.9167 615.541 33.15C616.207 33.3833 616.657 33.7333 616.891 34.2C617.124 34.6667 617.091 35.2 616.791 35.8C616.524 36.3667 615.891 36.85 614.891 37.25C614.424 37.4167 613.874 37.5667 613.241 37.7C612.641 37.8333 611.941 37.9333 611.141 38C610.541 39.0333 610.324 39.8 610.491 40.3C610.524 40.5333 610.657 40.7 610.891 40.8C611.124 40.9 611.374 40.9833 611.641 41.05C611.941 41.0833 612.224 41.1 612.491 41.1C612.791 41.0667 613.024 41.0333 613.191 41ZM624.264 24.5C623.73 24.5 623.464 24.2333 623.464 23.7C623.43 23.5 623.48 23.3167 623.614 23.15C623.78 22.9833 623.98 22.9 624.214 22.9L630.264 22.75C630.864 21.8167 631.414 20.95 631.914 20.15C632.414 19.35 632.847 18.6667 633.214 18.1C633.58 17.5 633.88 17.05 634.114 16.75C634.347 16.4167 634.464 16.25 634.464 16.25C634.564 16.05 634.814 15.9167 635.214 15.85C635.614 15.7833 635.997 15.7833 636.364 15.85C636.73 15.8833 637.014 16.0167 637.214 16.25C637.414 16.45 637.38 16.7333 637.114 17.1C637.114 17.1333 636.764 17.6667 636.064 18.7C635.397 19.7 634.547 21.0333 633.514 22.7L637.964 22.55C638.497 22.55 638.764 22.8167 638.764 23.35C638.797 23.5833 638.73 23.7833 638.564 23.95C638.43 24.0833 638.247 24.15 638.014 24.15L632.514 24.3C631.78 25.5 631.014 26.7833 630.214 28.15C629.414 29.4833 628.63 30.85 627.864 32.25C627.097 33.6167 626.364 34.9833 625.664 36.35C624.997 37.7167 624.414 39 623.914 40.2C623.147 41.9667 622.714 43.3 622.614 44.2C622.547 45.0667 622.73 45.6 623.164 45.8C623.63 45.9667 624.314 45.8667 625.214 45.5C626.114 45.1 627.197 44.5333 628.464 43.8C629.364 43.2667 630.264 42.6833 631.164 42.05C632.064 41.3833 632.897 40.7333 633.664 40.1C634.43 39.4333 635.114 38.7833 635.714 38.15C636.347 37.5167 636.83 36.95 637.164 36.45C637.264 36.2833 637.414 36.1833 637.614 36.15C637.847 36.0833 638.064 36.1167 638.264 36.25C638.43 36.3833 638.53 36.5667 638.564 36.8C638.63 37 638.597 37.1833 638.464 37.35C638.097 37.8833 637.597 38.4833 636.964 39.15C636.364 39.7833 635.664 40.4333 634.864 41.1C634.097 41.7667 633.247 42.4333 632.314 43.1C631.414 43.7667 630.497 44.3833 629.564 44.95C627.997 45.9167 626.48 46.6333 625.014 47.1C623.547 47.5667 622.364 47.6667 621.464 47.4C620.53 47.1 619.98 46.35 619.814 45.15C619.614 43.9167 620.03 42.0667 621.064 39.6C621.564 38.4667 622.13 37.25 622.764 35.95C623.397 34.65 624.08 33.35 624.814 32.05C625.547 30.7167 626.297 29.4 627.064 28.1C627.83 26.8 628.564 25.55 629.264 24.35L624.264 24.5ZM640.812 22.3C640.845 22.2333 640.929 22.1833 641.062 22.15C641.229 22.0833 641.379 22.0667 641.512 22.1C641.679 22.1 641.812 22.1333 641.912 22.2C642.045 22.2667 642.095 22.3833 642.062 22.55L641.212 28.1C641.112 28.3333 640.912 28.4833 640.612 28.55C640.345 28.6167 640.079 28.6333 639.812 28.6C639.579 28.5333 639.379 28.4 639.212 28.2C639.079 28 639.095 27.75 639.262 27.45L640.812 22.3ZM651.446 36.5C652.079 37.1667 652.679 37.8333 653.246 38.5C653.813 39.1333 654.279 39.9 654.646 40.8C654.713 40.7333 654.763 40.7 654.796 40.7C654.863 40.6667 654.929 40.6333 654.996 40.6C657.329 39.2667 659.096 37.8833 660.296 36.45C660.429 36.2833 660.596 36.2 660.796 36.2C661.029 36.1667 661.229 36.2167 661.396 36.35C661.563 36.5167 661.663 36.7167 661.696 36.95C661.729 37.15 661.663 37.3333 661.496 37.5C660.163 39.1 658.246 40.6 655.746 42C655.646 42.0667 655.529 42.1333 655.396 42.2C655.296 42.2667 655.179 42.3333 655.046 42.4C655.113 43 655.046 43.65 654.846 44.35C654.679 45.0167 654.346 45.7333 653.846 46.5C653.079 47.6333 652.163 48.4667 651.096 49C650.096 49.5 649.113 49.7667 648.146 49.8C647.179 49.8 646.313 49.6667 645.546 49.4C644.779 49.1333 644.179 48.7667 643.746 48.3C643.279 47.8 643.079 47.2667 643.146 46.7C643.213 46.1333 643.579 45.5833 644.246 45.05C644.913 44.4833 645.979 44 647.446 43.6C649.179 43.1333 650.679 42.6167 651.946 42.05C651.779 41.2167 651.446 40.4833 650.946 39.85C650.446 39.2167 649.963 38.6667 649.496 38.2C649.163 37.8667 648.863 37.5167 648.596 37.15C648.329 36.75 648.163 36.3667 648.096 36C647.996 35.6 648.029 35.2 648.196 34.8C648.363 34.4 648.696 34.0167 649.196 33.65C649.429 33.4833 649.713 33.3333 650.046 33.2C650.379 33.0667 650.729 32.9833 651.096 32.95C651.463 32.8833 651.813 32.9 652.146 33C652.479 33.0667 652.746 33.25 652.946 33.55C653.179 33.8833 653.179 34.2833 652.946 34.75C652.746 35.1833 652.246 35.7667 651.446 36.5ZM649.696 47.15C650.263 46.7833 650.746 46.2833 651.146 45.65C651.579 45.05 651.846 44.4333 651.946 43.8C650.646 44.3333 649.279 44.7667 647.846 45.1C646.246 45.5333 645.296 45.9833 644.996 46.45C644.696 46.9167 644.779 47.3 645.246 47.6C645.679 47.8667 646.346 48 647.246 48C648.113 48 648.929 47.7167 649.696 47.15ZM681.105 35.9C681.172 36.0333 681.222 36.1167 681.255 36.15C681.522 35.7833 681.705 35.45 681.805 35.15C681.872 34.9833 682.055 34.8667 682.355 34.8C682.688 34.7 683.038 34.6667 683.405 34.7C683.772 34.7 684.088 34.7833 684.355 34.95C684.622 35.0833 684.738 35.3167 684.705 35.65C684.638 36.45 684.405 37.4833 684.005 38.75C683.638 39.9833 683.155 41.3833 682.555 42.95C683.155 42.6167 683.722 42.3167 684.255 42.05C684.788 41.7833 685.288 41.5167 685.755 41.25C687.422 40.3167 688.755 39.4833 689.755 38.75C690.788 37.9833 691.688 37.2167 692.455 36.45C692.622 36.2833 692.805 36.2167 693.005 36.25C693.205 36.2833 693.388 36.3833 693.555 36.55C693.955 36.9167 693.972 37.2833 693.605 37.65C692.805 38.4167 691.872 39.2 690.805 40C689.772 40.7667 688.372 41.65 686.605 42.65C685.938 43.0167 685.188 43.4333 684.355 43.9C683.522 44.3333 682.622 44.7833 681.655 45.25C680.922 46.95 680.088 48.7333 679.155 50.6C678.255 52.4667 677.272 54.3 676.205 56.1C675.172 57.9333 674.072 59.6667 672.905 61.3C671.705 62.9667 670.488 64.4167 669.255 65.65C667.988 66.8833 666.705 67.7333 665.405 68.2C664.072 68.6667 662.838 68.8333 661.705 68.7C660.538 68.5667 659.522 68.1667 658.655 67.5C657.755 66.8333 657.122 65.9667 656.755 64.9C656.388 63.8667 656.338 62.6667 656.605 61.3C656.872 59.9333 657.555 58.5 658.655 57C659.755 55.5333 661.105 54.2333 662.705 53.1C664.272 51.9667 665.972 50.9333 667.805 50C669.605 49.0333 671.455 48.15 673.355 47.35C675.222 46.5167 676.988 45.7 678.655 44.9C679.555 42.7333 680.288 40.7833 680.855 39.05C680.455 39.45 679.972 39.85 679.405 40.25C678.272 41.05 677.222 41.5167 676.255 41.65C675.322 41.75 674.588 41.6167 674.055 41.25C673.522 40.85 673.272 40.25 673.305 39.45C673.338 38.65 673.788 37.75 674.655 36.75C675.088 36.25 675.622 35.7833 676.255 35.35C676.888 34.9167 677.555 34.6667 678.255 34.6C678.788 34.5333 679.288 34.6 679.755 34.8C680.255 35 680.705 35.3667 681.105 35.9ZM666.705 64.45C667.805 63.35 668.872 62.1 669.905 60.7C670.905 59.3333 671.872 57.8833 672.805 56.35C673.738 54.85 674.605 53.3167 675.405 51.75C676.205 50.1833 676.938 48.6667 677.605 47.2C676.105 47.9333 674.505 48.6833 672.805 49.45C671.072 50.1833 669.388 50.9833 667.755 51.85C666.088 52.75 664.555 53.7333 663.155 54.8C661.722 55.9 660.538 57.15 659.605 58.55C658.505 60.2167 657.972 61.7333 658.005 63.1C658.038 64.5 658.455 65.55 659.255 66.25C660.055 66.95 661.122 67.2 662.455 67C663.788 66.8 665.205 65.95 666.705 64.45ZM676.955 38.25C676.488 38.9167 676.238 39.3667 676.205 39.6C676.172 39.8333 676.255 39.95 676.455 39.95C676.655 39.9167 676.938 39.8 677.305 39.6C677.672 39.4 678.038 39.1833 678.405 38.95C679.205 38.35 679.888 37.75 680.455 37.15C680.422 37.0833 680.322 36.9667 680.155 36.8C680.022 36.6333 679.805 36.55 679.505 36.55C679.205 36.5167 678.838 36.6167 678.405 36.85C678.005 37.05 677.522 37.5167 676.955 38.25ZM697.536 34.95C697.269 35.0833 697.002 35.25 696.736 35.45C696.469 35.65 696.202 35.9333 695.936 36.3C696.769 36.1333 697.369 35.9667 697.736 35.8C698.269 35.6 698.619 35.4167 698.786 35.25C698.952 35.0833 699.002 34.95 698.936 34.85C698.869 34.75 698.702 34.7 698.436 34.7C698.169 34.7 697.869 34.7833 697.536 34.95ZM696.736 41C697.469 40.9 698.252 40.7167 699.086 40.45C699.952 40.1833 700.802 39.85 701.636 39.45C702.502 39.05 703.302 38.6 704.036 38.1C704.802 37.5667 705.469 37.0167 706.036 36.45C706.202 36.2833 706.386 36.2 706.586 36.2C706.819 36.1667 707.019 36.2333 707.186 36.4C707.552 36.8 707.552 37.1833 707.186 37.55C706.586 38.1833 705.852 38.7833 704.986 39.35C704.152 39.9167 703.269 40.4333 702.336 40.9C701.436 41.3333 700.502 41.7 699.536 42C698.602 42.3 697.719 42.5 696.886 42.6C696.486 42.6667 696.002 42.7167 695.436 42.75C694.902 42.75 694.369 42.7167 693.836 42.65C693.302 42.5833 692.819 42.45 692.386 42.25C691.919 42.0167 691.569 41.6833 691.336 41.25C691.136 40.8833 691.052 40.5 691.086 40.1C691.086 39.7 691.152 39.3 691.286 38.9C691.386 38.4667 691.536 38.0667 691.736 37.7C691.902 37.3 692.086 36.95 692.286 36.65C692.819 35.8833 693.452 35.1833 694.186 34.55C694.919 33.8833 695.752 33.4167 696.686 33.15C697.619 32.9167 698.419 32.9167 699.086 33.15C699.752 33.3833 700.202 33.7333 700.436 34.2C700.669 34.6667 700.636 35.2 700.336 35.8C700.069 36.3667 699.436 36.85 698.436 37.25C697.969 37.4167 697.419 37.5667 696.786 37.7C696.186 37.8333 695.486 37.9333 694.686 38C694.086 39.0333 693.869 39.8 694.036 40.3C694.069 40.5333 694.202 40.7 694.436 40.8C694.669 40.9 694.919 40.9833 695.186 41.05C695.486 41.0833 695.769 41.1 696.036 41.1C696.336 41.0667 696.569 41.0333 696.736 41ZM707.809 24.5C707.275 24.5 707.009 24.2333 707.009 23.7C706.975 23.5 707.025 23.3167 707.159 23.15C707.325 22.9833 707.525 22.9 707.759 22.9L713.809 22.75C714.409 21.8167 714.959 20.95 715.459 20.15C715.959 19.35 716.392 18.6667 716.759 18.1C717.125 17.5 717.425 17.05 717.659 16.75C717.892 16.4167 718.009 16.25 718.009 16.25C718.109 16.05 718.359 15.9167 718.759 15.85C719.159 15.7833 719.542 15.7833 719.909 15.85C720.275 15.8833 720.559 16.0167 720.759 16.25C720.959 16.45 720.925 16.7333 720.659 17.1C720.659 17.1333 720.309 17.6667 719.609 18.7C718.942 19.7 718.092 21.0333 717.059 22.7L721.509 22.55C722.042 22.55 722.309 22.8167 722.309 23.35C722.342 23.5833 722.275 23.7833 722.109 23.95C721.975 24.0833 721.792 24.15 721.559 24.15L716.059 24.3C715.325 25.5 714.559 26.7833 713.759 28.15C712.959 29.4833 712.175 30.85 711.409 32.25C710.642 33.6167 709.909 34.9833 709.209 36.35C708.542 37.7167 707.959 39 707.459 40.2C706.692 41.9667 706.259 43.3 706.159 44.2C706.092 45.0667 706.275 45.6 706.709 45.8C707.175 45.9667 707.859 45.8667 708.759 45.5C709.659 45.1 710.742 44.5333 712.009 43.8C712.909 43.2667 713.809 42.6833 714.709 42.05C715.609 41.3833 716.442 40.7333 717.209 40.1C717.975 39.4333 718.659 38.7833 719.259 38.15C719.892 37.5167 720.375 36.95 720.709 36.45C720.809 36.2833 720.959 36.1833 721.159 36.15C721.392 36.0833 721.609 36.1167 721.809 36.25C721.975 36.3833 722.075 36.5667 722.109 36.8C722.175 37 722.142 37.1833 722.009 37.35C721.642 37.8833 721.142 38.4833 720.509 39.15C719.909 39.7833 719.209 40.4333 718.409 41.1C717.642 41.7667 716.792 42.4333 715.859 43.1C714.959 43.7667 714.042 44.3833 713.109 44.95C711.542 45.9167 710.025 46.6333 708.559 47.1C707.092 47.5667 705.909 47.6667 705.009 47.4C704.075 47.1 703.525 46.35 703.359 45.15C703.159 43.9167 703.575 42.0667 704.609 39.6C705.109 38.4667 705.675 37.25 706.309 35.95C706.942 34.65 707.625 33.35 708.359 32.05C709.092 30.7167 709.842 29.4 710.609 28.1C711.375 26.8 712.109 25.55 712.809 24.35L707.809 24.5ZM741.105 37.35C740.905 37.35 740.722 37.2333 740.555 37C740.189 36.4667 739.822 36.2167 739.455 36.25C739.089 36.25 738.739 36.4 738.405 36.7C738.072 36.9667 737.772 37.3333 737.505 37.8C737.272 38.2333 737.089 38.6167 736.955 38.95C736.822 39.35 736.789 39.6333 736.855 39.8C736.922 39.9667 737.039 40.0667 737.205 40.1C737.372 40.1 737.589 40.05 737.855 39.95C738.122 39.85 738.389 39.7167 738.655 39.55C738.955 39.3833 739.239 39.2 739.505 39C739.772 38.7667 739.972 38.6 740.105 38.5C740.472 38.1333 740.805 37.75 741.105 37.35ZM735.005 36.95C735.305 36.45 735.672 36 736.105 35.6C736.572 35.1667 737.055 34.8333 737.555 34.6C738.089 34.3667 738.639 34.2667 739.205 34.3C739.772 34.3333 740.322 34.5667 740.855 35C741.022 35.1667 741.172 35.3333 741.305 35.5C741.472 35.6333 741.639 35.8167 741.805 36.05C741.805 36.0167 741.805 36 741.805 36C741.839 35.9667 741.855 35.9333 741.855 35.9C741.855 35.6 742.005 35.3667 742.305 35.2C742.605 35.0333 742.939 34.95 743.305 34.95C743.672 34.95 744.005 35.05 744.305 35.25C744.605 35.45 744.755 35.7833 744.755 36.25C744.555 37.2833 744.572 38.0833 744.805 38.65C744.939 39.0167 745.172 39.2333 745.505 39.3C745.839 39.3667 746.222 39.35 746.655 39.25C747.089 39.1167 747.539 38.9167 748.005 38.65C748.505 38.3833 748.972 38.1167 749.405 37.85C749.839 37.55 750.222 37.2667 750.555 37C750.889 36.7333 751.122 36.55 751.255 36.45C751.422 36.3167 751.605 36.2667 751.805 36.3C752.039 36.3 752.222 36.3833 752.355 36.55C752.522 36.7167 752.589 36.9167 752.555 37.15C752.522 37.35 752.422 37.5333 752.255 37.7C751.389 38.4333 750.505 39.0667 749.605 39.6C748.705 40.1333 747.872 40.5 747.105 40.7C746.772 40.8 746.405 40.9 746.005 41C745.605 41.0667 745.189 41.1 744.755 41.1C744.355 41.0667 743.972 41 743.605 40.9C743.239 40.7667 742.905 40.55 742.605 40.25C742.272 39.8833 742.039 39.4333 741.905 38.9L741.155 39.65C740.822 39.95 740.472 40.2333 740.105 40.5C739.739 40.7667 739.339 41 738.905 41.2C737.739 41.8 736.772 42.0667 736.005 42C735.272 41.9333 734.755 41.6667 734.455 41.2C734.122 40.7333 734.005 40.1167 734.105 39.35C734.205 38.55 734.505 37.75 735.005 36.95ZM751.123 36.65C751.457 36.0833 751.907 35.5 752.473 34.9C753.073 34.3 753.707 33.8167 754.373 33.45C754.84 33.1833 755.34 33 755.873 32.9C756.407 32.8 756.907 32.8 757.373 32.9C757.873 33 758.29 33.2167 758.623 33.55C758.99 33.8833 759.24 34.35 759.373 34.95C759.44 35.1833 759.407 35.3833 759.273 35.55C759.14 35.7167 758.973 35.8333 758.773 35.9C758.54 35.9667 758.34 35.9333 758.173 35.8C758.007 35.6667 757.89 35.5 757.823 35.3C757.723 34.7667 757.523 34.5333 757.223 34.6C756.923 34.6333 756.59 34.7667 756.223 35C755.757 35.3 755.307 35.6833 754.873 36.15C754.473 36.5833 754.14 37.0167 753.873 37.45C753.007 38.8833 752.69 39.9 752.923 40.5C753.19 41.0667 754.157 41.2333 755.823 41C756.657 40.8667 757.54 40.65 758.473 40.35C759.407 40.05 760.323 39.7 761.223 39.3C762.123 38.8667 762.973 38.4167 763.773 37.95C764.573 37.45 765.24 36.95 765.773 36.45C765.94 36.2833 766.123 36.2167 766.323 36.25C766.557 36.25 766.757 36.3333 766.923 36.5C767.257 36.9 767.24 37.2833 766.873 37.65C766.273 38.1833 765.54 38.7167 764.673 39.25C763.807 39.7833 762.873 40.2833 761.873 40.75C760.907 41.1833 759.907 41.5667 758.873 41.9C757.873 42.2 756.94 42.4167 756.073 42.55C754.907 42.7167 753.84 42.75 752.873 42.65C751.94 42.55 751.223 42.2667 750.723 41.8C750.19 41.3333 749.94 40.6833 749.973 39.85C749.973 39.0167 750.357 37.95 751.123 36.65ZM773.725 33.35C773.892 33.45 773.992 33.6 774.025 33.8C774.092 34 774.092 34.1833 774.025 34.35C774.159 34.2167 774.292 34.1 774.425 34C774.559 33.8667 774.709 33.7167 774.875 33.55C775.075 33.2833 775.375 33.1167 775.775 33.05C776.209 32.9833 776.592 33.0167 776.925 33.15C777.292 33.25 777.542 33.4333 777.675 33.7C777.809 33.9333 777.692 34.25 777.325 34.65C776.359 35.6833 775.309 36.8833 774.175 38.25C773.042 39.5833 771.892 41.0333 770.725 42.6C771.625 42.5333 772.575 42.4 773.575 42.2C774.609 41.9667 775.675 41.6167 776.775 41.15C777.875 40.6833 778.992 40.0833 780.125 39.35C781.292 38.5833 782.475 37.6167 783.675 36.45C784.042 36.0833 784.425 36.1 784.825 36.5C785.159 36.8667 785.142 37.2333 784.775 37.6C783.342 39 781.909 40.1333 780.475 41C779.042 41.8333 777.659 42.5 776.325 43C775.025 43.4667 773.792 43.7833 772.625 43.95C771.459 44.1167 770.425 44.2167 769.525 44.25C769.425 44.4167 769.309 44.5667 769.175 44.7C769.075 44.8333 768.975 44.9833 768.875 45.15C769.309 46.25 769.625 47.35 769.825 48.45C770.025 49.5167 770.159 50.5833 770.225 51.65C770.325 53.25 770.259 54.7833 770.025 56.25C769.825 57.7167 769.492 59.0833 769.025 60.35C768.292 62.4167 767.442 64.0667 766.475 65.3C765.542 66.5333 764.592 67.3833 763.625 67.85C762.659 68.35 761.742 68.4833 760.875 68.25C760.009 68.05 759.325 67.5333 758.825 66.7C758.292 65.8667 757.992 64.7333 757.925 63.3C757.859 61.8667 758.125 60.2 758.725 58.3C759.292 56.4333 760.092 54.5167 761.125 52.55C762.159 50.5833 763.309 48.6333 764.575 46.7C764.909 46.2 765.242 45.7 765.575 45.2C765.909 44.7 766.242 44.2167 766.575 43.75C766.509 43.5833 766.509 43.4 766.575 43.2C766.642 42.9667 766.775 42.8167 766.975 42.75C767.042 42.6833 767.175 42.65 767.375 42.65C768.175 41.55 768.975 40.5 769.775 39.5C768.909 39.9333 768.125 40.1333 767.425 40.1C766.759 40.0667 766.242 39.85 765.875 39.45C765.542 39.05 765.392 38.4833 765.425 37.75C765.459 37.0167 765.775 36.1667 766.375 35.2C766.709 34.6667 767.125 34.1833 767.625 33.75C768.125 33.2833 768.692 32.95 769.325 32.75C769.959 32.5167 770.642 32.4333 771.375 32.5C772.142 32.5667 772.925 32.85 773.725 33.35ZM767.525 59.8C767.959 58.6333 768.275 57.3667 768.475 56C768.675 54.6667 768.742 53.25 768.675 51.75C768.575 50.15 768.275 48.5 767.775 46.8C767.709 46.9333 767.625 47.0667 767.525 47.2C767.425 47.3 767.342 47.4167 767.275 47.55C766.042 49.45 764.925 51.35 763.925 53.25C762.925 55.15 762.142 57 761.575 58.8C760.775 61.3 760.475 63.2 760.675 64.5C760.875 65.8333 761.342 66.55 762.075 66.65C762.809 66.75 763.692 66.2333 764.725 65.1C765.759 63.9667 766.692 62.2 767.525 59.8ZM773.575 34.75C773.342 34.8833 773.125 34.8667 772.925 34.7C772.492 34.4667 772.075 34.35 771.675 34.35C771.275 34.3167 770.892 34.3833 770.525 34.55C770.192 34.7167 769.892 34.95 769.625 35.25C769.359 35.5167 769.125 35.8167 768.925 36.15C768.459 36.9833 768.225 37.5333 768.225 37.8C768.259 38.0667 768.425 38.1667 768.725 38.1C769.025 38.0333 769.425 37.85 769.925 37.55C770.425 37.25 770.925 36.9167 771.425 36.55C771.925 36.15 772.375 35.7833 772.775 35.45C773.175 35.1167 773.442 34.8833 773.575 34.75ZM785.545 33.2C785.745 33 786.045 32.8667 786.445 32.8C786.879 32.7 787.262 32.6833 787.595 32.75C787.962 32.8167 788.212 32.9833 788.345 33.25C788.512 33.4833 788.412 33.8333 788.045 34.3C787.779 34.5667 787.429 35.0833 786.995 35.85C786.562 36.6167 786.195 37.4167 785.895 38.25C785.695 38.85 785.562 39.3667 785.495 39.8C785.429 40.2 785.445 40.4833 785.545 40.65C785.679 40.7833 785.895 40.7667 786.195 40.6C786.495 40.4333 786.912 40.0333 787.445 39.4C787.945 38.8 788.412 38.1167 788.845 37.35C789.279 36.5833 789.629 35.7667 789.895 34.9C789.962 34.7333 790.162 34.6 790.495 34.5C790.829 34.3667 791.179 34.3167 791.545 34.35C791.912 34.35 792.229 34.4167 792.495 34.55C792.762 34.6833 792.862 34.9167 792.795 35.25L792.745 35.4V35.45C792.479 36.55 792.562 37.3 792.995 37.7C793.429 38.1 793.995 38.2833 794.695 38.25C795.395 38.1833 796.129 37.9833 796.895 37.65C797.662 37.2833 798.262 36.8833 798.695 36.45C798.862 36.2833 799.045 36.2167 799.245 36.25C799.479 36.25 799.679 36.3333 799.845 36.5C800.012 36.6667 800.079 36.85 800.045 37.05C800.045 37.25 799.962 37.4333 799.795 37.6C799.295 38.1 798.595 38.5667 797.695 39C796.829 39.4 795.912 39.6833 794.945 39.85C794.012 40.0167 793.095 39.9833 792.195 39.75C791.329 39.5167 790.662 39 790.195 38.2C789.929 38.6 789.662 38.9833 789.395 39.35C789.162 39.7167 788.912 40.0667 788.645 40.4C787.845 41.3667 787.029 42.05 786.195 42.45C785.362 42.8167 784.645 42.8833 784.045 42.65C783.445 42.4167 783.045 41.9 782.845 41.1C782.612 40.3 782.729 39.2 783.195 37.8C783.495 36.8333 783.879 35.9167 784.345 35.05C784.845 34.15 785.245 33.5333 785.545 33.2ZM804.436 37.35C804.236 37.35 804.052 37.2333 803.886 37C803.519 36.4667 803.152 36.2167 802.786 36.25C802.419 36.25 802.069 36.4 801.736 36.7C801.402 36.9667 801.102 37.3333 800.836 37.8C800.602 38.2333 800.419 38.6167 800.286 38.95C800.152 39.35 800.119 39.6333 800.186 39.8C800.252 39.9667 800.369 40.0667 800.536 40.1C800.702 40.1 800.919 40.05 801.186 39.95C801.452 39.85 801.719 39.7167 801.986 39.55C802.286 39.3833 802.569 39.2 802.836 39C803.102 38.7667 803.302 38.6 803.436 38.5C803.802 38.1333 804.136 37.75 804.436 37.35ZM798.336 36.95C798.636 36.45 799.002 36 799.436 35.6C799.902 35.1667 800.386 34.8333 800.886 34.6C801.419 34.3667 801.969 34.2667 802.536 34.3C803.102 34.3333 803.652 34.5667 804.186 35C804.352 35.1667 804.502 35.3333 804.636 35.5C804.802 35.6333 804.969 35.8167 805.136 36.05C805.136 36.0167 805.136 36 805.136 36C805.169 35.9667 805.186 35.9333 805.186 35.9C805.186 35.6 805.336 35.3667 805.636 35.2C805.936 35.0333 806.269 34.95 806.636 34.95C807.002 34.95 807.336 35.05 807.636 35.25C807.936 35.45 808.086 35.7833 808.086 36.25C807.886 37.2833 807.902 38.0833 808.136 38.65C808.269 39.0167 808.502 39.2333 808.836 39.3C809.169 39.3667 809.552 39.35 809.986 39.25C810.419 39.1167 810.869 38.9167 811.336 38.65C811.836 38.3833 812.302 38.1167 812.736 37.85C813.169 37.55 813.552 37.2667 813.886 37C814.219 36.7333 814.452 36.55 814.586 36.45C814.752 36.3167 814.936 36.2667 815.136 36.3C815.369 36.3 815.552 36.3833 815.686 36.55C815.852 36.7167 815.919 36.9167 815.886 37.15C815.852 37.35 815.752 37.5333 815.586 37.7C814.719 38.4333 813.836 39.0667 812.936 39.6C812.036 40.1333 811.202 40.5 810.436 40.7C810.102 40.8 809.736 40.9 809.336 41C808.936 41.0667 808.519 41.1 808.086 41.1C807.686 41.0667 807.302 41 806.936 40.9C806.569 40.7667 806.236 40.55 805.936 40.25C805.602 39.8833 805.369 39.4333 805.236 38.9L804.486 39.65C804.152 39.95 803.802 40.2333 803.436 40.5C803.069 40.7667 802.669 41 802.236 41.2C801.069 41.8 800.102 42.0667 799.336 42C798.602 41.9333 798.086 41.6667 797.786 41.2C797.452 40.7333 797.336 40.1167 797.436 39.35C797.536 38.55 797.836 37.75 798.336 36.95ZM822.054 29.85L820.854 30.75C820.62 30.9167 820.354 31.0333 820.054 31.1C819.787 31.1667 819.554 31.1833 819.354 31.15C819.154 31.0833 819.02 30.95 818.954 30.75C818.92 30.55 819.02 30.25 819.254 29.85L819.654 29.1C819.887 28.7 820.204 28.4667 820.604 28.4C821.037 28.3 821.42 28.3167 821.754 28.45C822.12 28.5833 822.354 28.7833 822.454 29.05C822.587 29.3167 822.454 29.5833 822.054 29.85ZM819.554 33.75C818.82 34.7167 818.054 35.8333 817.254 37.1C816.487 38.3333 815.904 39.5 815.504 40.6C815.304 41.1667 815.22 41.5833 815.254 41.85C815.32 42.0833 815.47 42.2167 815.704 42.25C815.937 42.2833 816.22 42.2333 816.554 42.1C816.887 41.9333 817.254 41.75 817.654 41.55C818.354 41.15 819.104 40.6667 819.904 40.1C820.704 39.5333 821.454 38.9833 822.154 38.45C822.854 37.9167 823.437 37.45 823.904 37.05C824.37 36.65 824.604 36.45 824.604 36.45C824.77 36.3167 824.954 36.2667 825.154 36.3C825.354 36.3 825.537 36.3833 825.704 36.55C825.87 36.7167 825.937 36.9167 825.904 37.15C825.87 37.35 825.77 37.5333 825.604 37.7C824.87 38.3 824.104 38.9 823.304 39.5C822.637 40 821.87 40.5333 821.004 41.1C820.17 41.6667 819.337 42.1667 818.504 42.6C817.837 42.9333 817.104 43.2167 816.304 43.45C815.504 43.65 814.804 43.7 814.204 43.6C813.604 43.4667 813.17 43.1333 812.904 42.6C812.637 42.0333 812.72 41.15 813.154 39.95C813.42 39.2167 813.67 38.55 813.904 37.95C814.137 37.3167 814.387 36.7333 814.654 36.2C814.954 35.6333 815.27 35.0833 815.604 34.55C815.97 34.0167 816.404 33.4333 816.904 32.8C817.037 32.5667 817.304 32.4167 817.704 32.35C818.137 32.25 818.537 32.2333 818.904 32.3C819.27 32.3667 819.537 32.5333 819.704 32.8C819.904 33.0333 819.854 33.35 819.554 33.75ZM825.713 34.85C825.913 34.5833 826.197 34.4167 826.563 34.35C826.963 34.25 827.33 34.25 827.663 34.35C827.997 34.4167 828.23 34.5833 828.363 34.85C828.497 35.0833 828.43 35.4 828.163 35.8C827.497 36.7333 826.763 37.8167 825.963 39.05C825.197 40.2833 824.53 41.4667 823.963 42.6C823.597 43.4 823.313 44.0667 823.113 44.6C823.413 44.3333 823.747 44.0167 824.113 43.65C824.48 43.25 824.88 42.8167 825.313 42.35C825.88 41.75 826.48 41.1167 827.113 40.45C827.78 39.7833 828.447 39.15 829.113 38.55C829.813 37.9167 830.497 37.3333 831.163 36.8C831.83 36.2667 832.463 35.8167 833.063 35.45C833.097 35.4167 833.13 35.4 833.163 35.4C833.197 35.3667 833.23 35.3333 833.263 35.3C833.797 35.0333 834.28 34.85 834.713 34.75C835.48 34.5833 836.047 34.7167 836.413 35.15C836.78 35.5833 837.047 36.1833 837.213 36.95C837.28 37.2167 837.33 37.5 837.363 37.8C837.397 38.1 837.43 38.4 837.463 38.7C837.53 39.1333 837.58 39.55 837.613 39.95C837.68 40.35 837.763 40.7 837.863 41C838.03 41.5667 838.28 41.9167 838.613 42.05C838.947 42.1833 839.313 42.2 839.713 42.1C840.113 41.9667 840.513 41.7667 840.913 41.5C841.313 41.2 841.663 40.9333 841.963 40.7C842.53 40.2333 843.197 39.6667 843.963 39C844.73 38.3 845.597 37.45 846.563 36.45C846.73 36.2833 846.913 36.2 847.113 36.2C847.347 36.2 847.547 36.2833 847.713 36.45C847.88 36.6167 847.963 36.8167 847.963 37.05C847.963 37.25 847.88 37.4333 847.713 37.6C846.78 38.5667 845.913 39.4 845.113 40.1C844.347 40.7667 843.63 41.35 842.963 41.85C842.463 42.2167 841.863 42.6 841.163 43C840.497 43.4 839.813 43.7 839.113 43.9C838.447 44.0667 837.797 44.0667 837.163 43.9C836.53 43.7333 836.013 43.2667 835.613 42.5C835.38 42.0333 835.197 41.55 835.063 41.05C834.963 40.5167 834.863 39.9667 834.763 39.4C834.697 39.1333 834.647 38.8333 834.613 38.5C834.58 38.1333 834.513 37.8167 834.413 37.55C834.313 37.2833 834.163 37.1 833.963 37C833.797 36.9 833.547 36.9667 833.213 37.2C832.713 37.5667 832.163 38 831.563 38.5C830.997 38.9667 830.413 39.4833 829.813 40.05C829.247 40.6167 828.663 41.2 828.063 41.8C827.497 42.3667 826.963 42.9167 826.463 43.45C825.997 43.9167 825.563 44.3667 825.163 44.8C824.763 45.2 824.397 45.55 824.063 45.85V45.9C823.663 46.3 823.23 46.6167 822.763 46.85C822.297 47.0833 821.863 47.1667 821.463 47.1C821.23 47.1 821.03 47.0667 820.863 47C820.697 46.9 820.563 46.8 820.463 46.7C820.33 46.5667 820.247 46.45 820.213 46.35C819.98 45.8833 819.98 45.2833 820.213 44.55C820.413 43.7833 820.747 42.9333 821.213 42C821.813 40.8333 822.547 39.6 823.413 38.3C824.247 36.9667 825.013 35.8167 825.713 34.85ZM848.336 24.5C847.803 24.5 847.536 24.2333 847.536 23.7C847.503 23.5 847.553 23.3167 847.686 23.15C847.853 22.9833 848.053 22.9 848.286 22.9L854.336 22.75C854.936 21.8167 855.486 20.95 855.986 20.15C856.486 19.35 856.919 18.6667 857.286 18.1C857.653 17.5 857.953 17.05 858.186 16.75C858.419 16.4167 858.536 16.25 858.536 16.25C858.636 16.05 858.886 15.9167 859.286 15.85C859.686 15.7833 860.069 15.7833 860.436 15.85C860.803 15.8833 861.086 16.0167 861.286 16.25C861.486 16.45 861.453 16.7333 861.186 17.1C861.186 17.1333 860.836 17.6667 860.136 18.7C859.469 19.7 858.619 21.0333 857.586 22.7L862.036 22.55C862.569 22.55 862.836 22.8167 862.836 23.35C862.869 23.5833 862.803 23.7833 862.636 23.95C862.503 24.0833 862.319 24.15 862.086 24.15L856.586 24.3C855.853 25.5 855.086 26.7833 854.286 28.15C853.486 29.4833 852.703 30.85 851.936 32.25C851.169 33.6167 850.436 34.9833 849.736 36.35C849.069 37.7167 848.486 39 847.986 40.2C847.219 41.9667 846.786 43.3 846.686 44.2C846.619 45.0667 846.803 45.6 847.236 45.8C847.703 45.9667 848.386 45.8667 849.286 45.5C850.186 45.1 851.269 44.5333 852.536 43.8C853.436 43.2667 854.336 42.6833 855.236 42.05C856.136 41.3833 856.969 40.7333 857.736 40.1C858.503 39.4333 859.186 38.7833 859.786 38.15C860.419 37.5167 860.903 36.95 861.236 36.45C861.336 36.2833 861.486 36.1833 861.686 36.15C861.919 36.0833 862.136 36.1167 862.336 36.25C862.503 36.3833 862.603 36.5667 862.636 36.8C862.703 37 862.669 37.1833 862.536 37.35C862.169 37.8833 861.669 38.4833 861.036 39.15C860.436 39.7833 859.736 40.4333 858.936 41.1C858.169 41.7667 857.319 42.4333 856.386 43.1C855.486 43.7667 854.569 44.3833 853.636 44.95C852.069 45.9167 850.553 46.6333 849.086 47.1C847.619 47.5667 846.436 47.6667 845.536 47.4C844.603 47.1 844.053 46.35 843.886 45.15C843.686 43.9167 844.103 42.0667 845.136 39.6C845.636 38.4667 846.203 37.25 846.836 35.95C847.469 34.65 848.153 33.35 848.886 32.05C849.619 30.7167 850.369 29.4 851.136 28.1C851.903 26.8 852.636 25.55 853.336 24.35L848.336 24.5ZM866.334 34.95C866.068 35.0833 865.801 35.25 865.534 35.45C865.268 35.65 865.001 35.9333 864.734 36.3C865.568 36.1333 866.168 35.9667 866.534 35.8C867.068 35.6 867.418 35.4167 867.584 35.25C867.751 35.0833 867.801 34.95 867.734 34.85C867.668 34.75 867.501 34.7 867.234 34.7C866.968 34.7 866.668 34.7833 866.334 34.95ZM865.534 41C866.268 40.9 867.051 40.7167 867.884 40.45C868.751 40.1833 869.601 39.85 870.434 39.45C871.301 39.05 872.101 38.6 872.834 38.1C873.601 37.5667 874.268 37.0167 874.834 36.45C875.001 36.2833 875.184 36.2 875.384 36.2C875.618 36.1667 875.818 36.2333 875.984 36.4C876.351 36.8 876.351 37.1833 875.984 37.55C875.384 38.1833 874.651 38.7833 873.784 39.35C872.951 39.9167 872.068 40.4333 871.134 40.9C870.234 41.3333 869.301 41.7 868.334 42C867.401 42.3 866.518 42.5 865.684 42.6C865.284 42.6667 864.801 42.7167 864.234 42.75C863.701 42.75 863.168 42.7167 862.634 42.65C862.101 42.5833 861.618 42.45 861.184 42.25C860.718 42.0167 860.368 41.6833 860.134 41.25C859.934 40.8833 859.851 40.5 859.884 40.1C859.884 39.7 859.951 39.3 860.084 38.9C860.184 38.4667 860.334 38.0667 860.534 37.7C860.701 37.3 860.884 36.95 861.084 36.65C861.618 35.8833 862.251 35.1833 862.984 34.55C863.718 33.8833 864.551 33.4167 865.484 33.15C866.418 32.9167 867.218 32.9167 867.884 33.15C868.551 33.3833 869.001 33.7333 869.234 34.2C869.468 34.6667 869.434 35.2 869.134 35.8C868.868 36.3667 868.234 36.85 867.234 37.25C866.768 37.4167 866.218 37.5667 865.584 37.7C864.984 37.8333 864.284 37.9333 863.484 38C862.884 39.0333 862.668 39.8 862.834 40.3C862.868 40.5333 863.001 40.7 863.234 40.8C863.468 40.9 863.718 40.9833 863.984 41.05C864.284 41.0833 864.568 41.1 864.834 41.1C865.134 41.0667 865.368 41.0333 865.534 41ZM897.207 17.4C896.807 18.2667 896.291 19.2833 895.657 20.45C895.057 21.5833 894.407 22.8167 893.707 24.15C893.141 25.2167 892.491 26.4167 891.757 27.75C891.024 29.0833 890.291 30.4333 889.557 31.8C888.824 33.1667 888.141 34.5167 887.507 35.85C886.874 37.15 886.374 38.3 886.007 39.3C885.674 40.2667 885.524 41.0333 885.557 41.6C885.624 42.1333 885.974 42.35 886.607 42.25C887.241 42.15 888.207 41.65 889.507 40.75C890.841 39.8167 892.591 38.3833 894.757 36.45C894.924 36.3167 895.107 36.2667 895.307 36.3C895.507 36.3 895.691 36.3833 895.857 36.55C896.024 36.7167 896.091 36.9 896.057 37.1C896.057 37.3 895.974 37.4833 895.807 37.65C895.674 37.75 895.307 38.0667 894.707 38.6C894.141 39.1 893.441 39.6833 892.607 40.35C891.774 41.0167 890.874 41.6833 889.907 42.35C888.941 42.9833 888.007 43.5 887.107 43.9C886.241 44.2667 885.474 44.45 884.807 44.45C884.141 44.4167 883.674 44.05 883.407 43.35C883.141 42.65 883.207 41.5667 883.607 40.1C884.041 38.6 884.657 36.9 885.457 35C884.091 36.9 882.674 38.5333 881.207 39.9C879.774 41.2667 878.257 42.1667 876.657 42.6C876.091 42.7667 875.607 42.7833 875.207 42.65C874.807 42.5167 874.474 42.2833 874.207 41.95C873.674 41.25 873.541 40.3167 873.807 39.15C874.007 38.0167 874.457 36.9667 875.157 36C875.824 35 876.674 34.2167 877.707 33.65C878.774 33.05 879.957 32.9667 881.257 33.4C881.424 33.4667 881.574 33.5333 881.707 33.6C881.874 33.6333 882.041 33.7 882.207 33.8C882.441 33.9333 882.757 34.1333 883.157 34.4C883.357 34.5667 883.457 34.7833 883.457 35.05C884.724 33.35 885.957 31.4667 887.157 29.4C888.391 27.3333 889.591 25.25 890.757 23.15C892.024 20.7833 893.257 18.6167 894.457 16.65C894.491 16.6167 894.674 16.5667 895.007 16.5C895.374 16.4 895.741 16.3667 896.107 16.4C896.507 16.4 896.824 16.4667 897.057 16.6C897.324 16.7333 897.374 17 897.207 17.4ZM882.907 35.8C882.641 35.8667 882.407 35.8167 882.207 35.65C881.574 35.15 880.957 34.9333 880.357 35C879.791 35.0667 879.207 35.35 878.607 35.85C878.007 36.3833 877.541 36.9667 877.207 37.6C876.907 38.0333 876.707 38.5 876.607 39C876.441 39.5 876.391 39.95 876.457 40.35C876.524 40.7167 876.724 40.8833 877.057 40.85C877.391 40.7833 877.774 40.6 878.207 40.3C878.674 40 879.157 39.6167 879.657 39.15C880.191 38.65 880.674 38.1833 881.107 37.75C881.574 37.2833 881.974 36.8667 882.307 36.5C882.641 36.1333 882.841 35.9 882.907 35.8Z" fill="#F1523C"/>
</svg>
