<svg width="320" height="160" viewBox="0 0 320 160" fill="none" xmlns="http://www.w3.org/2000/svg">
<path d="M24.9609 87.2734V111.297H30.9375C35.3906 111.297 39.2383 110.965 42.4805 110.301C45.0977 109.637 47.168 108.309 48.6914 106.316C50.2148 104.285 50.9766 101.863 50.9766 99.0508C50.9766 96.5117 50.2148 94.3047 48.6914 92.4297C47.207 90.5547 45.1758 89.2852 42.5977 88.6211C39.3164 87.7227 35.1953 87.2734 30.2344 87.2734H24.9609ZM24.9609 54.0508V71.5703H30.4688C36.9531 71.5703 41.9336 71.8242 45.4102 72.332C48.9258 72.8398 51.9531 73.7773 54.4922 75.1445C58.5547 77.293 61.7383 80.5547 64.043 84.9297C66.3867 89.2656 67.5586 94.0898 67.5586 99.4023C67.5586 104.441 66.5234 108.953 64.4531 112.938C62.3828 116.922 59.4531 120.086 55.6641 122.43C52.9297 124.148 49.707 125.34 45.9961 126.004C42.2852 126.668 37.1875 127 30.7031 127H8.49609V38.3477H61.9336V54.0508H24.9609ZM78.3398 149.207C78.3398 149.207 78.3398 119.637 78.3398 60.4961C78.3398 60.4961 83.2031 60.4961 92.9297 60.4961C92.9297 60.4961 92.9297 63.1133 92.9297 68.3477C98.2031 62.0977 105.488 58.9727 114.785 58.9727C121.113 58.9727 126.797 60.457 131.836 63.4258C136.875 66.3555 140.801 70.457 143.613 75.7305C146.465 81.0039 147.891 86.9414 147.891 93.543C147.891 100.184 146.465 106.18 143.613 111.531C140.762 116.844 136.797 121.023 131.719 124.07C126.68 127.078 120.996 128.582 114.668 128.582C110.605 128.582 106.953 127.957 103.711 126.707C100.469 125.457 97.3242 123.484 94.2773 120.789V149.207H78.3398ZM112.383 73.6211C106.992 73.6211 102.461 75.5742 98.7891 79.4805C95.1562 83.3477 93.3398 88.1914 93.3398 94.0117C93.3398 99.6758 95.2148 104.422 98.9648 108.25C102.715 112.039 107.344 113.934 112.852 113.934C118.203 113.934 122.695 112.02 126.328 108.191C130 104.324 131.836 99.5586 131.836 93.8945C131.836 88.0352 130 83.1914 126.328 79.3633C122.656 75.5352 118.008 73.6211 112.383 73.6211ZM203.379 60.4961C203.379 60.4961 208.77 60.4961 219.551 60.4961C219.551 60.4961 219.551 82.6641 219.551 127C219.551 127 214.277 127 203.73 127C203.73 127 203.73 112.352 203.73 83.0547C203.73 83.0547 193.809 97.7031 173.965 127C173.965 127 168.574 127 157.793 127C157.793 127 157.793 104.832 157.793 60.4961C157.793 60.4961 163.066 60.4961 173.613 60.4961C173.613 60.4961 173.613 75.1445 173.613 104.441C173.613 104.441 183.535 89.793 203.379 60.4961ZM264.844 38.3477C264.844 38.3477 270.156 38.3477 280.781 38.3477C280.781 38.3477 280.781 45.3398 280.781 59.3242C292.891 60.3398 301.719 63.7578 307.266 69.5781C312.812 75.3984 315.586 83.5039 315.586 93.8945C315.586 104.246 312.812 112.293 307.266 118.035C301.719 123.777 292.891 127.156 280.781 128.172V149.207H264.844C264.844 149.207 264.844 142.195 264.844 128.172C252.773 127.156 243.945 123.777 238.359 118.035C232.812 112.293 230.039 104.246 230.039 93.8945C230.039 83.543 232.812 75.457 238.359 69.6367C243.945 63.8164 252.773 60.3789 264.844 59.3242V38.3477ZM264.844 74.0898C258.32 74.9883 253.555 77.0781 250.547 80.3594C247.578 83.6016 246.094 88.1133 246.094 93.8945C246.094 99.6758 247.578 104.188 250.547 107.43C253.555 110.633 258.32 112.645 264.844 113.465V74.0898ZM280.781 113.465C287.344 112.645 292.09 110.633 295.02 107.43C297.988 104.188 299.473 99.6758 299.473 93.8945C299.473 88.1133 297.988 83.6016 295.02 80.3594C292.09 77.0781 287.344 74.9883 280.781 74.0898V113.465Z" fill="#1D1D1D"/>
<path d="M200.3 16.5C200.433 16.2667 200.683 16.1167 201.05 16.05C201.45 15.95 201.817 15.9333 202.15 16C202.517 16.0667 202.783 16.2167 202.95 16.45C203.15 16.6833 203.117 17 202.85 17.4C201.583 19.2 200.25 21.3167 198.85 23.75C197.483 26.15 196.167 28.6 194.9 31.1C194.333 32.2333 193.783 33.35 193.25 34.45C192.717 35.5167 192.217 36.5667 191.75 37.6C192.017 37.3333 192.283 37.0833 192.55 36.85C192.817 36.6167 193.083 36.4 193.35 36.2C193.817 35.8667 194.433 35.55 195.2 35.25C195.967 34.95 196.683 34.8 197.35 34.8C198.05 34.7667 198.617 34.95 199.05 35.35C199.517 35.75 199.683 36.4833 199.55 37.55C199.45 38.3167 199.1 39.1667 198.5 40.1C199.7 39.7667 200.883 39.3333 202.05 38.8C203.217 38.2667 204.283 37.4833 205.25 36.45C205.417 36.2833 205.6 36.2 205.8 36.2C206 36.2 206.183 36.2833 206.35 36.45C206.75 36.8167 206.767 37.1833 206.4 37.55C205 39.0167 203.467 40.05 201.8 40.65C200.133 41.25 198.483 41.75 196.85 42.15C196.15 42.9167 195.267 43.75 194.2 44.65C193.533 45.1833 192.9 45.55 192.3 45.75C191.733 45.9167 191.25 45.9667 190.85 45.9C190.35 45.8333 189.983 45.6167 189.75 45.25C189.483 44.85 189.45 44.4 189.65 43.9C189.817 43.5333 190.117 43.1667 190.55 42.8C190.983 42.4333 191.617 42.0833 192.45 41.75C192.75 41.6167 193.05 41.5 193.35 41.4C193.683 41.3 194 41.2167 194.3 41.15C195.3 40.1167 195.983 39.1667 196.35 38.3C196.617 37.7 196.7 37.2833 196.6 37.05C196.533 36.8167 196.367 36.7 196.1 36.7C195.833 36.7 195.517 36.8 195.15 37C194.783 37.1667 194.45 37.3667 194.15 37.6C193.183 38.3333 192.183 39.3833 191.15 40.75C190.15 42.0833 189.217 43.8167 188.35 45.95C188.25 46.2167 188.067 46.4167 187.8 46.55C187.5 46.6833 187.233 46.75 187 46.75C186.733 46.7167 186.533 46.6 186.4 46.4C186.233 46.2 186.233 45.8833 186.4 45.45C187.167 43.3833 188.083 41.0667 189.15 38.5C190.217 35.9 191.35 33.2833 192.55 30.65C193.783 27.9833 195.067 25.4167 196.4 22.95C197.733 20.4833 199.033 18.3333 200.3 16.5ZM206.134 37.8C205.968 37.9 205.768 37.9333 205.534 37.9C205.334 37.8667 205.168 37.75 205.034 37.55C204.901 37.3833 204.868 37.2 204.934 37C204.968 36.7667 205.068 36.5833 205.234 36.45C205.468 36.2833 205.718 36.0667 205.984 35.8C206.251 35.5 206.501 35.1833 206.734 34.85C206.634 34.7833 206.484 34.65 206.284 34.45C205.718 33.95 205.434 33.4833 205.434 33.05C205.434 32.5833 205.601 32.1833 205.934 31.85C206.168 31.5833 206.501 31.3667 206.934 31.2C207.368 31.0667 207.751 31.05 208.084 31.15C208.518 31.2167 208.868 31.4167 209.134 31.75C209.401 32.0833 209.468 32.55 209.334 33.15C209.301 33.25 209.268 33.35 209.234 33.45C209.234 33.5167 209.218 33.6 209.184 33.7C209.318 33.7667 209.434 33.85 209.534 33.95C209.634 34.0167 209.751 34.0833 209.884 34.15C210.918 34.85 211.568 35.5167 211.834 36.15C212.101 36.7833 212.151 37.4167 211.984 38.05C211.818 38.6833 211.518 39.35 211.084 40.05C210.684 40.75 210.334 41.55 210.034 42.45C209.734 43.3167 209.651 43.8 209.784 43.9C209.918 43.9667 210.368 43.8167 211.134 43.45C212.068 43.05 213.068 42.5333 214.134 41.9C215.234 41.2333 216.284 40.5667 217.284 39.9C218.284 39.2 219.184 38.55 219.984 37.95C220.784 37.3167 221.384 36.8167 221.784 36.45C221.951 36.2833 222.134 36.2167 222.334 36.25C222.568 36.2833 222.768 36.3833 222.934 36.55C223.068 36.7167 223.118 36.9 223.084 37.1C223.084 37.3 223.001 37.4833 222.834 37.65C222.434 38.0167 221.818 38.5167 220.984 39.15C220.151 39.7833 219.218 40.4667 218.184 41.2C217.151 41.9 216.068 42.5833 214.934 43.25C213.801 43.9167 212.751 44.4667 211.784 44.9C210.951 45.2667 210.168 45.5167 209.434 45.65C208.734 45.7833 208.151 45.7333 207.684 45.5C207.218 45.2667 206.918 44.85 206.784 44.25C206.684 43.65 206.834 42.8167 207.234 41.75C207.434 41.25 207.684 40.7333 207.984 40.2C208.284 39.6667 208.518 39.1333 208.684 38.6C208.884 38.0667 208.951 37.5667 208.884 37.1C208.851 36.6 208.568 36.15 208.034 35.75C207.434 36.6167 206.801 37.3 206.134 37.8ZM229.237 29.85L228.037 30.75C227.804 30.9167 227.537 31.0333 227.237 31.1C226.97 31.1667 226.737 31.1833 226.537 31.15C226.337 31.0833 226.204 30.95 226.137 30.75C226.104 30.55 226.204 30.25 226.437 29.85L226.837 29.1C227.07 28.7 227.387 28.4667 227.787 28.4C228.22 28.3 228.604 28.3167 228.937 28.45C229.304 28.5833 229.537 28.7833 229.637 29.05C229.77 29.3167 229.637 29.5833 229.237 29.85ZM226.737 33.75C226.004 34.7167 225.237 35.8333 224.437 37.1C223.67 38.3333 223.087 39.5 222.687 40.6C222.487 41.1667 222.404 41.5833 222.437 41.85C222.504 42.0833 222.654 42.2167 222.887 42.25C223.12 42.2833 223.404 42.2333 223.737 42.1C224.07 41.9333 224.437 41.75 224.837 41.55C225.537 41.15 226.287 40.6667 227.087 40.1C227.887 39.5333 228.637 38.9833 229.337 38.45C230.037 37.9167 230.62 37.45 231.087 37.05C231.554 36.65 231.787 36.45 231.787 36.45C231.954 36.3167 232.137 36.2667 232.337 36.3C232.537 36.3 232.72 36.3833 232.887 36.55C233.054 36.7167 233.12 36.9167 233.087 37.15C233.054 37.35 232.954 37.5333 232.787 37.7C232.054 38.3 231.287 38.9 230.487 39.5C229.82 40 229.054 40.5333 228.187 41.1C227.354 41.6667 226.52 42.1667 225.687 42.6C225.02 42.9333 224.287 43.2167 223.487 43.45C222.687 43.65 221.987 43.7 221.387 43.6C220.787 43.4667 220.354 43.1333 220.087 42.6C219.82 42.0333 219.904 41.15 220.337 39.95C220.604 39.2167 220.854 38.55 221.087 37.95C221.32 37.3167 221.57 36.7333 221.837 36.2C222.137 35.6333 222.454 35.0833 222.787 34.55C223.154 34.0167 223.587 33.4333 224.087 32.8C224.22 32.5667 224.487 32.4167 224.887 32.35C225.32 32.25 225.72 32.2333 226.087 32.3C226.454 32.3667 226.72 32.5333 226.887 32.8C227.087 33.0333 227.037 33.35 226.737 33.75ZM236.897 34.95C236.63 35.0833 236.364 35.25 236.097 35.45C235.83 35.65 235.564 35.9333 235.297 36.3C236.13 36.1333 236.73 35.9667 237.097 35.8C237.63 35.6 237.98 35.4167 238.147 35.25C238.314 35.0833 238.364 34.95 238.297 34.85C238.23 34.75 238.064 34.7 237.797 34.7C237.53 34.7 237.23 34.7833 236.897 34.95ZM236.097 41C236.83 40.9 237.614 40.7167 238.447 40.45C239.314 40.1833 240.164 39.85 240.997 39.45C241.864 39.05 242.664 38.6 243.397 38.1C244.164 37.5667 244.83 37.0167 245.397 36.45C245.564 36.2833 245.747 36.2 245.947 36.2C246.18 36.1667 246.38 36.2333 246.547 36.4C246.914 36.8 246.914 37.1833 246.547 37.55C245.947 38.1833 245.214 38.7833 244.347 39.35C243.514 39.9167 242.63 40.4333 241.697 40.9C240.797 41.3333 239.864 41.7 238.897 42C237.964 42.3 237.08 42.5 236.247 42.6C235.847 42.6667 235.364 42.7167 234.797 42.75C234.264 42.75 233.73 42.7167 233.197 42.65C232.664 42.5833 232.18 42.45 231.747 42.25C231.28 42.0167 230.93 41.6833 230.697 41.25C230.497 40.8833 230.414 40.5 230.447 40.1C230.447 39.7 230.514 39.3 230.647 38.9C230.747 38.4667 230.897 38.0667 231.097 37.7C231.264 37.3 231.447 36.95 231.647 36.65C232.18 35.8833 232.814 35.1833 233.547 34.55C234.28 33.8833 235.114 33.4167 236.047 33.15C236.98 32.9167 237.78 32.9167 238.447 33.15C239.114 33.3833 239.564 33.7333 239.797 34.2C240.03 34.6667 239.997 35.2 239.697 35.8C239.43 36.3667 238.797 36.85 237.797 37.25C237.33 37.4167 236.78 37.5667 236.147 37.7C235.547 37.8333 234.847 37.9333 234.047 38C233.447 39.0333 233.23 39.8 233.397 40.3C233.43 40.5333 233.564 40.7 233.797 40.8C234.03 40.9 234.28 40.9833 234.547 41.05C234.847 41.0833 235.13 41.1 235.397 41.1C235.697 41.0667 235.93 41.0333 236.097 41ZM253.62 30.75C253.653 30.7167 253.67 30.7 253.67 30.7C253.67 30.6667 253.687 30.6333 253.72 30.6C253.787 30.5333 253.837 30.45 253.87 30.35C253.903 30.25 253.953 30.1667 254.02 30.1C253.82 30.2333 253.587 30.4167 253.32 30.65C253.053 30.8833 252.737 31.1833 252.37 31.55C252.103 31.8167 251.82 32.1167 251.52 32.45C251.253 32.7833 250.953 33.1833 250.62 33.65C251.087 33.2833 251.537 32.9167 251.97 32.55C252.403 32.1833 252.753 31.8333 253.02 31.5C253.253 31.2667 253.453 31.0167 253.62 30.75ZM243.07 55.45C243.437 54.85 243.77 54.1833 244.07 53.45C244.37 52.7167 244.653 51.9333 244.92 51.1C245.387 49.5 245.67 47.8667 245.77 46.2C245.87 44.5333 245.72 43.1 245.32 41.9L245.12 42.3C244.153 43.9667 243.27 45.6333 242.47 47.3C241.67 48.9667 241.02 50.5333 240.52 52C240.087 53.2667 239.853 54.3667 239.82 55.3C239.753 56.2667 239.853 56.95 240.12 57.35C240.353 57.7833 240.737 57.8667 241.27 57.6C241.77 57.3333 242.37 56.6167 243.07 55.45ZM237.67 51.5C238.203 50 238.887 48.3833 239.72 46.65C240.52 44.9167 241.403 43.2 242.37 41.5C243.037 40.3 243.72 39.1333 244.42 38C245.12 36.8667 245.803 35.8167 246.47 34.85C247.137 33.85 247.753 32.9833 248.32 32.25C248.92 31.4833 249.437 30.8667 249.87 30.4C250.737 29.5333 251.537 28.9167 252.27 28.55C253.003 28.15 253.62 27.9333 254.12 27.9C254.587 27.9 254.97 28 255.27 28.2C255.637 28.4333 255.853 28.7833 255.92 29.25C256.02 29.9833 255.687 30.7833 254.92 31.65C254.82 31.8167 254.72 31.9667 254.62 32.1C254.52 32.2333 254.387 32.3833 254.22 32.55C253.82 33.0167 253.303 33.5167 252.67 34.05C252.037 34.55 251.387 35.05 250.72 35.55C250.087 36.0167 249.503 36.4333 248.97 36.8C248.47 37.1667 248.12 37.4167 247.92 37.55C247.687 37.9167 247.453 38.2833 247.22 38.65C247.02 39.0167 246.803 39.3833 246.57 39.75C247.437 39.95 248.487 40.05 249.72 40.05C250.987 40.0167 252.287 39.85 253.62 39.55C254.853 39.2833 256.003 38.9 257.07 38.4C258.17 37.9 259.07 37.25 259.77 36.45C260.137 36.0833 260.503 36.0667 260.87 36.4C261.037 36.5333 261.137 36.7167 261.17 36.95C261.203 37.15 261.137 37.3333 260.97 37.5C260.137 38.4667 259.103 39.25 257.87 39.85C256.637 40.4167 255.337 40.8333 253.97 41.1C252.703 41.3667 251.437 41.5333 250.17 41.6C248.903 41.6333 247.787 41.5667 246.82 41.4C247.287 42.8 247.453 44.4167 247.32 46.25C247.22 48.05 246.92 49.8 246.42 51.5C245.92 53.3333 245.253 54.9167 244.42 56.25C243.987 56.9833 243.437 57.6 242.77 58.1C242.103 58.6333 241.437 58.9833 240.77 59.15C240.07 59.35 239.42 59.3667 238.82 59.2C238.187 59.0667 237.687 58.7 237.32 58.1C236.953 57.5 236.787 56.65 236.82 55.55C236.82 54.4833 237.103 53.1333 237.67 51.5Z" fill="#F1523C"/>
</svg>
