<svg width="462" height="160" viewBox="0 0 462 160" fill="none" xmlns="http://www.w3.org/2000/svg">
<path d="M99.1406 144.402C99.1406 144.402 95.293 144.402 87.5977 144.402C87.5977 144.402 86.4844 138.602 84.2578 127C84.2578 127 61.6992 127 16.582 127C16.582 127 15.4492 132.801 13.1836 144.402C13.1836 144.402 9.35547 144.402 1.69922 144.402C1.69922 144.402 1.69922 133.367 1.69922 111.297C1.69922 111.297 5.60547 111.297 13.418 111.297C13.418 111.297 23.5547 86.9805 43.8281 38.3477C43.8281 38.3477 48.2227 38.3477 57.0117 38.3477C57.0117 38.3477 67.1289 62.6641 87.3633 111.297C87.3633 111.297 91.2891 111.297 99.1406 111.297C99.1406 111.297 99.1406 122.332 99.1406 144.402ZM30.4688 111.297C30.4688 111.297 43.75 111.297 70.3125 111.297C70.3125 111.297 63.6719 95.0859 50.3906 62.6641C50.3906 62.6641 43.75 78.875 30.4688 111.297ZM152.871 60.4961C152.871 60.4961 158.262 60.4961 169.043 60.4961C169.043 60.4961 169.043 82.6641 169.043 127C169.043 127 163.77 127 153.223 127C153.223 127 153.223 112.352 153.223 83.0547C153.223 83.0547 143.301 97.7031 123.457 127C123.457 127 118.066 127 107.285 127C107.285 127 107.285 104.832 107.285 60.4961C107.285 60.4961 112.559 60.4961 123.105 60.4961C123.105 60.4961 123.105 75.1445 123.105 104.441C123.105 104.441 133.027 89.793 152.871 60.4961ZM199.336 97.8203V87.2734C203.438 87.2734 206.426 86.7266 208.301 85.6328C210.215 84.5 211.172 82.5664 211.172 79.832C211.172 78.0742 210.449 76.5703 209.004 75.3203C207.559 74.0312 205.801 73.3867 203.73 73.3867C201.543 73.3867 199.727 73.9922 198.281 75.2031C196.836 76.4141 195.938 77.957 195.586 79.832H180.586C181.016 73.8555 183.398 68.875 187.734 64.8906C192.07 60.8672 197.402 58.8555 203.73 58.8555C210.098 58.8555 215.508 60.9062 219.961 65.0078C224.414 69.0703 226.641 74.0117 226.641 79.832C226.641 82.5664 225.762 85.1055 224.004 87.4492C222.285 89.793 220.02 91.2969 217.207 91.9609V92.0781C220.527 92.9375 223.32 94.7148 225.586 97.4102C227.891 100.066 229.043 102.938 229.043 106.023C229.043 110.125 227.91 113.914 225.645 117.391C223.379 120.828 220.293 123.562 216.387 125.594C212.52 127.586 208.301 128.582 203.73 128.582C196.855 128.582 191.016 126.395 186.211 122.02C181.445 117.605 178.848 112.273 178.418 106.023H194.238C194.473 108.328 195.469 110.223 197.227 111.707C198.984 113.191 201.152 113.934 203.73 113.934C206.309 113.934 208.496 113.172 210.293 111.648C212.09 110.125 212.988 108.25 212.988 106.023C212.988 104.617 212.754 103.426 212.285 102.449C211.855 101.434 211.27 100.633 210.527 100.047C209.785 99.4609 208.789 99.0117 207.539 98.6992C206.328 98.3477 205.098 98.1328 203.848 98.0547C202.637 97.9375 201.133 97.8594 199.336 97.8203ZM306.387 60.4961C306.387 60.4961 306.387 82.6641 306.387 127C306.387 127 301.523 127 291.797 127C291.797 127 291.797 124.129 291.797 118.387C288.594 122.02 285.273 124.637 281.836 126.238C278.438 127.801 274.395 128.582 269.707 128.582C263.301 128.582 257.539 127.117 252.422 124.188C247.344 121.219 243.359 117.098 240.469 111.824C237.617 106.551 236.191 100.613 236.191 94.0117C236.191 87.332 237.637 81.3359 240.527 76.0234C243.418 70.6719 247.441 66.4922 252.598 63.4844C257.754 60.4766 263.574 58.9727 270.059 58.9727C274.863 58.9727 279.004 59.8125 282.48 61.4922C285.957 63.1328 289.062 65.7695 291.797 69.4023V60.4961H306.387ZM271.465 73.6211C265.918 73.6211 261.328 75.5742 257.695 79.4805C254.102 83.3867 252.305 88.3477 252.305 94.3633C252.305 100.184 254.121 104.91 257.754 108.543C261.426 112.137 266.172 113.934 271.992 113.934C277.773 113.934 282.422 112.098 285.938 108.426C289.492 104.754 291.27 99.9492 291.27 94.0117C291.27 87.9961 289.414 83.0938 285.703 79.3047C282.031 75.5156 277.285 73.6211 271.465 73.6211ZM330.527 37.4688C330.527 37.4688 334.57 37.4688 342.656 37.4688C342.656 40.4766 343.262 42.6641 344.473 44.0312C345.684 45.3594 347.637 46.0234 350.332 46.0234C353.027 46.0234 354.98 45.3594 356.191 44.0312C357.402 42.6641 358.008 40.4766 358.008 37.4688H370.137C368.379 47.8594 361.777 53.0547 350.332 53.0547C338.887 53.0547 332.285 47.8594 330.527 37.4688ZM364.98 60.4961C364.98 60.4961 370.371 60.4961 381.152 60.4961C381.152 60.4961 381.152 82.6641 381.152 127C381.152 127 375.879 127 365.332 127C365.332 127 365.332 112.352 365.332 83.0547C365.332 83.0547 355.41 97.7031 335.566 127C335.566 127 330.176 127 319.395 127C319.395 127 319.395 104.832 319.395 60.4961C319.395 60.4961 324.668 60.4961 335.215 60.4961C335.215 60.4961 335.215 75.1445 335.215 104.441C335.215 104.441 345.137 89.793 364.98 60.4961ZM455.332 127C455.332 127 450.02 127 439.395 127C439.395 127 439.395 118.23 439.395 100.691C439.395 100.691 429.629 100.691 410.098 100.691C410.098 100.691 410.098 109.461 410.098 127C410.098 127 404.785 127 394.16 127C394.16 127 394.16 104.832 394.16 60.4961C394.16 60.4961 399.473 60.4961 410.098 60.4961C410.098 60.4961 410.098 69.0703 410.098 86.2188C410.098 86.2188 419.863 86.2188 439.395 86.2188C439.395 86.2188 439.395 77.6445 439.395 60.4961C439.395 60.4961 444.707 60.4961 455.332 60.4961C455.332 60.4961 455.332 82.6641 455.332 127Z" fill="#1D1D1D"/>
<path d="M243.35 10.4C242.95 11.2667 242.433 12.2833 241.8 13.45C241.2 14.5833 240.55 15.8167 239.85 17.15C239.283 18.2167 238.633 19.4167 237.9 20.75C237.167 22.0833 236.433 23.4333 235.7 24.8C234.967 26.1667 234.283 27.5167 233.65 28.85C233.017 30.15 232.517 31.3 232.15 32.3C231.817 33.2667 231.667 34.0333 231.7 34.6C231.767 35.1333 232.117 35.35 232.75 35.25C233.383 35.15 234.35 34.65 235.65 33.75C236.983 32.8167 238.733 31.3833 240.9 29.45C241.067 29.3167 241.25 29.2667 241.45 29.3C241.65 29.3 241.833 29.3833 242 29.55C242.167 29.7167 242.233 29.9 242.2 30.1C242.2 30.3 242.117 30.4833 241.95 30.65C241.817 30.75 241.45 31.0667 240.85 31.6C240.283 32.1 239.583 32.6833 238.75 33.35C237.917 34.0167 237.017 34.6833 236.05 35.35C235.083 35.9833 234.15 36.5 233.25 36.9C232.383 37.2667 231.617 37.45 230.95 37.45C230.283 37.4167 229.817 37.05 229.55 36.35C229.283 35.65 229.35 34.5667 229.75 33.1C230.183 31.6 230.8 29.9 231.6 28C230.233 29.9 228.817 31.5333 227.35 32.9C225.917 34.2667 224.4 35.1667 222.8 35.6C222.233 35.7667 221.75 35.7833 221.35 35.65C220.95 35.5167 220.617 35.2833 220.35 34.95C219.817 34.25 219.683 33.3167 219.95 32.15C220.15 31.0167 220.6 29.9667 221.3 29C221.967 28 222.817 27.2167 223.85 26.65C224.917 26.05 226.1 25.9667 227.4 26.4C227.567 26.4667 227.717 26.5333 227.85 26.6C228.017 26.6333 228.183 26.7 228.35 26.8C228.583 26.9333 228.9 27.1333 229.3 27.4C229.5 27.5667 229.6 27.7833 229.6 28.05C230.867 26.35 232.1 24.4667 233.3 22.4C234.533 20.3333 235.733 18.25 236.9 16.15C238.167 13.7833 239.4 11.6167 240.6 9.65C240.633 9.61667 240.817 9.56666 241.15 9.5C241.517 9.4 241.883 9.36667 242.25 9.4C242.65 9.4 242.967 9.46667 243.2 9.6C243.467 9.73333 243.517 10 243.35 10.4ZM229.05 28.8C228.783 28.8667 228.55 28.8167 228.35 28.65C227.717 28.15 227.1 27.9333 226.5 28C225.933 28.0667 225.35 28.35 224.75 28.85C224.15 29.3833 223.683 29.9667 223.35 30.6C223.05 31.0333 222.85 31.5 222.75 32C222.583 32.5 222.533 32.95 222.6 33.35C222.667 33.7167 222.867 33.8833 223.2 33.85C223.533 33.7833 223.917 33.6 224.35 33.3C224.817 33 225.3 32.6167 225.8 32.15C226.333 31.65 226.817 31.1833 227.25 30.75C227.717 30.2833 228.117 29.8667 228.45 29.5C228.783 29.1333 228.983 28.9 229.05 28.8ZM246.022 27.95C245.755 28.0833 245.489 28.25 245.222 28.45C244.955 28.65 244.689 28.9333 244.422 29.3C245.255 29.1333 245.855 28.9667 246.222 28.8C246.755 28.6 247.105 28.4167 247.272 28.25C247.439 28.0833 247.489 27.95 247.422 27.85C247.355 27.75 247.189 27.7 246.922 27.7C246.655 27.7 246.355 27.7833 246.022 27.95ZM245.222 34C245.955 33.9 246.739 33.7167 247.572 33.45C248.439 33.1833 249.289 32.85 250.122 32.45C250.989 32.05 251.789 31.6 252.522 31.1C253.289 30.5667 253.955 30.0167 254.522 29.45C254.689 29.2833 254.872 29.2 255.072 29.2C255.305 29.1667 255.505 29.2333 255.672 29.4C256.039 29.8 256.039 30.1833 255.672 30.55C255.072 31.1833 254.339 31.7833 253.472 32.35C252.639 32.9167 251.755 33.4333 250.822 33.9C249.922 34.3333 248.989 34.7 248.022 35C247.089 35.3 246.205 35.5 245.372 35.6C244.972 35.6667 244.489 35.7167 243.922 35.75C243.389 35.75 242.855 35.7167 242.322 35.65C241.789 35.5833 241.305 35.45 240.872 35.25C240.405 35.0167 240.055 34.6833 239.822 34.25C239.622 33.8833 239.539 33.5 239.572 33.1C239.572 32.7 239.639 32.3 239.772 31.9C239.872 31.4667 240.022 31.0667 240.222 30.7C240.389 30.3 240.572 29.95 240.772 29.65C241.305 28.8833 241.939 28.1833 242.672 27.55C243.405 26.8833 244.239 26.4167 245.172 26.15C246.105 25.9167 246.905 25.9167 247.572 26.15C248.239 26.3833 248.689 26.7333 248.922 27.2C249.155 27.6667 249.122 28.2 248.822 28.8C248.555 29.3667 247.922 29.85 246.922 30.25C246.455 30.4167 245.905 30.5667 245.272 30.7C244.672 30.8333 243.972 30.9333 243.172 31C242.572 32.0333 242.355 32.8 242.522 33.3C242.555 33.5333 242.689 33.7 242.922 33.8C243.155 33.9 243.405 33.9833 243.672 34.05C243.972 34.0833 244.255 34.1 244.522 34.1C244.822 34.0667 245.055 34.0333 245.222 34ZM257.745 29.5C258.378 30.1667 258.978 30.8333 259.545 31.5C260.112 32.1333 260.578 32.9 260.945 33.8C261.012 33.7333 261.062 33.7 261.095 33.7C261.162 33.6667 261.228 33.6333 261.295 33.6C263.628 32.2667 265.395 30.8833 266.595 29.45C266.728 29.2833 266.895 29.2 267.095 29.2C267.328 29.1667 267.528 29.2167 267.695 29.35C267.862 29.5167 267.962 29.7167 267.995 29.95C268.028 30.15 267.962 30.3333 267.795 30.5C266.462 32.1 264.545 33.6 262.045 35C261.945 35.0667 261.828 35.1333 261.695 35.2C261.595 35.2667 261.478 35.3333 261.345 35.4C261.412 36 261.345 36.65 261.145 37.35C260.978 38.0167 260.645 38.7333 260.145 39.5C259.378 40.6333 258.462 41.4667 257.395 42C256.395 42.5 255.412 42.7667 254.445 42.8C253.478 42.8 252.612 42.6667 251.845 42.4C251.078 42.1333 250.478 41.7667 250.045 41.3C249.578 40.8 249.378 40.2667 249.445 39.7C249.512 39.1333 249.878 38.5833 250.545 38.05C251.212 37.4833 252.278 37 253.745 36.6C255.478 36.1333 256.978 35.6167 258.245 35.05C258.078 34.2167 257.745 33.4833 257.245 32.85C256.745 32.2167 256.262 31.6667 255.795 31.2C255.462 30.8667 255.162 30.5167 254.895 30.15C254.628 29.75 254.462 29.3667 254.395 29C254.295 28.6 254.328 28.2 254.495 27.8C254.662 27.4 254.995 27.0167 255.495 26.65C255.728 26.4833 256.012 26.3333 256.345 26.2C256.678 26.0667 257.028 25.9833 257.395 25.95C257.762 25.8833 258.112 25.9 258.445 26C258.778 26.0667 259.045 26.25 259.245 26.55C259.478 26.8833 259.478 27.2833 259.245 27.75C259.045 28.1833 258.545 28.7667 257.745 29.5ZM255.995 40.15C256.562 39.7833 257.045 39.2833 257.445 38.65C257.878 38.05 258.145 37.4333 258.245 36.8C256.945 37.3333 255.578 37.7667 254.145 38.1C252.545 38.5333 251.595 38.9833 251.295 39.45C250.995 39.9167 251.078 40.3 251.545 40.6C251.978 40.8667 252.645 41 253.545 41C254.412 41 255.228 40.7167 255.995 40.15ZM274.055 22.85L272.855 23.75C272.622 23.9167 272.355 24.0333 272.055 24.1C271.789 24.1667 271.555 24.1833 271.355 24.15C271.155 24.0833 271.022 23.95 270.955 23.75C270.922 23.55 271.022 23.25 271.255 22.85L271.655 22.1C271.889 21.7 272.205 21.4667 272.605 21.4C273.039 21.3 273.422 21.3167 273.755 21.45C274.122 21.5833 274.355 21.7833 274.455 22.05C274.589 22.3167 274.455 22.5833 274.055 22.85ZM271.555 26.75C270.822 27.7167 270.055 28.8333 269.255 30.1C268.489 31.3333 267.905 32.5 267.505 33.6C267.305 34.1667 267.222 34.5833 267.255 34.85C267.322 35.0833 267.472 35.2167 267.705 35.25C267.939 35.2833 268.222 35.2333 268.555 35.1C268.889 34.9333 269.255 34.75 269.655 34.55C270.355 34.15 271.105 33.6667 271.905 33.1C272.705 32.5333 273.455 31.9833 274.155 31.45C274.855 30.9167 275.439 30.45 275.905 30.05C276.372 29.65 276.605 29.45 276.605 29.45C276.772 29.3167 276.955 29.2667 277.155 29.3C277.355 29.3 277.539 29.3833 277.705 29.55C277.872 29.7167 277.939 29.9167 277.905 30.15C277.872 30.35 277.772 30.5333 277.605 30.7C276.872 31.3 276.105 31.9 275.305 32.5C274.639 33 273.872 33.5333 273.005 34.1C272.172 34.6667 271.339 35.1667 270.505 35.6C269.839 35.9333 269.105 36.2167 268.305 36.45C267.505 36.65 266.805 36.7 266.205 36.6C265.605 36.4667 265.172 36.1333 264.905 35.6C264.639 35.0333 264.722 34.15 265.155 32.95C265.422 32.2167 265.672 31.55 265.905 30.95C266.139 30.3167 266.389 29.7333 266.655 29.2C266.955 28.6333 267.272 28.0833 267.605 27.55C267.972 27.0167 268.405 26.4333 268.905 25.8C269.039 25.5667 269.305 25.4167 269.705 25.35C270.139 25.25 270.539 25.2333 270.905 25.3C271.272 25.3667 271.539 25.5333 271.705 25.8C271.905 26.0333 271.855 26.35 271.555 26.75ZM282.765 28.9C282.832 29.0333 282.882 29.1167 282.915 29.15C283.182 28.7833 283.365 28.45 283.465 28.15C283.532 27.9833 283.715 27.8667 284.015 27.8C284.349 27.7 284.699 27.6667 285.065 27.7C285.432 27.7 285.749 27.7833 286.015 27.95C286.282 28.0833 286.399 28.3167 286.365 28.65C286.299 29.45 286.065 30.4833 285.665 31.75C285.299 32.9833 284.815 34.3833 284.215 35.95C284.815 35.6167 285.382 35.3167 285.915 35.05C286.449 34.7833 286.949 34.5167 287.415 34.25C289.082 33.3167 290.415 32.4833 291.415 31.75C292.449 30.9833 293.349 30.2167 294.115 29.45C294.282 29.2833 294.465 29.2167 294.665 29.25C294.865 29.2833 295.049 29.3833 295.215 29.55C295.615 29.9167 295.632 30.2833 295.265 30.65C294.465 31.4167 293.532 32.2 292.465 33C291.432 33.7667 290.032 34.65 288.265 35.65C287.599 36.0167 286.849 36.4333 286.015 36.9C285.182 37.3333 284.282 37.7833 283.315 38.25C282.582 39.95 281.749 41.7333 280.815 43.6C279.915 45.4667 278.932 47.3 277.865 49.1C276.832 50.9333 275.732 52.6667 274.565 54.3C273.365 55.9667 272.149 57.4167 270.915 58.65C269.649 59.8833 268.365 60.7333 267.065 61.2C265.732 61.6667 264.499 61.8333 263.365 61.7C262.199 61.5667 261.182 61.1667 260.315 60.5C259.415 59.8333 258.782 58.9667 258.415 57.9C258.049 56.8667 257.999 55.6667 258.265 54.3C258.532 52.9333 259.215 51.5 260.315 50C261.415 48.5333 262.765 47.2333 264.365 46.1C265.932 44.9667 267.632 43.9333 269.465 43C271.265 42.0333 273.115 41.15 275.015 40.35C276.882 39.5167 278.649 38.7 280.315 37.9C281.215 35.7333 281.949 33.7833 282.515 32.05C282.115 32.45 281.632 32.85 281.065 33.25C279.932 34.05 278.882 34.5167 277.915 34.65C276.982 34.75 276.249 34.6167 275.715 34.25C275.182 33.85 274.932 33.25 274.965 32.45C274.999 31.65 275.449 30.75 276.315 29.75C276.749 29.25 277.282 28.7833 277.915 28.35C278.549 27.9167 279.215 27.6667 279.915 27.6C280.449 27.5333 280.949 27.6 281.415 27.8C281.915 28 282.365 28.3667 282.765 28.9ZM268.365 57.45C269.465 56.35 270.532 55.1 271.565 53.7C272.565 52.3333 273.532 50.8833 274.465 49.35C275.399 47.85 276.265 46.3167 277.065 44.75C277.865 43.1833 278.599 41.6667 279.265 40.2C277.765 40.9333 276.165 41.6833 274.465 42.45C272.732 43.1833 271.049 43.9833 269.415 44.85C267.749 45.75 266.215 46.7333 264.815 47.8C263.382 48.9 262.199 50.15 261.265 51.55C260.165 53.2167 259.632 54.7333 259.665 56.1C259.699 57.5 260.115 58.55 260.915 59.25C261.715 59.95 262.782 60.2 264.115 60C265.449 59.8 266.865 58.95 268.365 57.45ZM278.615 31.25C278.149 31.9167 277.899 32.3667 277.865 32.6C277.832 32.8333 277.915 32.95 278.115 32.95C278.315 32.9167 278.599 32.8 278.965 32.6C279.332 32.4 279.699 32.1833 280.065 31.95C280.865 31.35 281.549 30.75 282.115 30.15C282.082 30.0833 281.982 29.9667 281.815 29.8C281.682 29.6333 281.465 29.55 281.165 29.55C280.865 29.5167 280.499 29.6167 280.065 29.85C279.665 30.05 279.182 30.5167 278.615 31.25ZM295.196 27.85C295.396 27.5833 295.679 27.4167 296.046 27.35C296.446 27.25 296.812 27.25 297.146 27.35C297.479 27.4167 297.712 27.5833 297.846 27.85C297.979 28.0833 297.912 28.4 297.646 28.8C296.979 29.7333 296.246 30.8167 295.446 32.05C294.679 33.2833 294.012 34.4667 293.446 35.6C293.079 36.4 292.796 37.0667 292.596 37.6C292.896 37.3333 293.229 37.0167 293.596 36.65C293.962 36.25 294.362 35.8167 294.796 35.35C295.362 34.75 295.962 34.1167 296.596 33.45C297.262 32.7833 297.929 32.15 298.596 31.55C299.296 30.9167 299.979 30.3333 300.646 29.8C301.312 29.2667 301.946 28.8167 302.546 28.45C302.579 28.4167 302.612 28.4 302.646 28.4C302.679 28.3667 302.712 28.3333 302.746 28.3C303.279 28.0333 303.762 27.85 304.196 27.75C304.962 27.5833 305.529 27.7167 305.896 28.15C306.262 28.5833 306.529 29.1833 306.696 29.95C306.762 30.2167 306.812 30.5 306.846 30.8C306.879 31.1 306.912 31.4 306.946 31.7C307.012 32.1333 307.062 32.55 307.096 32.95C307.162 33.35 307.246 33.7 307.346 34C307.512 34.5667 307.762 34.9167 308.096 35.05C308.429 35.1833 308.796 35.2 309.196 35.1C309.596 34.9667 309.996 34.7667 310.396 34.5C310.796 34.2 311.146 33.9333 311.446 33.7C312.012 33.2333 312.679 32.6667 313.446 32C314.212 31.3 315.079 30.45 316.046 29.45C316.212 29.2833 316.396 29.2 316.596 29.2C316.829 29.2 317.029 29.2833 317.196 29.45C317.362 29.6167 317.446 29.8167 317.446 30.05C317.446 30.25 317.362 30.4333 317.196 30.6C316.262 31.5667 315.396 32.4 314.596 33.1C313.829 33.7667 313.112 34.35 312.446 34.85C311.946 35.2167 311.346 35.6 310.646 36C309.979 36.4 309.296 36.7 308.596 36.9C307.929 37.0667 307.279 37.0667 306.646 36.9C306.012 36.7333 305.496 36.2667 305.096 35.5C304.862 35.0333 304.679 34.55 304.546 34.05C304.446 33.5167 304.346 32.9667 304.246 32.4C304.179 32.1333 304.129 31.8333 304.096 31.5C304.062 31.1333 303.996 30.8167 303.896 30.55C303.796 30.2833 303.646 30.1 303.446 30C303.279 29.9 303.029 29.9667 302.696 30.2C302.196 30.5667 301.646 31 301.046 31.5C300.479 31.9667 299.896 32.4833 299.296 33.05C298.729 33.6167 298.146 34.2 297.546 34.8C296.979 35.3667 296.446 35.9167 295.946 36.45C295.479 36.9167 295.046 37.3667 294.646 37.8C294.246 38.2 293.879 38.55 293.546 38.85V38.9C293.146 39.3 292.712 39.6167 292.246 39.85C291.779 40.0833 291.346 40.1667 290.946 40.1C290.712 40.1 290.512 40.0667 290.346 40C290.179 39.9 290.046 39.8 289.946 39.7C289.812 39.5667 289.729 39.45 289.696 39.35C289.462 38.8833 289.462 38.2833 289.696 37.55C289.896 36.7833 290.229 35.9333 290.696 35C291.296 33.8333 292.029 32.6 292.896 31.3C293.729 29.9667 294.496 28.8167 295.196 27.85ZM330.968 15.95C331.068 15.7833 331.285 15.7 331.618 15.7C331.985 15.6667 332.318 15.7167 332.618 15.85C332.952 15.95 333.202 16.1167 333.368 16.35C333.568 16.5833 333.552 16.8667 333.318 17.2C333.318 17.2 333.035 17.5833 332.468 18.35C331.902 19.1167 331.168 20.1167 330.268 21.35C329.368 22.5833 328.368 24 327.268 25.6C326.168 27.1667 325.068 28.7833 323.968 30.45C322.902 32.1167 321.885 33.75 320.918 35.35C319.985 36.95 319.235 38.3833 318.668 39.65C318.602 39.85 318.452 40 318.218 40.1C318.018 40.1667 317.818 40.1667 317.618 40.1C317.418 40 317.268 39.85 317.168 39.65C317.102 39.45 317.118 39.25 317.218 39.05C317.818 37.6167 318.568 36.05 319.468 34.35C320.402 32.65 321.368 30.95 322.368 29.25C323.402 27.55 324.418 25.9 325.418 24.3C326.452 22.7 327.368 21.2833 328.168 20.05C329.002 18.8167 329.668 17.8333 330.168 17.1C330.702 16.3333 330.968 15.95 330.968 15.95ZM347.867 9.5C348 9.26666 348.233 9.11666 348.567 9.05C348.933 8.98333 349.283 9 349.617 9.1C349.95 9.16667 350.2 9.31667 350.367 9.55C350.533 9.78333 350.483 10.0833 350.217 10.45C349.083 12.0167 347.917 13.8333 346.717 15.9C345.55 17.9667 344.4 20.1167 343.267 22.35C342.133 24.55 341.05 26.7333 340.017 28.9C338.983 31.0667 338.067 33.05 337.267 34.85C336.933 35.55 336.683 36.1833 336.517 36.75C336.35 37.2833 336.317 37.7167 336.417 38.05C336.483 38.35 336.717 38.5167 337.117 38.55C337.55 38.55 338.2 38.3667 339.067 38C339.9 37.6667 340.8 37.2 341.767 36.6C342.733 36 343.7 35.3333 344.667 34.6C345.633 33.8333 346.567 33.0167 347.467 32.15C348.367 31.25 349.167 30.35 349.867 29.45C350 29.2833 350.167 29.1833 350.367 29.15C350.6 29.1167 350.8 29.1833 350.967 29.35C351.133 29.4833 351.233 29.6667 351.267 29.9C351.3 30.1 351.25 30.2833 351.117 30.45C350.383 31.3833 349.533 32.3167 348.567 33.25C347.6 34.1833 346.6 35.05 345.567 35.85C344.567 36.65 343.55 37.3667 342.517 38C341.483 38.6333 340.533 39.1167 339.667 39.45C338.533 39.9167 337.533 40.1333 336.667 40.1C335.767 40.0333 335.083 39.7667 334.617 39.3C334.117 38.8 333.867 38.1167 333.867 37.25C333.833 36.3833 334.133 35.3667 334.767 34.2C335.6 32.3667 336.533 30.35 337.567 28.15C338.6 25.95 339.683 23.75 340.817 21.55C341.983 19.3167 343.15 17.15 344.317 15.05C345.517 12.95 346.7 11.1 347.867 9.5ZM355.607 30.35C355.407 30.35 355.224 30.2333 355.057 30C354.691 29.4667 354.324 29.2167 353.957 29.25C353.591 29.25 353.241 29.4 352.907 29.7C352.574 29.9667 352.274 30.3333 352.007 30.8C351.774 31.2333 351.591 31.6167 351.457 31.95C351.324 32.35 351.291 32.6333 351.357 32.8C351.424 32.9667 351.541 33.0667 351.707 33.1C351.874 33.1 352.091 33.05 352.357 32.95C352.624 32.85 352.891 32.7167 353.157 32.55C353.457 32.3833 353.741 32.2 354.007 32C354.274 31.7667 354.474 31.6 354.607 31.5C354.974 31.1333 355.307 30.75 355.607 30.35ZM349.507 29.95C349.807 29.45 350.174 29 350.607 28.6C351.074 28.1667 351.557 27.8333 352.057 27.6C352.591 27.3667 353.141 27.2667 353.707 27.3C354.274 27.3333 354.824 27.5667 355.357 28C355.524 28.1667 355.674 28.3333 355.807 28.5C355.974 28.6333 356.141 28.8167 356.307 29.05C356.307 29.0167 356.307 29 356.307 29C356.341 28.9667 356.357 28.9333 356.357 28.9C356.357 28.6 356.507 28.3667 356.807 28.2C357.107 28.0333 357.441 27.95 357.807 27.95C358.174 27.95 358.507 28.05 358.807 28.25C359.107 28.45 359.257 28.7833 359.257 29.25C359.057 30.2833 359.074 31.0833 359.307 31.65C359.441 32.0167 359.674 32.2333 360.007 32.3C360.341 32.3667 360.724 32.35 361.157 32.25C361.591 32.1167 362.041 31.9167 362.507 31.65C363.007 31.3833 363.474 31.1167 363.907 30.85C364.341 30.55 364.724 30.2667 365.057 30C365.391 29.7333 365.624 29.55 365.757 29.45C365.924 29.3167 366.107 29.2667 366.307 29.3C366.541 29.3 366.724 29.3833 366.857 29.55C367.024 29.7167 367.091 29.9167 367.057 30.15C367.024 30.35 366.924 30.5333 366.757 30.7C365.891 31.4333 365.007 32.0667 364.107 32.6C363.207 33.1333 362.374 33.5 361.607 33.7C361.274 33.8 360.907 33.9 360.507 34C360.107 34.0667 359.691 34.1 359.257 34.1C358.857 34.0667 358.474 34 358.107 33.9C357.741 33.7667 357.407 33.55 357.107 33.25C356.774 32.8833 356.541 32.4333 356.407 31.9L355.657 32.65C355.324 32.95 354.974 33.2333 354.607 33.5C354.241 33.7667 353.841 34 353.407 34.2C352.241 34.8 351.274 35.0667 350.507 35C349.774 34.9333 349.257 34.6667 348.957 34.2C348.624 33.7333 348.507 33.1167 348.607 32.35C348.707 31.55 349.007 30.75 349.507 29.95ZM368.175 26.65C368.375 26.4167 368.692 26.2833 369.125 26.25C369.559 26.1833 369.942 26.2167 370.275 26.35C370.642 26.45 370.875 26.6333 370.975 26.9C371.109 27.1667 370.975 27.4833 370.575 27.85C370.475 27.9167 370.275 28.1167 369.975 28.45C369.709 28.7833 369.409 29.1833 369.075 29.65C368.742 30.0833 368.409 30.5333 368.075 31C367.775 31.4333 367.559 31.8167 367.425 32.15C367.325 32.45 367.325 32.65 367.425 32.75C367.559 32.85 367.892 32.7667 368.425 32.5C369.492 31.9667 370.459 31.2667 371.325 30.4C372.225 29.6333 372.892 28.8333 373.325 28C373.425 27.8 373.625 27.65 373.925 27.55C374.259 27.45 374.592 27.4167 374.925 27.45C375.292 27.4833 375.609 27.6 375.875 27.8C376.142 27.9667 376.242 28.2167 376.175 28.55C375.809 30.15 374.909 32.4667 373.475 35.5C373.842 35.2667 374.192 35.05 374.525 34.85C374.892 34.65 375.242 34.45 375.575 34.25C377.209 33.25 378.475 32.3667 379.375 31.6C380.275 30.8 380.992 30.0833 381.525 29.45C381.659 29.2833 381.825 29.2 382.025 29.2C382.259 29.1667 382.459 29.2167 382.625 29.35C382.792 29.5167 382.892 29.7167 382.925 29.95C382.959 30.15 382.892 30.3333 382.725 30.5C382.159 31.1667 381.392 31.9167 380.425 32.75C379.492 33.5833 378.159 34.5333 376.425 35.6C375.292 36.3 373.892 37.0833 372.225 37.95C371.092 40.1833 369.809 42.45 368.375 44.75C366.742 47.45 365.009 50.0167 363.175 52.45C361.309 54.9167 359.509 56.95 357.775 58.55C356.842 59.3833 355.859 60.05 354.825 60.55C353.759 61.05 352.709 61.3667 351.675 61.5C350.642 61.6667 349.675 61.6333 348.775 61.4C347.842 61.2 347.075 60.8 346.475 60.2C345.875 59.6333 345.475 58.85 345.275 57.85C345.042 56.8833 345.109 55.7167 345.475 54.35C345.709 53.4167 346.159 52.4167 346.825 51.35C347.492 50.3167 348.392 49.2667 349.525 48.2C350.625 47.1667 352.009 46.1333 353.675 45.1C355.309 44.0667 357.242 43.0667 359.475 42.1H359.525C363.392 40.4333 366.625 38.9667 369.225 37.7C369.792 36.6333 370.292 35.6333 370.725 34.7C371.192 33.7333 371.609 32.8333 371.975 32C371.009 32.8 370.059 33.4333 369.125 33.9C368.359 34.3 367.625 34.55 366.925 34.65C366.259 34.7167 365.709 34.6333 365.275 34.4C364.809 34.1333 364.525 33.7167 364.425 33.15C364.325 32.55 364.509 31.8 364.975 30.9C365.342 30.1333 365.809 29.3833 366.375 28.65C366.975 27.8833 367.575 27.2167 368.175 26.65ZM355.375 57.4C357.075 55.8667 358.825 53.9 360.625 51.5C362.392 49.1 364.075 46.5833 365.675 43.95C366.075 43.2833 366.459 42.6333 366.825 42C367.192 41.3667 367.559 40.7333 367.925 40.1C366.792 40.6333 365.592 41.1833 364.325 41.75C363.025 42.3167 361.625 42.9167 360.125 43.55L360.075 43.6C357.975 44.4667 356.159 45.3667 354.625 46.3C353.059 47.2667 351.759 48.2333 350.725 49.2C349.659 50.1667 348.825 51.1167 348.225 52.05C347.625 52.9833 347.225 53.8667 347.025 54.7C346.592 56.3333 346.609 57.55 347.075 58.35C347.509 59.1833 348.175 59.6667 349.075 59.8C349.975 59.9667 351.009 59.8333 352.175 59.4C353.309 58.9667 354.375 58.3 355.375 57.4ZM385.847 28.75C385.48 28.9833 385.13 29.2667 384.797 29.6C384.497 29.9333 384.23 30.2833 383.997 30.65C383.597 31.25 383.347 31.85 383.247 32.45C383.114 33.1167 383.147 33.5667 383.347 33.8C383.547 34 383.83 34.0833 384.197 34.05C384.564 33.9833 384.947 33.8333 385.347 33.6C385.78 33.3333 386.147 33.0333 386.447 32.7C386.847 32.2 387.164 31.6833 387.397 31.15C387.297 31.0833 387.197 31.0167 387.097 30.95C386.997 30.85 386.914 30.7667 386.847 30.7C386.314 30.1667 385.98 29.5167 385.847 28.75ZM385.497 26.65C385.697 26.6167 385.914 26.65 386.147 26.75C386.38 26.45 386.647 26.3 386.947 26.3C387.247 26.2333 387.53 26.2833 387.797 26.45C388.064 26.6167 388.314 26.85 388.547 27.15C388.78 27.45 388.98 27.8 389.147 28.2C389.28 28.5333 389.347 28.8833 389.347 29.25C389.38 29.6167 389.364 29.9833 389.297 30.35L389.747 30.5C390.514 30.6333 391.347 30.65 392.247 30.55C392.747 30.4833 393.214 30.35 393.647 30.15C394.114 29.95 394.48 29.7167 394.747 29.45C394.914 29.2833 395.097 29.2167 395.297 29.25C395.53 29.25 395.73 29.3333 395.897 29.5C396.064 29.6667 396.147 29.85 396.147 30.05C396.147 30.25 396.064 30.4333 395.897 30.6C395.464 31 394.947 31.3333 394.347 31.6C393.747 31.8333 393.114 32 392.447 32.1C391.38 32.2667 390.38 32.25 389.447 32.05C389.18 31.9833 388.964 31.9167 388.797 31.85C388.53 32.4833 388.147 33.1 387.647 33.7C387.08 34.3667 386.33 34.8833 385.397 35.25C384.497 35.5833 383.63 35.7167 382.797 35.65C381.964 35.5833 381.297 35.2833 380.797 34.75C380.264 34.1833 380.114 33.3167 380.347 32.15C380.514 31.2833 380.83 30.5 381.297 29.8C381.764 29.0667 382.347 28.4167 383.047 27.85C383.78 27.25 384.597 26.85 385.497 26.65ZM387.747 29.35C387.747 29.15 387.714 28.95 387.647 28.75C387.614 28.6167 387.53 28.45 387.397 28.25C387.397 28.3167 387.397 28.3667 387.397 28.4C387.43 28.4333 387.447 28.4833 387.447 28.55C387.48 28.8167 387.58 29.0833 387.747 29.35ZM396.58 26.2C396.78 26 397.08 25.8667 397.48 25.8C397.914 25.7 398.297 25.6833 398.63 25.75C398.997 25.8167 399.247 25.9833 399.38 26.25C399.547 26.4833 399.447 26.8333 399.08 27.3C398.814 27.5667 398.464 28.0833 398.03 28.85C397.597 29.6167 397.23 30.4167 396.93 31.25C396.73 31.85 396.597 32.3667 396.53 32.8C396.464 33.2 396.48 33.4833 396.58 33.65C396.714 33.7833 396.93 33.7667 397.23 33.6C397.53 33.4333 397.947 33.0333 398.48 32.4C398.98 31.8 399.447 31.1167 399.88 30.35C400.314 29.5833 400.664 28.7667 400.93 27.9C400.997 27.7333 401.197 27.6 401.53 27.5C401.864 27.3667 402.214 27.3167 402.58 27.35C402.947 27.35 403.264 27.4167 403.53 27.55C403.797 27.6833 403.897 27.9167 403.83 28.25L403.78 28.4V28.45C403.514 29.55 403.597 30.3 404.03 30.7C404.464 31.1 405.03 31.2833 405.73 31.25C406.43 31.1833 407.164 30.9833 407.93 30.65C408.697 30.2833 409.297 29.8833 409.73 29.45C409.897 29.2833 410.08 29.2167 410.28 29.25C410.514 29.25 410.714 29.3333 410.88 29.5C411.047 29.6667 411.114 29.85 411.08 30.05C411.08 30.25 410.997 30.4333 410.83 30.6C410.33 31.1 409.63 31.5667 408.73 32C407.864 32.4 406.947 32.6833 405.98 32.85C405.047 33.0167 404.13 32.9833 403.23 32.75C402.364 32.5167 401.697 32 401.23 31.2C400.964 31.6 400.697 31.9833 400.43 32.35C400.197 32.7167 399.947 33.0667 399.68 33.4C398.88 34.3667 398.064 35.05 397.23 35.45C396.397 35.8167 395.68 35.8833 395.08 35.65C394.48 35.4167 394.08 34.9 393.88 34.1C393.647 33.3 393.764 32.2 394.23 30.8C394.53 29.8333 394.914 28.9167 395.38 28.05C395.88 27.15 396.28 26.5333 396.58 26.2ZM411.471 17.5C410.937 17.5 410.671 17.2333 410.671 16.7C410.637 16.5 410.687 16.3167 410.821 16.15C410.987 15.9833 411.187 15.9 411.421 15.9L417.471 15.75C418.071 14.8167 418.621 13.95 419.121 13.15C419.621 12.35 420.054 11.6667 420.421 11.1C420.787 10.5 421.087 10.05 421.321 9.75C421.554 9.41666 421.671 9.25 421.671 9.25C421.771 9.05 422.021 8.91667 422.421 8.85C422.821 8.78333 423.204 8.78333 423.571 8.85C423.937 8.88333 424.221 9.01667 424.421 9.25C424.621 9.45 424.587 9.73333 424.321 10.1C424.321 10.1333 423.971 10.6667 423.271 11.7C422.604 12.7 421.754 14.0333 420.721 15.7L425.171 15.55C425.704 15.55 425.971 15.8167 425.971 16.35C426.004 16.5833 425.937 16.7833 425.771 16.95C425.637 17.0833 425.454 17.15 425.221 17.15L419.721 17.3C418.987 18.5 418.221 19.7833 417.421 21.15C416.621 22.4833 415.837 23.85 415.071 25.25C414.304 26.6167 413.571 27.9833 412.871 29.35C412.204 30.7167 411.621 32 411.121 33.2C410.354 34.9667 409.921 36.3 409.821 37.2C409.754 38.0667 409.937 38.6 410.371 38.8C410.837 38.9667 411.521 38.8667 412.421 38.5C413.321 38.1 414.404 37.5333 415.671 36.8C416.571 36.2667 417.471 35.6833 418.371 35.05C419.271 34.3833 420.104 33.7333 420.871 33.1C421.637 32.4333 422.321 31.7833 422.921 31.15C423.554 30.5167 424.037 29.95 424.371 29.45C424.471 29.2833 424.621 29.1833 424.821 29.15C425.054 29.0833 425.271 29.1167 425.471 29.25C425.637 29.3833 425.737 29.5667 425.771 29.8C425.837 30 425.804 30.1833 425.671 30.35C425.304 30.8833 424.804 31.4833 424.171 32.15C423.571 32.7833 422.871 33.4333 422.071 34.1C421.304 34.7667 420.454 35.4333 419.521 36.1C418.621 36.7667 417.704 37.3833 416.771 37.95C415.204 38.9167 413.687 39.6333 412.221 40.1C410.754 40.5667 409.571 40.6667 408.671 40.4C407.737 40.1 407.187 39.35 407.021 38.15C406.821 36.9167 407.237 35.0667 408.271 32.6C408.771 31.4667 409.337 30.25 409.971 28.95C410.604 27.65 411.287 26.35 412.021 25.05C412.754 23.7167 413.504 22.4 414.271 21.1C415.037 19.8 415.771 18.55 416.471 17.35L411.471 17.5Z" fill="#F1523C"/>
</svg>
