<svg width="319" height="160" viewBox="0 0 319 160" fill="none" xmlns="http://www.w3.org/2000/svg">
<path d="M34.2188 127C34.2188 127 29.0039 127 18.5742 127C18.5742 127 21.6211 119.246 27.7148 103.738C27.7148 103.738 18.6328 81.9414 0.46875 38.3477C0.46875 38.3477 6.38672 38.3477 18.2227 38.3477C18.2227 38.3477 24.0625 53.3867 35.7422 83.4648C35.7422 83.4648 41.6992 68.4258 53.6133 38.3477C53.6133 38.3477 59.5508 38.3477 71.4258 38.3477C71.4258 38.3477 59.0234 67.8984 34.2188 127ZM73.5352 149.207C73.5352 149.207 73.5352 119.637 73.5352 60.4961C73.5352 60.4961 78.3984 60.4961 88.125 60.4961C88.125 60.4961 88.125 63.1133 88.125 68.3477C93.3984 62.0977 100.684 58.9727 109.98 58.9727C116.309 58.9727 121.992 60.457 127.031 63.4258C132.07 66.3555 135.996 70.457 138.809 75.7305C141.66 81.0039 143.086 86.9414 143.086 93.543C143.086 100.184 141.66 106.18 138.809 111.531C135.957 116.844 131.992 121.023 126.914 124.07C121.875 127.078 116.191 128.582 109.863 128.582C105.801 128.582 102.148 127.957 98.9062 126.707C95.6641 125.457 92.5195 123.484 89.4727 120.789V149.207H73.5352ZM107.578 73.6211C102.188 73.6211 97.6562 75.5742 93.9844 79.4805C90.3516 83.3477 88.5352 88.1914 88.5352 94.0117C88.5352 99.6758 90.4102 104.422 94.1602 108.25C97.9102 112.039 102.539 113.934 108.047 113.934C113.398 113.934 117.891 112.02 121.523 108.191C125.195 104.324 127.031 99.5586 127.031 93.8945C127.031 88.0352 125.195 83.1914 121.523 79.3633C117.852 75.5352 113.203 73.6211 107.578 73.6211ZM185.508 58.9727C191.836 58.9727 197.695 60.5352 203.086 63.6602C208.477 66.7852 212.734 71.043 215.859 76.4336C218.984 81.7852 220.547 87.6055 220.547 93.8945C220.547 100.145 218.965 105.945 215.801 111.297C212.676 116.609 208.398 120.828 202.969 123.953C197.539 127.039 191.641 128.582 185.273 128.582C178.867 128.582 172.93 127.039 167.461 123.953C162.031 120.828 157.734 116.609 154.57 111.297C151.406 105.945 149.824 100.145 149.824 93.8945C149.824 89.1289 150.742 84.5977 152.578 80.3008C154.453 75.9648 156.973 72.2539 160.137 69.168C163.34 66.043 167.148 63.5625 171.562 61.7266C175.977 59.8906 180.625 58.9727 185.508 58.9727ZM184.863 73.6211C179.707 73.6211 175.254 75.6133 171.504 79.5977C167.793 83.543 165.938 88.2695 165.938 93.7773C165.938 99.3242 167.812 104.07 171.562 108.016C175.312 111.961 179.824 113.934 185.098 113.934C190.41 113.934 194.961 111.98 198.75 108.074C202.539 104.129 204.434 99.4023 204.434 93.8945C204.434 88.1914 202.539 83.3867 198.75 79.4805C194.961 75.5742 190.332 73.6211 184.863 73.6211ZM230.332 127C230.332 127 230.332 104.832 230.332 60.4961C230.332 60.4961 235.645 60.4961 246.27 60.4961C246.27 60.4961 246.27 70.7109 246.27 91.1406C246.27 91.1406 253.945 80.9258 269.297 60.4961C269.297 60.4961 275.742 60.4961 288.633 60.4961C288.633 60.4961 279.785 71.5117 262.09 93.543C262.09 93.543 271.406 104.695 290.039 127C290.039 127 283.125 127 269.297 127C269.297 127 261.621 116.805 246.27 96.4141C246.27 96.4141 246.27 106.609 246.27 127C246.27 127 240.957 127 230.332 127Z" fill="#1D1D1D"/>
<path d="M91.75 27.5C91.2167 27.5 90.95 27.2333 90.95 26.7C90.9167 26.5 90.9667 26.3167 91.1 26.15C91.2667 25.9833 91.4667 25.9 91.7 25.9L97.75 25.75C98.35 24.8167 98.9 23.95 99.4 23.15C99.9 22.35 100.333 21.6667 100.7 21.1C101.067 20.5 101.367 20.05 101.6 19.75C101.833 19.4167 101.95 19.25 101.95 19.25C102.05 19.05 102.3 18.9167 102.7 18.85C103.1 18.7833 103.483 18.7833 103.85 18.85C104.217 18.8833 104.5 19.0167 104.7 19.25C104.9 19.45 104.867 19.7333 104.6 20.1C104.6 20.1333 104.25 20.6667 103.55 21.7C102.883 22.7 102.033 24.0333 101 25.7L105.45 25.55C105.983 25.55 106.25 25.8167 106.25 26.35C106.283 26.5833 106.217 26.7833 106.05 26.95C105.917 27.0833 105.733 27.15 105.5 27.15L100 27.3C99.2667 28.5 98.5 29.7833 97.7 31.15C96.9 32.4833 96.1167 33.85 95.35 35.25C94.5833 36.6167 93.85 37.9833 93.15 39.35C92.4833 40.7167 91.9 42 91.4 43.2C90.6333 44.9667 90.2 46.3 90.1 47.2C90.0333 48.0667 90.2167 48.6 90.65 48.8C91.1167 48.9667 91.8 48.8667 92.7 48.5C93.6 48.1 94.6833 47.5333 95.95 46.8C96.85 46.2667 97.75 45.6833 98.65 45.05C99.55 44.3833 100.383 43.7333 101.15 43.1C101.917 42.4333 102.6 41.7833 103.2 41.15C103.833 40.5167 104.317 39.95 104.65 39.45C104.75 39.2833 104.9 39.1833 105.1 39.15C105.333 39.0833 105.55 39.1167 105.75 39.25C105.917 39.3833 106.017 39.5667 106.05 39.8C106.117 40 106.083 40.1833 105.95 40.35C105.583 40.8833 105.083 41.4833 104.45 42.15C103.85 42.7833 103.15 43.4333 102.35 44.1C101.583 44.7667 100.733 45.4333 99.8 46.1C98.9 46.7667 97.9833 47.3833 97.05 47.95C95.4833 48.9167 93.9667 49.6333 92.5 50.1C91.0333 50.5667 89.85 50.6667 88.95 50.4C88.0167 50.1 87.4667 49.35 87.3 48.15C87.1 46.9167 87.5167 45.0667 88.55 42.6C89.05 41.4667 89.6167 40.25 90.25 38.95C90.8833 37.65 91.5667 36.35 92.3 35.05C93.0333 33.7167 93.7833 32.4 94.55 31.1C95.3167 29.8 96.05 28.55 96.75 27.35L91.75 27.5ZM109.748 37.95C109.482 38.0833 109.215 38.25 108.948 38.45C108.682 38.65 108.415 38.9333 108.148 39.3C108.982 39.1333 109.582 38.9667 109.948 38.8C110.482 38.6 110.832 38.4167 110.998 38.25C111.165 38.0833 111.215 37.95 111.148 37.85C111.082 37.75 110.915 37.7 110.648 37.7C110.382 37.7 110.082 37.7833 109.748 37.95ZM108.948 44C109.682 43.9 110.465 43.7167 111.298 43.45C112.165 43.1833 113.015 42.85 113.848 42.45C114.715 42.05 115.515 41.6 116.248 41.1C117.015 40.5667 117.682 40.0167 118.248 39.45C118.415 39.2833 118.598 39.2 118.798 39.2C119.032 39.1667 119.232 39.2333 119.398 39.4C119.765 39.8 119.765 40.1833 119.398 40.55C118.798 41.1833 118.065 41.7833 117.198 42.35C116.365 42.9167 115.482 43.4333 114.548 43.9C113.648 44.3333 112.715 44.7 111.748 45C110.815 45.3 109.932 45.5 109.098 45.6C108.698 45.6667 108.215 45.7167 107.648 45.75C107.115 45.75 106.582 45.7167 106.048 45.65C105.515 45.5833 105.032 45.45 104.598 45.25C104.132 45.0167 103.782 44.6833 103.548 44.25C103.348 43.8833 103.265 43.5 103.298 43.1C103.298 42.7 103.365 42.3 103.498 41.9C103.598 41.4667 103.748 41.0667 103.948 40.7C104.115 40.3 104.298 39.95 104.498 39.65C105.032 38.8833 105.665 38.1833 106.398 37.55C107.132 36.8833 107.965 36.4167 108.898 36.15C109.832 35.9167 110.632 35.9167 111.298 36.15C111.965 36.3833 112.415 36.7333 112.648 37.2C112.882 37.6667 112.848 38.2 112.548 38.8C112.282 39.3667 111.648 39.85 110.648 40.25C110.182 40.4167 109.632 40.5667 108.998 40.7C108.398 40.8333 107.698 40.9333 106.898 41C106.298 42.0333 106.082 42.8 106.248 43.3C106.282 43.5333 106.415 43.7 106.648 43.8C106.882 43.9 107.132 43.9833 107.398 44.05C107.698 44.0833 107.982 44.1 108.248 44.1C108.548 44.0667 108.782 44.0333 108.948 44ZM124.021 40.35C123.821 40.35 123.638 40.2333 123.471 40C123.105 39.4667 122.738 39.2167 122.371 39.25C122.005 39.25 121.655 39.4 121.321 39.7C120.988 39.9667 120.688 40.3333 120.421 40.8C120.188 41.2333 120.005 41.6167 119.871 41.95C119.738 42.35 119.705 42.6333 119.771 42.8C119.838 42.9667 119.955 43.0667 120.121 43.1C120.288 43.1 120.505 43.05 120.771 42.95C121.038 42.85 121.305 42.7167 121.571 42.55C121.871 42.3833 122.155 42.2 122.421 42C122.688 41.7667 122.888 41.6 123.021 41.5C123.388 41.1333 123.721 40.75 124.021 40.35ZM117.921 39.95C118.221 39.45 118.588 39 119.021 38.6C119.488 38.1667 119.971 37.8333 120.471 37.6C121.005 37.3667 121.555 37.2667 122.121 37.3C122.688 37.3333 123.238 37.5667 123.771 38C123.938 38.1667 124.088 38.3333 124.221 38.5C124.388 38.6333 124.555 38.8167 124.721 39.05C124.721 39.0167 124.721 39 124.721 39C124.755 38.9667 124.771 38.9333 124.771 38.9C124.771 38.6 124.921 38.3667 125.221 38.2C125.521 38.0333 125.855 37.95 126.221 37.95C126.588 37.95 126.921 38.05 127.221 38.25C127.521 38.45 127.671 38.7833 127.671 39.25C127.471 40.2833 127.488 41.0833 127.721 41.65C127.855 42.0167 128.088 42.2333 128.421 42.3C128.755 42.3667 129.138 42.35 129.571 42.25C130.005 42.1167 130.455 41.9167 130.921 41.65C131.421 41.3833 131.888 41.1167 132.321 40.85C132.755 40.55 133.138 40.2667 133.471 40C133.805 39.7333 134.038 39.55 134.171 39.45C134.338 39.3167 134.521 39.2667 134.721 39.3C134.955 39.3 135.138 39.3833 135.271 39.55C135.438 39.7167 135.505 39.9167 135.471 40.15C135.438 40.35 135.338 40.5333 135.171 40.7C134.305 41.4333 133.421 42.0667 132.521 42.6C131.621 43.1333 130.788 43.5 130.021 43.7C129.688 43.8 129.321 43.9 128.921 44C128.521 44.0667 128.105 44.1 127.671 44.1C127.271 44.0667 126.888 44 126.521 43.9C126.155 43.7667 125.821 43.55 125.521 43.25C125.188 42.8833 124.955 42.4333 124.821 41.9L124.071 42.65C123.738 42.95 123.388 43.2333 123.021 43.5C122.655 43.7667 122.255 44 121.821 44.2C120.655 44.8 119.688 45.0667 118.921 45C118.188 44.9333 117.671 44.6667 117.371 44.2C117.038 43.7333 116.921 43.1167 117.021 42.35C117.121 41.55 117.421 40.75 117.921 39.95ZM134.039 39.65C134.373 39.0833 134.823 38.5 135.389 37.9C135.989 37.3 136.623 36.8167 137.289 36.45C137.756 36.1833 138.256 36 138.789 35.9C139.323 35.8 139.823 35.8 140.289 35.9C140.789 36 141.206 36.2167 141.539 36.55C141.906 36.8833 142.156 37.35 142.289 37.95C142.356 38.1833 142.323 38.3833 142.189 38.55C142.056 38.7167 141.889 38.8333 141.689 38.9C141.456 38.9667 141.256 38.9333 141.089 38.8C140.923 38.6667 140.806 38.5 140.739 38.3C140.639 37.7667 140.439 37.5333 140.139 37.6C139.839 37.6333 139.506 37.7667 139.139 38C138.673 38.3 138.223 38.6833 137.789 39.15C137.389 39.5833 137.056 40.0167 136.789 40.45C135.923 41.8833 135.606 42.9 135.839 43.5C136.106 44.0667 137.073 44.2333 138.739 44C139.573 43.8667 140.456 43.65 141.389 43.35C142.323 43.05 143.239 42.7 144.139 42.3C145.039 41.8667 145.889 41.4167 146.689 40.95C147.489 40.45 148.156 39.95 148.689 39.45C148.856 39.2833 149.039 39.2167 149.239 39.25C149.473 39.25 149.673 39.3333 149.839 39.5C150.173 39.9 150.156 40.2833 149.789 40.65C149.189 41.1833 148.456 41.7167 147.589 42.25C146.723 42.7833 145.789 43.2833 144.789 43.75C143.823 44.1833 142.823 44.5667 141.789 44.9C140.789 45.2 139.856 45.4167 138.989 45.55C137.823 45.7167 136.756 45.75 135.789 45.65C134.856 45.55 134.139 45.2667 133.639 44.8C133.106 44.3333 132.856 43.6833 132.889 42.85C132.889 42.0167 133.273 40.95 134.039 39.65ZM160.041 19.55C160.075 19.4833 160.291 19.4333 160.691 19.4C161.091 19.3333 161.475 19.3167 161.841 19.35C162.241 19.35 162.558 19.4333 162.791 19.6C163.025 19.7667 162.991 20.05 162.691 20.45C161.825 21.5833 160.691 23.2833 159.291 25.55L159.241 25.6C158.675 26.5667 158.075 27.5833 157.441 28.65C156.841 29.6833 156.241 30.7667 155.641 31.9C155.241 32.6333 154.875 33.2833 154.541 33.85C154.241 34.4167 153.958 34.9833 153.691 35.55C152.858 37.05 152.041 38.5333 151.241 40C150.475 41.4667 149.758 42.8667 149.091 44.2C149.925 43.2667 150.675 42.4667 151.341 41.8C152.075 41.1 152.858 40.5 153.691 40C154.525 39.5 155.275 39.2333 155.941 39.2C156.608 39.1667 157.125 39.4833 157.491 40.15C157.891 40.7833 157.991 41.9 157.791 43.5C157.691 44.3 157.658 44.8833 157.691 45.25C157.758 45.6167 157.908 45.8167 158.141 45.85C158.408 45.8833 158.775 45.7833 159.241 45.55C159.708 45.2833 160.325 44.9333 161.091 44.5C161.658 44.1333 162.258 43.75 162.891 43.35C163.525 42.95 164.125 42.5167 164.691 42.05C165.358 41.55 165.958 41.0667 166.491 40.6C167.025 40.1333 167.425 39.75 167.691 39.45C167.825 39.2833 167.991 39.2 168.191 39.2C168.425 39.1667 168.625 39.2333 168.791 39.4C168.958 39.5667 169.041 39.7667 169.041 40C169.075 40.2 169.008 40.3833 168.841 40.55C168.541 40.8833 168.108 41.3 167.541 41.8C166.975 42.2667 166.341 42.7667 165.641 43.3C165.075 43.7667 164.458 44.2333 163.791 44.7C163.158 45.1333 162.508 45.5333 161.841 45.9C160.975 46.4 160.091 46.8333 159.191 47.2C158.291 47.5333 157.491 47.6667 156.791 47.6C156.091 47.5 155.558 47.1333 155.191 46.5C154.825 45.8333 154.758 44.75 154.991 43.25C155.225 41.75 155.141 41.0667 154.741 41.2C154.341 41.3 153.575 41.8833 152.441 42.95C151.675 43.7167 150.808 44.6667 149.841 45.8C148.875 46.9 147.808 48.2333 146.641 49.8C146.541 49.9667 146.358 50.0667 146.091 50.1C145.825 50.1333 145.575 50.1167 145.341 50.05C145.075 49.9833 144.858 49.8667 144.691 49.7C144.525 49.5 144.475 49.2667 144.541 49C144.775 48.2 145.125 47.2667 145.591 46.2C146.025 45.1333 146.541 43.9833 147.141 42.75C147.708 41.4833 148.341 40.1667 149.041 38.8C149.741 37.4 150.458 36 151.191 34.6C151.991 33.0667 152.808 31.55 153.641 30.05C154.508 28.5167 155.325 27.0833 156.091 25.75C156.858 24.4167 157.575 23.2167 158.241 22.15C158.941 21.0833 159.541 20.2167 160.041 19.55ZM175.136 32.85L173.936 33.75C173.702 33.9167 173.436 34.0333 173.136 34.1C172.869 34.1667 172.636 34.1833 172.436 34.15C172.236 34.0833 172.102 33.95 172.036 33.75C172.002 33.55 172.102 33.25 172.336 32.85L172.736 32.1C172.969 31.7 173.286 31.4667 173.686 31.4C174.119 31.3 174.502 31.3167 174.836 31.45C175.202 31.5833 175.436 31.7833 175.536 32.05C175.669 32.3167 175.536 32.5833 175.136 32.85ZM172.636 36.75C171.902 37.7167 171.136 38.8333 170.336 40.1C169.569 41.3333 168.986 42.5 168.586 43.6C168.386 44.1667 168.302 44.5833 168.336 44.85C168.402 45.0833 168.552 45.2167 168.786 45.25C169.019 45.2833 169.302 45.2333 169.636 45.1C169.969 44.9333 170.336 44.75 170.736 44.55C171.436 44.15 172.186 43.6667 172.986 43.1C173.786 42.5333 174.536 41.9833 175.236 41.45C175.936 40.9167 176.519 40.45 176.986 40.05C177.452 39.65 177.686 39.45 177.686 39.45C177.852 39.3167 178.036 39.2667 178.236 39.3C178.436 39.3 178.619 39.3833 178.786 39.55C178.952 39.7167 179.019 39.9167 178.986 40.15C178.952 40.35 178.852 40.5333 178.686 40.7C177.952 41.3 177.186 41.9 176.386 42.5C175.719 43 174.952 43.5333 174.086 44.1C173.252 44.6667 172.419 45.1667 171.586 45.6C170.919 45.9333 170.186 46.2167 169.386 46.45C168.586 46.65 167.886 46.7 167.286 46.6C166.686 46.4667 166.252 46.1333 165.986 45.6C165.719 45.0333 165.802 44.15 166.236 42.95C166.502 42.2167 166.752 41.55 166.986 40.95C167.219 40.3167 167.469 39.7333 167.736 39.2C168.036 38.6333 168.352 38.0833 168.686 37.55C169.052 37.0167 169.486 36.4333 169.986 35.8C170.119 35.5667 170.386 35.4167 170.786 35.35C171.219 35.25 171.619 35.2333 171.986 35.3C172.352 35.3667 172.619 35.5333 172.786 35.8C172.986 36.0333 172.936 36.35 172.636 36.75ZM178.795 37.85C178.995 37.5833 179.279 37.4167 179.645 37.35C180.045 37.25 180.412 37.25 180.745 37.35C181.079 37.4167 181.312 37.5833 181.445 37.85C181.579 38.0833 181.512 38.4 181.245 38.8C180.579 39.7333 179.845 40.8167 179.045 42.05C178.279 43.2833 177.612 44.4667 177.045 45.6C176.679 46.4 176.395 47.0667 176.195 47.6C176.495 47.3333 176.829 47.0167 177.195 46.65C177.562 46.25 177.962 45.8167 178.395 45.35C178.962 44.75 179.562 44.1167 180.195 43.45C180.862 42.7833 181.529 42.15 182.195 41.55C182.895 40.9167 183.579 40.3333 184.245 39.8C184.912 39.2667 185.545 38.8167 186.145 38.45C186.179 38.4167 186.212 38.4 186.245 38.4C186.279 38.3667 186.312 38.3333 186.345 38.3C186.879 38.0333 187.362 37.85 187.795 37.75C188.562 37.5833 189.129 37.7167 189.495 38.15C189.862 38.5833 190.129 39.1833 190.295 39.95C190.362 40.2167 190.412 40.5 190.445 40.8C190.479 41.1 190.512 41.4 190.545 41.7C190.612 42.1333 190.662 42.55 190.695 42.95C190.762 43.35 190.845 43.7 190.945 44C191.112 44.5667 191.362 44.9167 191.695 45.05C192.029 45.1833 192.395 45.2 192.795 45.1C193.195 44.9667 193.595 44.7667 193.995 44.5C194.395 44.2 194.745 43.9333 195.045 43.7C195.612 43.2333 196.279 42.6667 197.045 42C197.812 41.3 198.679 40.45 199.645 39.45C199.812 39.2833 199.995 39.2 200.195 39.2C200.429 39.2 200.629 39.2833 200.795 39.45C200.962 39.6167 201.045 39.8167 201.045 40.05C201.045 40.25 200.962 40.4333 200.795 40.6C199.862 41.5667 198.995 42.4 198.195 43.1C197.429 43.7667 196.712 44.35 196.045 44.85C195.545 45.2167 194.945 45.6 194.245 46C193.579 46.4 192.895 46.7 192.195 46.9C191.529 47.0667 190.879 47.0667 190.245 46.9C189.612 46.7333 189.095 46.2667 188.695 45.5C188.462 45.0333 188.279 44.55 188.145 44.05C188.045 43.5167 187.945 42.9667 187.845 42.4C187.779 42.1333 187.729 41.8333 187.695 41.5C187.662 41.1333 187.595 40.8167 187.495 40.55C187.395 40.2833 187.245 40.1 187.045 40C186.879 39.9 186.629 39.9667 186.295 40.2C185.795 40.5667 185.245 41 184.645 41.5C184.079 41.9667 183.495 42.4833 182.895 43.05C182.329 43.6167 181.745 44.2 181.145 44.8C180.579 45.3667 180.045 45.9167 179.545 46.45C179.079 46.9167 178.645 47.3667 178.245 47.8C177.845 48.2 177.479 48.55 177.145 48.85V48.9C176.745 49.3 176.312 49.6167 175.845 49.85C175.379 50.0833 174.945 50.1667 174.545 50.1C174.312 50.1 174.112 50.0667 173.945 50C173.779 49.9 173.645 49.8 173.545 49.7C173.412 49.5667 173.329 49.45 173.295 49.35C173.062 48.8833 173.062 48.2833 173.295 47.55C173.495 46.7833 173.829 45.9333 174.295 45C174.895 43.8333 175.629 42.6 176.495 41.3C177.329 39.9667 178.095 38.8167 178.795 37.85ZM205.818 38.9C205.885 39.0333 205.935 39.1167 205.968 39.15C206.235 38.7833 206.418 38.45 206.518 38.15C206.585 37.9833 206.768 37.8667 207.068 37.8C207.401 37.7 207.751 37.6667 208.118 37.7C208.485 37.7 208.801 37.7833 209.068 37.95C209.335 38.0833 209.451 38.3167 209.418 38.65C209.351 39.45 209.118 40.4833 208.718 41.75C208.351 42.9833 207.868 44.3833 207.268 45.95C207.868 45.6167 208.435 45.3167 208.968 45.05C209.501 44.7833 210.001 44.5167 210.468 44.25C212.135 43.3167 213.468 42.4833 214.468 41.75C215.501 40.9833 216.401 40.2167 217.168 39.45C217.335 39.2833 217.518 39.2167 217.718 39.25C217.918 39.2833 218.101 39.3833 218.268 39.55C218.668 39.9167 218.685 40.2833 218.318 40.65C217.518 41.4167 216.585 42.2 215.518 43C214.485 43.7667 213.085 44.65 211.318 45.65C210.651 46.0167 209.901 46.4333 209.068 46.9C208.235 47.3333 207.335 47.7833 206.368 48.25C205.635 49.95 204.801 51.7333 203.868 53.6C202.968 55.4667 201.985 57.3 200.918 59.1C199.885 60.9333 198.785 62.6667 197.618 64.3C196.418 65.9667 195.201 67.4167 193.968 68.65C192.701 69.8833 191.418 70.7333 190.118 71.2C188.785 71.6667 187.551 71.8333 186.418 71.7C185.251 71.5667 184.235 71.1667 183.368 70.5C182.468 69.8333 181.835 68.9667 181.468 67.9C181.101 66.8667 181.051 65.6667 181.318 64.3C181.585 62.9333 182.268 61.5 183.368 60C184.468 58.5333 185.818 57.2333 187.418 56.1C188.985 54.9667 190.685 53.9333 192.518 53C194.318 52.0333 196.168 51.15 198.068 50.35C199.935 49.5167 201.701 48.7 203.368 47.9C204.268 45.7333 205.001 43.7833 205.568 42.05C205.168 42.45 204.685 42.85 204.118 43.25C202.985 44.05 201.935 44.5167 200.968 44.65C200.035 44.75 199.301 44.6167 198.768 44.25C198.235 43.85 197.985 43.25 198.018 42.45C198.051 41.65 198.501 40.75 199.368 39.75C199.801 39.25 200.335 38.7833 200.968 38.35C201.601 37.9167 202.268 37.6667 202.968 37.6C203.501 37.5333 204.001 37.6 204.468 37.8C204.968 38 205.418 38.3667 205.818 38.9ZM191.418 67.45C192.518 66.35 193.585 65.1 194.618 63.7C195.618 62.3333 196.585 60.8833 197.518 59.35C198.451 57.85 199.318 56.3167 200.118 54.75C200.918 53.1833 201.651 51.6667 202.318 50.2C200.818 50.9333 199.218 51.6833 197.518 52.45C195.785 53.1833 194.101 53.9833 192.468 54.85C190.801 55.75 189.268 56.7333 187.868 57.8C186.435 58.9 185.251 60.15 184.318 61.55C183.218 63.2167 182.685 64.7333 182.718 66.1C182.751 67.5 183.168 68.55 183.968 69.25C184.768 69.95 185.835 70.2 187.168 70C188.501 69.8 189.918 68.95 191.418 67.45ZM201.668 41.25C201.201 41.9167 200.951 42.3667 200.918 42.6C200.885 42.8333 200.968 42.95 201.168 42.95C201.368 42.9167 201.651 42.8 202.018 42.6C202.385 42.4 202.751 42.1833 203.118 41.95C203.918 41.35 204.601 40.75 205.168 40.15C205.135 40.0833 205.035 39.9667 204.868 39.8C204.735 39.6333 204.518 39.55 204.218 39.55C203.918 39.5167 203.551 39.6167 203.118 39.85C202.718 40.05 202.235 40.5167 201.668 41.25ZM242.697 19.5C242.83 19.2667 243.064 19.1167 243.397 19.05C243.764 18.9833 244.114 19 244.447 19.1C244.78 19.1667 245.03 19.3167 245.197 19.55C245.364 19.7833 245.314 20.0833 245.047 20.45C243.914 22.0167 242.747 23.8333 241.547 25.9C240.38 27.9667 239.23 30.1167 238.097 32.35C236.964 34.55 235.88 36.7333 234.847 38.9C233.814 41.0667 232.897 43.05 232.097 44.85C231.764 45.55 231.514 46.1833 231.347 46.75C231.18 47.2833 231.147 47.7167 231.247 48.05C231.314 48.35 231.547 48.5167 231.947 48.55C232.38 48.55 233.03 48.3667 233.897 48C234.73 47.6667 235.63 47.2 236.597 46.6C237.564 46 238.53 45.3333 239.497 44.6C240.464 43.8333 241.397 43.0167 242.297 42.15C243.197 41.25 243.997 40.35 244.697 39.45C244.83 39.2833 244.997 39.1833 245.197 39.15C245.43 39.1167 245.63 39.1833 245.797 39.35C245.964 39.4833 246.064 39.6667 246.097 39.9C246.13 40.1 246.08 40.2833 245.947 40.45C245.214 41.3833 244.364 42.3167 243.397 43.25C242.43 44.1833 241.43 45.05 240.397 45.85C239.397 46.65 238.38 47.3667 237.347 48C236.314 48.6333 235.364 49.1167 234.497 49.45C233.364 49.9167 232.364 50.1333 231.497 50.1C230.597 50.0333 229.914 49.7667 229.447 49.3C228.947 48.8 228.697 48.1167 228.697 47.25C228.664 46.3833 228.964 45.3667 229.597 44.2C230.43 42.3667 231.364 40.35 232.397 38.15C233.43 35.95 234.514 33.75 235.647 31.55C236.814 29.3167 237.98 27.15 239.147 25.05C240.347 22.95 241.53 21.1 242.697 19.5ZM249.788 37.95C249.521 38.0833 249.254 38.25 248.988 38.45C248.721 38.65 248.454 38.9333 248.188 39.3C249.021 39.1333 249.621 38.9667 249.988 38.8C250.521 38.6 250.871 38.4167 251.038 38.25C251.204 38.0833 251.254 37.95 251.188 37.85C251.121 37.75 250.954 37.7 250.688 37.7C250.421 37.7 250.121 37.7833 249.788 37.95ZM248.988 44C249.721 43.9 250.504 43.7167 251.338 43.45C252.204 43.1833 253.054 42.85 253.888 42.45C254.754 42.05 255.554 41.6 256.288 41.1C257.054 40.5667 257.721 40.0167 258.288 39.45C258.454 39.2833 258.638 39.2 258.838 39.2C259.071 39.1667 259.271 39.2333 259.438 39.4C259.804 39.8 259.804 40.1833 259.438 40.55C258.838 41.1833 258.104 41.7833 257.238 42.35C256.404 42.9167 255.521 43.4333 254.588 43.9C253.688 44.3333 252.754 44.7 251.788 45C250.854 45.3 249.971 45.5 249.138 45.6C248.738 45.6667 248.254 45.7167 247.688 45.75C247.154 45.75 246.621 45.7167 246.088 45.65C245.554 45.5833 245.071 45.45 244.637 45.25C244.171 45.0167 243.821 44.6833 243.587 44.25C243.387 43.8833 243.304 43.5 243.337 43.1C243.337 42.7 243.404 42.3 243.537 41.9C243.637 41.4667 243.787 41.0667 243.987 40.7C244.154 40.3 244.337 39.95 244.537 39.65C245.071 38.8833 245.704 38.1833 246.438 37.55C247.171 36.8833 248.004 36.4167 248.938 36.15C249.871 35.9167 250.671 35.9167 251.338 36.15C252.004 36.3833 252.454 36.7333 252.688 37.2C252.921 37.6667 252.888 38.2 252.588 38.8C252.321 39.3667 251.688 39.85 250.688 40.25C250.221 40.4167 249.671 40.5667 249.038 40.7C248.438 40.8333 247.738 40.9333 246.938 41C246.338 42.0333 246.121 42.8 246.288 43.3C246.321 43.5333 246.454 43.7 246.688 43.8C246.921 43.9 247.171 43.9833 247.438 44.05C247.738 44.0833 248.021 44.1 248.288 44.1C248.588 44.0667 248.821 44.0333 248.988 44ZM261.511 39.5C262.144 40.1667 262.744 40.8333 263.311 41.5C263.877 42.1333 264.344 42.9 264.711 43.8C264.777 43.7333 264.827 43.7 264.861 43.7C264.927 43.6667 264.994 43.6333 265.061 43.6C267.394 42.2667 269.161 40.8833 270.361 39.45C270.494 39.2833 270.661 39.2 270.861 39.2C271.094 39.1667 271.294 39.2167 271.461 39.35C271.627 39.5167 271.727 39.7167 271.761 39.95C271.794 40.15 271.727 40.3333 271.561 40.5C270.227 42.1 268.311 43.6 265.811 45C265.711 45.0667 265.594 45.1333 265.461 45.2C265.361 45.2667 265.244 45.3333 265.111 45.4C265.177 46 265.111 46.65 264.911 47.35C264.744 48.0167 264.411 48.7333 263.911 49.5C263.144 50.6333 262.227 51.4667 261.161 52C260.161 52.5 259.177 52.7667 258.211 52.8C257.244 52.8 256.377 52.6667 255.611 52.4C254.844 52.1333 254.244 51.7667 253.811 51.3C253.344 50.8 253.144 50.2667 253.211 49.7C253.277 49.1333 253.644 48.5833 254.311 48.05C254.977 47.4833 256.044 47 257.511 46.6C259.244 46.1333 260.744 45.6167 262.011 45.05C261.844 44.2167 261.511 43.4833 261.011 42.85C260.511 42.2167 260.027 41.6667 259.561 41.2C259.227 40.8667 258.927 40.5167 258.661 40.15C258.394 39.75 258.227 39.3667 258.161 39C258.061 38.6 258.094 38.2 258.261 37.8C258.427 37.4 258.761 37.0167 259.261 36.65C259.494 36.4833 259.777 36.3333 260.111 36.2C260.444 36.0667 260.794 35.9833 261.161 35.95C261.527 35.8833 261.877 35.9 262.211 36C262.544 36.0667 262.811 36.25 263.011 36.55C263.244 36.8833 263.244 37.2833 263.011 37.75C262.811 38.1833 262.311 38.7667 261.511 39.5ZM259.761 50.15C260.327 49.7833 260.811 49.2833 261.211 48.65C261.644 48.05 261.911 47.4333 262.011 46.8C260.711 47.3333 259.344 47.7667 257.911 48.1C256.311 48.5333 255.361 48.9833 255.061 49.45C254.761 49.9167 254.844 50.3 255.311 50.6C255.744 50.8667 256.411 51 257.311 51C258.177 51 258.994 50.7167 259.761 50.15ZM273.571 39.5C274.204 40.1667 274.804 40.8333 275.371 41.5C275.938 42.1333 276.404 42.9 276.771 43.8C276.838 43.7333 276.888 43.7 276.921 43.7C276.988 43.6667 277.054 43.6333 277.121 43.6C279.454 42.2667 281.221 40.8833 282.421 39.45C282.554 39.2833 282.721 39.2 282.921 39.2C283.154 39.1667 283.354 39.2167 283.521 39.35C283.688 39.5167 283.788 39.7167 283.821 39.95C283.854 40.15 283.788 40.3333 283.621 40.5C282.288 42.1 280.371 43.6 277.871 45C277.771 45.0667 277.654 45.1333 277.521 45.2C277.421 45.2667 277.304 45.3333 277.171 45.4C277.238 46 277.171 46.65 276.971 47.35C276.804 48.0167 276.471 48.7333 275.971 49.5C275.204 50.6333 274.288 51.4667 273.221 52C272.221 52.5 271.238 52.7667 270.271 52.8C269.304 52.8 268.438 52.6667 267.671 52.4C266.904 52.1333 266.304 51.7667 265.871 51.3C265.404 50.8 265.204 50.2667 265.271 49.7C265.338 49.1333 265.704 48.5833 266.371 48.05C267.038 47.4833 268.104 47 269.571 46.6C271.304 46.1333 272.804 45.6167 274.071 45.05C273.904 44.2167 273.571 43.4833 273.071 42.85C272.571 42.2167 272.088 41.6667 271.621 41.2C271.288 40.8667 270.988 40.5167 270.721 40.15C270.454 39.75 270.288 39.3667 270.221 39C270.121 38.6 270.154 38.2 270.321 37.8C270.488 37.4 270.821 37.0167 271.321 36.65C271.554 36.4833 271.838 36.3333 272.171 36.2C272.504 36.0667 272.854 35.9833 273.221 35.95C273.588 35.8833 273.938 35.9 274.271 36C274.604 36.0667 274.871 36.25 275.071 36.55C275.304 36.8833 275.304 37.2833 275.071 37.75C274.871 38.1833 274.371 38.7667 273.571 39.5ZM271.821 50.15C272.388 49.7833 272.871 49.2833 273.271 48.65C273.704 48.05 273.971 47.4333 274.071 46.8C272.771 47.3333 271.404 47.7667 269.971 48.1C268.371 48.5333 267.421 48.9833 267.121 49.45C266.821 49.9167 266.904 50.3 267.371 50.6C267.804 50.8667 268.471 51 269.371 51C270.238 51 271.054 50.7167 271.821 50.15ZM286.732 38.75C286.365 38.9833 286.015 39.2667 285.682 39.6C285.382 39.9333 285.115 40.2833 284.882 40.65C284.482 41.25 284.232 41.85 284.132 42.45C283.998 43.1167 284.032 43.5667 284.232 43.8C284.432 44 284.715 44.0833 285.082 44.05C285.448 43.9833 285.832 43.8333 286.232 43.6C286.665 43.3333 287.032 43.0333 287.332 42.7C287.732 42.2 288.048 41.6833 288.282 41.15C288.182 41.0833 288.082 41.0167 287.982 40.95C287.882 40.85 287.798 40.7667 287.732 40.7C287.198 40.1667 286.865 39.5167 286.732 38.75ZM286.382 36.65C286.582 36.6167 286.798 36.65 287.032 36.75C287.265 36.45 287.532 36.3 287.832 36.3C288.132 36.2333 288.415 36.2833 288.682 36.45C288.948 36.6167 289.198 36.85 289.432 37.15C289.665 37.45 289.865 37.8 290.032 38.2C290.165 38.5333 290.232 38.8833 290.232 39.25C290.265 39.6167 290.248 39.9833 290.182 40.35L290.632 40.5C291.398 40.6333 292.232 40.65 293.132 40.55C293.632 40.4833 294.098 40.35 294.532 40.15C294.998 39.95 295.365 39.7167 295.632 39.45C295.798 39.2833 295.982 39.2167 296.182 39.25C296.415 39.25 296.615 39.3333 296.782 39.5C296.948 39.6667 297.032 39.85 297.032 40.05C297.032 40.25 296.948 40.4333 296.782 40.6C296.348 41 295.832 41.3333 295.232 41.6C294.632 41.8333 293.998 42 293.332 42.1C292.265 42.2667 291.265 42.25 290.332 42.05C290.065 41.9833 289.848 41.9167 289.682 41.85C289.415 42.4833 289.032 43.1 288.532 43.7C287.965 44.3667 287.215 44.8833 286.282 45.25C285.382 45.5833 284.515 45.7167 283.682 45.65C282.848 45.5833 282.182 45.2833 281.682 44.75C281.148 44.1833 280.998 43.3167 281.232 42.15C281.398 41.2833 281.715 40.5 282.182 39.8C282.648 39.0667 283.232 38.4167 283.932 37.85C284.665 37.25 285.482 36.85 286.382 36.65ZM288.632 39.35C288.632 39.15 288.598 38.95 288.532 38.75C288.498 38.6167 288.415 38.45 288.282 38.25C288.282 38.3167 288.282 38.3667 288.282 38.4C288.315 38.4333 288.332 38.4833 288.332 38.55C288.365 38.8167 288.465 39.0833 288.632 39.35ZM296.715 37.85C296.915 37.5833 297.199 37.4167 297.565 37.35C297.965 37.25 298.332 37.25 298.665 37.35C298.999 37.4167 299.232 37.5833 299.365 37.85C299.499 38.0833 299.432 38.4 299.165 38.8C298.499 39.7333 297.765 40.8167 296.965 42.05C296.199 43.2833 295.532 44.4667 294.965 45.6C294.599 46.4 294.315 47.0667 294.115 47.6C294.415 47.3333 294.749 47.0167 295.115 46.65C295.482 46.25 295.882 45.8167 296.315 45.35C296.882 44.75 297.482 44.1167 298.115 43.45C298.782 42.7833 299.449 42.15 300.115 41.55C300.815 40.9167 301.499 40.3333 302.165 39.8C302.832 39.2667 303.465 38.8167 304.065 38.45C304.099 38.4167 304.132 38.4 304.165 38.4C304.199 38.3667 304.232 38.3333 304.265 38.3C304.799 38.0333 305.282 37.85 305.715 37.75C306.482 37.5833 307.049 37.7167 307.415 38.15C307.782 38.5833 308.049 39.1833 308.215 39.95C308.282 40.2167 308.332 40.5 308.365 40.8C308.399 41.1 308.432 41.4 308.465 41.7C308.532 42.1333 308.582 42.55 308.615 42.95C308.682 43.35 308.765 43.7 308.865 44C309.032 44.5667 309.282 44.9167 309.615 45.05C309.949 45.1833 310.315 45.2 310.715 45.1C311.115 44.9667 311.515 44.7667 311.915 44.5C312.315 44.2 312.665 43.9333 312.965 43.7C313.532 43.2333 314.199 42.6667 314.965 42C315.732 41.3 316.599 40.45 317.565 39.45C317.732 39.2833 317.915 39.2 318.115 39.2C318.349 39.2 318.549 39.2833 318.715 39.45C318.882 39.6167 318.965 39.8167 318.965 40.05C318.965 40.25 318.882 40.4333 318.715 40.6C317.782 41.5667 316.915 42.4 316.115 43.1C315.349 43.7667 314.632 44.35 313.965 44.85C313.465 45.2167 312.865 45.6 312.165 46C311.499 46.4 310.815 46.7 310.115 46.9C309.449 47.0667 308.799 47.0667 308.165 46.9C307.532 46.7333 307.015 46.2667 306.615 45.5C306.382 45.0333 306.199 44.55 306.065 44.05C305.965 43.5167 305.865 42.9667 305.765 42.4C305.699 42.1333 305.649 41.8333 305.615 41.5C305.582 41.1333 305.515 40.8167 305.415 40.55C305.315 40.2833 305.165 40.1 304.965 40C304.799 39.9 304.549 39.9667 304.215 40.2C303.715 40.5667 303.165 41 302.565 41.5C301.999 41.9667 301.415 42.4833 300.815 43.05C300.249 43.6167 299.665 44.2 299.065 44.8C298.499 45.3667 297.965 45.9167 297.465 46.45C296.999 46.9167 296.565 47.3667 296.165 47.8C295.765 48.2 295.399 48.55 295.065 48.85V48.9C294.665 49.3 294.232 49.6167 293.765 49.85C293.299 50.0833 292.865 50.1667 292.465 50.1C292.232 50.1 292.032 50.0667 291.865 50C291.699 49.9 291.565 49.8 291.465 49.7C291.332 49.5667 291.249 49.45 291.215 49.35C290.982 48.8833 290.982 48.2833 291.215 47.55C291.415 46.7833 291.749 45.9333 292.215 45C292.815 43.8333 293.549 42.6 294.415 41.3C295.249 39.9667 296.015 38.8167 296.715 37.85Z" fill="#F1523C"/>
</svg>
