<svg width="50" height="50" viewBox="0 0 50 50" fill="none" xmlns="http://www.w3.org/2000/svg">
<circle cx="25" cy="25" r="25" fill="#F1523C"/>
<path d="M36.697 10.7165C36.3491 10.7317 36.0104 10.8285 35.7051 10.9508C35.4028 11.0723 33.6626 11.815 31.0929 12.9137C28.5232 14.0124 25.1827 15.4431 21.8714 16.8618C15.2487 19.6992 8.74077 22.491 8.74077 22.491L8.78821 22.4729C8.78821 22.4729 8.39542 22.6042 7.99719 22.8816C7.79808 23.0204 7.58386 23.1995 7.40846 23.4606C7.23307 23.7217 7.10484 24.0918 7.15316 24.4832C7.32289 25.858 8.74775 26.248 8.74775 26.248L8.75333 26.2508L15.1121 28.4271C15.2743 28.968 17.0408 34.864 17.4294 36.1127C17.644 36.803 17.8449 37.2012 18.0544 37.4729C18.1592 37.6088 18.2691 37.714 18.3906 37.791C18.4389 37.8215 18.4896 37.8445 18.5399 37.8649C18.541 37.8654 18.5416 37.8644 18.5427 37.8649C18.5488 37.8676 18.5547 37.8679 18.5608 37.8705L18.5441 37.8663C18.5557 37.871 18.5673 37.8789 18.5789 37.883C18.6016 37.891 18.6155 37.8907 18.6445 37.897C19.3728 38.1513 19.9754 37.6793 19.9754 37.6793L20.0005 37.6598L23.9068 34.0368L30.2461 38.9796L30.3256 39.0158C31.4352 39.5085 32.4387 39.2337 32.9944 38.7815C33.5501 38.3293 33.7687 37.7463 33.7687 37.7463L33.7924 37.6849L38.4506 13.4062C38.5698 12.863 38.5867 12.3935 38.4743 11.9692C38.3619 11.545 38.0888 11.1762 37.7461 10.9718C37.4034 10.7673 37.0449 10.7012 36.697 10.7165ZM36.7346 12.1687C36.8759 12.1622 36.9806 12.1784 37.0137 12.198C37.0467 12.2177 37.0615 12.2151 37.0932 12.3348C37.1249 12.4544 37.142 12.7063 37.0555 13.1007L37.0527 13.109L32.421 37.2469C32.4101 37.2712 32.3135 37.4945 32.0932 37.6738C31.8684 37.8567 31.6183 37.9995 30.9548 37.7212L24.0226 32.3152L23.8273 32.1618L23.8231 32.166L21.75 30.6104L33.4004 16.9037C33.4899 16.7986 33.5471 16.6699 33.565 16.533C33.5829 16.3962 33.5608 16.2571 33.5013 16.1325C33.4418 16.008 33.3475 15.9033 33.2299 15.8312C33.1122 15.7591 32.9761 15.7226 32.8382 15.7262C32.7033 15.7297 32.5723 15.7713 32.4601 15.8462L15.6018 27.085L9.23324 24.9045C9.23324 24.9045 8.60084 24.5526 8.57057 24.3074C8.56889 24.2938 8.56143 24.3061 8.59429 24.2572C8.62715 24.2083 8.70975 24.1257 8.81332 24.0535C9.02045 23.9092 9.25696 23.8219 9.25696 23.8219L9.28067 23.8136L9.30439 23.8038C9.30439 23.8038 15.8126 21.0119 22.435 18.1746C25.7461 16.756 29.086 15.3263 31.6551 14.2279C34.2236 13.1298 36.0794 12.3393 36.2366 12.2762C36.4155 12.2045 36.5933 12.1753 36.7346 12.1687ZM29.0086 19.8641L20.1735 30.2589L20.1693 30.2631C20.1556 30.2797 20.1425 30.2969 20.1303 30.3147C20.1163 30.334 20.1032 30.354 20.0912 30.3747C20.0416 30.4589 20.0098 30.5524 19.9977 30.6495C19.9977 30.6514 19.9977 30.6532 19.9977 30.6551L18.8468 35.8309C18.8277 35.7749 18.8143 35.7545 18.7938 35.6886V35.6872C18.4282 34.5125 16.7615 28.952 16.531 28.183L29.0086 19.8641ZM21.171 31.9623L22.7586 33.1537L20.426 35.3161L21.171 31.9623Z" fill="#FFFFFE"/>
</svg>
