<svg width="1015" height="139" viewBox="0 0 1015 139" fill="none" xmlns="http://www.w3.org/2000/svg">
<path d="M5.97656 27.3477H22.4414V53.0117C22.4414 58.5195 23.418 62.4453 25.3711 64.7891C27.3633 67.0938 30.7422 68.2461 35.5078 68.2461C41.0938 68.2461 46.0156 67.7969 50.2734 66.8984V27.3477H66.7383V116H50.2734V82.0156C42.8125 83.3047 36.9336 83.9492 32.6367 83.9492C29.4727 83.9492 26.6016 83.6953 24.0234 83.1875C21.4844 82.6797 19.0625 81.8008 16.7578 80.5508C14.4922 79.3008 12.5781 77.6797 11.0156 75.6875C9.45312 73.6953 8.22266 71.1367 7.32422 68.0117C6.42578 64.8867 5.97656 61.2734 5.97656 57.1719V27.3477ZM124.336 64.0273C124.336 64.0273 119.16 64.0273 108.809 64.0273C108.809 64.0273 108.809 81.3516 108.809 116C108.809 116 103.496 116 92.8711 116C92.8711 116 92.8711 98.6758 92.8711 64.0273C92.8711 64.0273 87.7148 64.0273 77.4023 64.0273C77.4023 64.0273 77.4023 59.1836 77.4023 49.4961C77.4023 49.4961 93.0469 49.4961 124.336 49.4961C124.336 49.4961 124.336 54.3398 124.336 64.0273ZM163.945 47.9727C170.273 47.9727 176.133 49.5352 181.523 52.6602C186.914 55.7852 191.172 60.043 194.297 65.4336C197.422 70.7852 198.984 76.6055 198.984 82.8945C198.984 89.1445 197.402 94.9453 194.238 100.297C191.113 105.609 186.836 109.828 181.406 112.953C175.977 116.039 170.078 117.582 163.711 117.582C157.305 117.582 151.367 116.039 145.898 112.953C140.469 109.828 136.172 105.609 133.008 100.297C129.844 94.9453 128.262 89.1445 128.262 82.8945C128.262 78.1289 129.18 73.5977 131.016 69.3008C132.891 64.9648 135.41 61.2539 138.574 58.168C141.777 55.043 145.586 52.5625 150 50.7266C154.414 48.8906 159.062 47.9727 163.945 47.9727ZM163.301 62.6211C158.145 62.6211 153.691 64.6133 149.941 68.5977C146.23 72.543 144.375 77.2695 144.375 82.7773C144.375 88.3242 146.25 93.0703 150 97.0156C153.75 100.961 158.262 102.934 163.535 102.934C168.848 102.934 173.398 100.98 177.188 97.0742C180.977 93.1289 182.871 88.4023 182.871 82.8945C182.871 77.1914 180.977 72.3867 177.188 68.4805C173.398 64.5742 168.77 62.6211 163.301 62.6211ZM275.039 78.4414C275.039 78.4414 275.039 73.6367 275.039 64.0273C275.039 64.0273 271.543 64.0273 264.551 64.0273C262.168 64.0273 260.234 64.7109 258.75 66.0781C257.266 67.4062 256.523 69.125 256.523 71.2344C256.523 73.3438 257.266 75.082 258.75 76.4492C260.234 77.7773 262.168 78.4414 264.551 78.4414H275.039ZM254.766 91.5078C250.391 89.9062 246.914 87.2695 244.336 83.5977C241.758 79.8867 240.469 75.7656 240.469 71.2344C240.469 65.1797 242.617 60.043 246.914 55.8242C251.211 51.6055 256.738 49.4961 263.496 49.4961H290.977V116C290.977 116 285.664 116 275.039 116C275.039 116 275.039 108.324 275.039 92.9727C275.039 92.9727 273.75 92.9727 271.172 92.9727C271.172 92.9727 266.484 100.648 257.109 116C257.109 116 250.723 116 237.949 116C237.949 116 243.555 107.836 254.766 91.5078ZM398.73 116C398.73 116 393.418 116 382.793 116C382.793 116 382.793 98.6758 382.793 64.0273C382.793 64.0273 373.027 64.0273 353.496 64.0273C353.496 64.0273 353.496 81.3516 353.496 116C353.496 116 348.184 116 337.559 116C337.559 116 337.559 93.832 337.559 49.4961H398.73C398.73 49.4961 398.73 71.6641 398.73 116ZM411.738 138.207C411.738 138.207 411.738 108.637 411.738 49.4961C411.738 49.4961 416.602 49.4961 426.328 49.4961C426.328 49.4961 426.328 52.1133 426.328 57.3477C431.602 51.0977 438.887 47.9727 448.184 47.9727C454.512 47.9727 460.195 49.457 465.234 52.4258C470.273 55.3555 474.199 59.457 477.012 64.7305C479.863 70.0039 481.289 75.9414 481.289 82.543C481.289 89.1836 479.863 95.1797 477.012 100.531C474.16 105.844 470.195 110.023 465.117 113.07C460.078 116.078 454.395 117.582 448.066 117.582C444.004 117.582 440.352 116.957 437.109 115.707C433.867 114.457 430.723 112.484 427.676 109.789V138.207H411.738ZM445.781 62.6211C440.391 62.6211 435.859 64.5742 432.188 68.4805C428.555 72.3477 426.738 77.1914 426.738 83.0117C426.738 88.6758 428.613 93.4219 432.363 97.25C436.113 101.039 440.742 102.934 446.25 102.934C451.602 102.934 456.094 101.02 459.727 97.1914C463.398 93.3242 465.234 88.5586 465.234 82.8945C465.234 77.0352 463.398 72.1914 459.727 68.3633C456.055 64.5352 451.406 62.6211 445.781 62.6211ZM556.816 89.8672C556.816 89.8672 539.648 89.8672 505.312 89.8672C506.289 93.8906 508.418 97.0742 511.699 99.418C514.98 101.762 518.984 102.934 523.711 102.934C526.992 102.934 529.727 102.445 531.914 101.469C534.102 100.453 536.23 98.7344 538.301 96.3125H555.703C554.766 99.3203 553.008 102.406 550.43 105.57C543.555 113.578 534.766 117.582 524.062 117.582C519.062 117.582 514.336 116.684 509.883 114.887C505.43 113.09 501.602 110.668 498.398 107.621C495.234 104.535 492.715 100.863 490.84 96.6055C488.965 92.3086 488.027 87.7773 488.027 83.0117C488.027 76.6055 489.57 70.7266 492.656 65.375C495.781 59.9844 500.02 55.7461 505.371 52.6602C510.762 49.5352 516.66 47.9727 523.066 47.9727C529.59 47.9727 535.469 49.5156 540.703 52.6016C545.938 55.6484 550.02 59.9062 552.949 65.375C555.918 70.8047 557.402 76.918 557.402 83.7148C557.402 85.9023 557.207 87.9531 556.816 89.8672ZM504.844 75.8047H541.699C540.684 71.5469 538.594 68.2852 535.43 66.0195C532.266 63.7539 528.223 62.6211 523.301 62.6211C518.535 62.6211 514.57 63.7539 511.406 66.0195C508.281 68.2461 506.094 71.5078 504.844 75.8047ZM638.438 131.82C638.438 131.82 634.629 131.82 627.012 131.82C627.012 131.82 625.898 126.547 623.672 116C623.672 116 607.305 116 574.57 116C574.57 116 573.457 121.273 571.23 131.82C571.23 131.82 567.383 131.82 559.688 131.82C559.688 131.82 559.688 121.703 559.688 101.469C559.688 101.469 563.105 101.469 569.941 101.469C569.941 101.469 577.324 84.1445 592.09 49.4961C592.09 49.4961 596.738 49.4961 606.035 49.4961C606.035 49.4961 613.438 66.8203 628.242 101.469C628.242 101.469 631.641 101.469 638.438 101.469C638.438 101.469 638.438 111.586 638.438 131.82ZM611.66 101.469C611.66 101.469 607.461 91.4688 599.062 71.4688C599.062 71.4688 594.863 81.4688 586.465 101.469C586.465 101.469 594.863 101.469 611.66 101.469ZM707.871 116C707.871 116 702.188 116 690.82 116C690.82 116 685.195 101.273 673.945 71.8203C673.945 71.8203 668.301 86.5469 657.012 116C657.012 116 651.328 116 639.961 116C639.961 116 649.199 93.832 667.676 49.4961C667.676 49.4961 671.836 49.4961 680.156 49.4961C680.156 49.4961 689.395 71.6641 707.871 116ZM777.949 49.4961C777.949 49.4961 777.949 71.6641 777.949 116C777.949 116 773.086 116 763.359 116C763.359 116 763.359 113.129 763.359 107.387C760.156 111.02 756.836 113.637 753.398 115.238C750 116.801 745.957 117.582 741.27 117.582C734.863 117.582 729.102 116.117 723.984 113.188C718.906 110.219 714.922 106.098 712.031 100.824C709.18 95.5508 707.754 89.6133 707.754 83.0117C707.754 76.332 709.199 70.3359 712.09 65.0234C714.98 59.6719 719.004 55.4922 724.16 52.4844C729.316 49.4766 735.137 47.9727 741.621 47.9727C746.426 47.9727 750.566 48.8125 754.043 50.4922C757.52 52.1328 760.625 54.7695 763.359 58.4023V49.4961H777.949ZM743.027 62.6211C737.48 62.6211 732.891 64.5742 729.258 68.4805C725.664 72.3867 723.867 77.3477 723.867 83.3633C723.867 89.1836 725.684 93.9102 729.316 97.543C732.988 101.137 737.734 102.934 743.555 102.934C749.336 102.934 753.984 101.098 757.5 97.4258C761.055 93.7539 762.832 88.9492 762.832 83.0117C762.832 76.9961 760.977 72.0938 757.266 68.3047C753.594 64.5156 748.848 62.6211 743.027 62.6211ZM828.633 49.4961C828.633 49.4961 828.633 54.3398 828.633 64.0273C828.633 64.0273 821.387 64.0273 806.895 64.0273C806.895 64.0273 806.895 81.3516 806.895 116C806.895 116 801.582 116 790.957 116C790.957 116 790.957 93.832 790.957 49.4961C790.957 49.4961 803.516 49.4961 828.633 49.4961ZM903.34 49.4961C903.34 49.4961 903.34 71.6641 903.34 116C903.34 116 898.477 116 888.75 116C888.75 116 888.75 113.129 888.75 107.387C885.547 111.02 882.227 113.637 878.789 115.238C875.391 116.801 871.348 117.582 866.66 117.582C860.254 117.582 854.492 116.117 849.375 113.188C844.297 110.219 840.312 106.098 837.422 100.824C834.57 95.5508 833.145 89.6133 833.145 83.0117C833.145 76.332 834.59 70.3359 837.48 65.0234C840.371 59.6719 844.395 55.4922 849.551 52.4844C854.707 49.4766 860.527 47.9727 867.012 47.9727C871.816 47.9727 875.957 48.8125 879.434 50.4922C882.91 52.1328 886.016 54.7695 888.75 58.4023V49.4961H903.34ZM868.418 62.6211C862.871 62.6211 858.281 64.5742 854.648 68.4805C851.055 72.3867 849.258 77.3477 849.258 83.3633C849.258 89.1836 851.074 93.9102 854.707 97.543C858.379 101.137 863.125 102.934 868.945 102.934C874.727 102.934 879.375 101.098 882.891 97.4258C886.445 93.7539 888.223 88.9492 888.223 83.0117C888.223 76.9961 886.367 72.0938 882.656 68.3047C878.984 64.5156 874.238 62.6211 868.418 62.6211ZM974.883 62.0938C969.609 62.0938 965.039 64.1445 961.172 68.2461C957.344 72.3086 955.43 77.1523 955.43 82.7773C955.43 88.4805 957.363 93.3438 961.23 97.3672C965.098 101.391 969.727 103.402 975.117 103.402C980.586 103.402 985.254 101.41 989.121 97.4258C992.988 93.4023 994.922 88.5586 994.922 82.8945C994.922 77.0742 992.969 72.1523 989.062 68.1289C985.195 64.1055 980.469 62.0938 974.883 62.0938ZM975.469 47.5039C980.273 47.5039 984.863 48.4414 989.238 50.3164C993.613 52.1914 997.383 54.7109 1000.55 57.875C1003.75 61.0391 1006.29 64.8086 1008.16 69.1836C1010.04 73.5586 1010.98 78.1289 1010.98 82.8945C1010.98 89.2227 1009.38 95.1016 1006.17 100.531C1002.97 105.922 998.613 110.199 993.105 113.363C987.637 116.488 981.68 118.051 975.234 118.051C966.602 118.051 958.984 115.355 952.383 109.965C945.82 104.574 941.719 97.8164 940.078 89.6914H932.285V116H916.348V49.4961H932.285V75.2188H940.195C941.953 67.1719 946.113 60.5508 952.676 55.3555C959.238 50.1211 966.836 47.5039 975.469 47.5039Z" fill="#1D1D1D"/>
<path d="M667.848 39.5C668.482 40.1667 669.082 40.8333 669.648 41.5C670.215 42.1333 670.682 42.9 671.048 43.8C671.115 43.7333 671.165 43.7 671.198 43.7C671.265 43.6667 671.332 43.6333 671.398 43.6C673.732 42.2667 675.498 40.8833 676.698 39.45C676.832 39.2833 676.998 39.2 677.198 39.2C677.432 39.1667 677.632 39.2167 677.798 39.35C677.965 39.5167 678.065 39.7167 678.098 39.95C678.132 40.15 678.065 40.3333 677.898 40.5C676.565 42.1 674.648 43.6 672.148 45C672.048 45.0667 671.932 45.1333 671.798 45.2C671.698 45.2667 671.582 45.3333 671.448 45.4C671.515 46 671.448 46.65 671.248 47.35C671.082 48.0167 670.748 48.7333 670.248 49.5C669.482 50.6333 668.565 51.4667 667.498 52C666.498 52.5 665.515 52.7667 664.548 52.8C663.582 52.8 662.715 52.6667 661.948 52.4C661.182 52.1333 660.582 51.7667 660.148 51.3C659.682 50.8 659.482 50.2667 659.548 49.7C659.615 49.1333 659.982 48.5833 660.648 48.05C661.315 47.4833 662.382 47 663.848 46.6C665.582 46.1333 667.082 45.6167 668.348 45.05C668.182 44.2167 667.848 43.4833 667.348 42.85C666.848 42.2167 666.365 41.6667 665.898 41.2C665.565 40.8667 665.265 40.5167 664.998 40.15C664.732 39.75 664.565 39.3667 664.498 39C664.398 38.6 664.432 38.2 664.598 37.8C664.765 37.4 665.098 37.0167 665.598 36.65C665.832 36.4833 666.115 36.3333 666.448 36.2C666.782 36.0667 667.132 35.9833 667.498 35.95C667.865 35.8833 668.215 35.9 668.548 36C668.882 36.0667 669.148 36.25 669.348 36.55C669.582 36.8833 669.582 37.2833 669.348 37.75C669.148 38.1833 668.648 38.7667 667.848 39.5ZM666.098 50.15C666.665 49.7833 667.148 49.2833 667.548 48.65C667.982 48.05 668.248 47.4333 668.348 46.8C667.048 47.3333 665.682 47.7667 664.248 48.1C662.648 48.5333 661.698 48.9833 661.398 49.45C661.098 49.9167 661.182 50.3 661.648 50.6C662.082 50.8667 662.748 51 663.648 51C664.515 51 665.332 50.7167 666.098 50.15ZM681.809 37.95C681.542 38.0833 681.276 38.25 681.009 38.45C680.742 38.65 680.476 38.9333 680.209 39.3C681.042 39.1333 681.642 38.9667 682.009 38.8C682.542 38.6 682.892 38.4167 683.059 38.25C683.226 38.0833 683.276 37.95 683.209 37.85C683.142 37.75 682.976 37.7 682.709 37.7C682.442 37.7 682.142 37.7833 681.809 37.95ZM681.009 44C681.742 43.9 682.526 43.7167 683.359 43.45C684.226 43.1833 685.076 42.85 685.909 42.45C686.776 42.05 687.576 41.6 688.309 41.1C689.076 40.5667 689.742 40.0167 690.309 39.45C690.476 39.2833 690.659 39.2 690.859 39.2C691.092 39.1667 691.292 39.2333 691.459 39.4C691.826 39.8 691.826 40.1833 691.459 40.55C690.859 41.1833 690.126 41.7833 689.259 42.35C688.426 42.9167 687.542 43.4333 686.609 43.9C685.709 44.3333 684.776 44.7 683.809 45C682.876 45.3 681.992 45.5 681.159 45.6C680.759 45.6667 680.276 45.7167 679.709 45.75C679.176 45.75 678.642 45.7167 678.109 45.65C677.576 45.5833 677.092 45.45 676.659 45.25C676.192 45.0167 675.842 44.6833 675.609 44.25C675.409 43.8833 675.326 43.5 675.359 43.1C675.359 42.7 675.426 42.3 675.559 41.9C675.659 41.4667 675.809 41.0667 676.009 40.7C676.176 40.3 676.359 39.95 676.559 39.65C677.092 38.8833 677.726 38.1833 678.459 37.55C679.192 36.8833 680.026 36.4167 680.959 36.15C681.892 35.9167 682.692 35.9167 683.359 36.15C684.026 36.3833 684.476 36.7333 684.709 37.2C684.942 37.6667 684.909 38.2 684.609 38.8C684.342 39.3667 683.709 39.85 682.709 40.25C682.242 40.4167 681.692 40.5667 681.059 40.7C680.459 40.8333 679.759 40.9333 678.959 41C678.359 42.0333 678.142 42.8 678.309 43.3C678.342 43.5333 678.476 43.7 678.709 43.8C678.942 43.9 679.192 43.9833 679.459 44.05C679.759 44.0833 680.042 44.1 680.309 44.1C680.609 44.0667 680.842 44.0333 681.009 44ZM691.232 40.8C691.065 40.9 690.865 40.9333 690.632 40.9C690.432 40.8667 690.265 40.75 690.132 40.55C689.999 40.3833 689.965 40.2 690.032 40C690.065 39.7667 690.165 39.5833 690.332 39.45C690.565 39.2833 690.815 39.0667 691.082 38.8C691.349 38.5 691.599 38.1833 691.832 37.85C691.732 37.7833 691.582 37.65 691.382 37.45C690.815 36.95 690.532 36.4833 690.532 36.05C690.532 35.5833 690.699 35.1833 691.032 34.85C691.265 34.5833 691.599 34.3667 692.032 34.2C692.465 34.0667 692.849 34.05 693.182 34.15C693.615 34.2167 693.965 34.4167 694.232 34.75C694.499 35.0833 694.565 35.55 694.432 36.15C694.399 36.25 694.365 36.35 694.332 36.45C694.332 36.5167 694.315 36.6 694.282 36.7C694.415 36.7667 694.532 36.85 694.632 36.95C694.732 37.0167 694.849 37.0833 694.982 37.15C696.015 37.85 696.665 38.5167 696.932 39.15C697.199 39.7833 697.249 40.4167 697.082 41.05C696.915 41.6833 696.615 42.35 696.182 43.05C695.782 43.75 695.432 44.55 695.132 45.45C694.832 46.3167 694.749 46.8 694.882 46.9C695.015 46.9667 695.465 46.8167 696.232 46.45C697.165 46.05 698.165 45.5333 699.232 44.9C700.332 44.2333 701.382 43.5667 702.382 42.9C703.382 42.2 704.282 41.55 705.082 40.95C705.882 40.3167 706.482 39.8167 706.882 39.45C707.049 39.2833 707.232 39.2167 707.432 39.25C707.665 39.2833 707.865 39.3833 708.032 39.55C708.165 39.7167 708.215 39.9 708.182 40.1C708.182 40.3 708.099 40.4833 707.932 40.65C707.532 41.0167 706.915 41.5167 706.082 42.15C705.249 42.7833 704.315 43.4667 703.282 44.2C702.249 44.9 701.165 45.5833 700.032 46.25C698.899 46.9167 697.849 47.4667 696.882 47.9C696.049 48.2667 695.265 48.5167 694.532 48.65C693.832 48.7833 693.249 48.7333 692.782 48.5C692.315 48.2667 692.015 47.85 691.882 47.25C691.782 46.65 691.932 45.8167 692.332 44.75C692.532 44.25 692.782 43.7333 693.082 43.2C693.382 42.6667 693.615 42.1333 693.782 41.6C693.982 41.0667 694.049 40.5667 693.982 40.1C693.949 39.6 693.665 39.15 693.132 38.75C692.532 39.6167 691.899 40.3 691.232 40.8ZM708.035 36.35C708.135 36.0833 708.385 35.8833 708.785 35.75C709.185 35.5833 709.568 35.5167 709.935 35.55C710.335 35.55 710.635 35.6833 710.835 35.95C711.068 36.1833 711.051 36.5833 710.785 37.15C710.451 37.65 710.101 38.4333 709.735 39.5C709.368 40.5667 709.101 41.6167 708.935 42.65C708.868 43.1167 708.801 43.5333 708.735 43.9C708.701 44.2333 708.718 44.5333 708.785 44.8C708.951 44.7 709.101 44.6 709.235 44.5C709.401 44.3667 709.568 44.2333 709.735 44.1C710.935 43.1333 711.985 42.1167 712.885 41.05C713.785 39.95 714.618 38.75 715.385 37.45C715.418 37.3167 715.468 37.1167 715.535 36.85C715.601 36.5833 715.685 36.3333 715.785 36.1C715.918 35.8333 716.068 35.6167 716.235 35.45C716.401 35.2833 716.585 35.2167 716.785 35.25C717.451 35.2833 717.885 35.5833 718.085 36.15V36.2C718.218 36.5667 718.185 36.9833 717.985 37.45C717.785 37.9167 717.485 38.4333 717.085 39C717.085 39.0333 717.101 39.0667 717.135 39.1C717.335 39.5667 717.618 39.9333 717.985 40.2C718.385 40.5 718.835 40.7 719.335 40.8C719.901 40.9 720.485 40.85 721.085 40.65C721.718 40.45 722.351 40.05 722.985 39.45C723.151 39.2833 723.335 39.2167 723.535 39.25C723.768 39.25 723.968 39.3333 724.135 39.5C724.468 39.9 724.451 40.2833 724.085 40.65C723.218 41.4167 722.351 41.9333 721.485 42.2C720.651 42.4667 719.851 42.5333 719.085 42.4C718.318 42.2667 717.635 41.95 717.035 41.45C716.635 41.1833 716.285 40.8167 715.985 40.35C715.718 40.6167 715.435 40.9 715.135 41.2C714.868 41.5 714.601 41.7833 714.335 42.05C713.735 42.65 713.168 43.1667 712.635 43.6C712.301 43.9333 711.968 44.2333 711.635 44.5C711.335 44.7667 711.035 45.0333 710.735 45.3C710.368 45.6 710.001 45.8667 709.635 46.1C709.301 46.3333 708.985 46.5333 708.685 46.7C707.851 47.1333 707.185 47.15 706.685 46.75V46.7C706.585 46.6667 706.501 46.5667 706.435 46.4C706.168 45.9333 706.051 45.3 706.085 44.5C706.085 43.6667 706.168 42.7833 706.335 41.85C706.501 40.7833 706.735 39.75 707.035 38.75C707.368 37.7167 707.701 36.9167 708.035 36.35ZM730.448 32.85L729.248 33.75C729.015 33.9167 728.748 34.0333 728.448 34.1C728.181 34.1667 727.948 34.1833 727.748 34.15C727.548 34.0833 727.415 33.95 727.348 33.75C727.315 33.55 727.415 33.25 727.648 32.85L728.048 32.1C728.281 31.7 728.598 31.4667 728.998 31.4C729.431 31.3 729.815 31.3167 730.148 31.45C730.515 31.5833 730.748 31.7833 730.848 32.05C730.981 32.3167 730.848 32.5833 730.448 32.85ZM727.948 36.75C727.215 37.7167 726.448 38.8333 725.648 40.1C724.881 41.3333 724.298 42.5 723.898 43.6C723.698 44.1667 723.615 44.5833 723.648 44.85C723.715 45.0833 723.865 45.2167 724.098 45.25C724.331 45.2833 724.615 45.2333 724.948 45.1C725.281 44.9333 725.648 44.75 726.048 44.55C726.748 44.15 727.498 43.6667 728.298 43.1C729.098 42.5333 729.848 41.9833 730.548 41.45C731.248 40.9167 731.831 40.45 732.298 40.05C732.765 39.65 732.998 39.45 732.998 39.45C733.165 39.3167 733.348 39.2667 733.548 39.3C733.748 39.3 733.931 39.3833 734.098 39.55C734.265 39.7167 734.331 39.9167 734.298 40.15C734.265 40.35 734.165 40.5333 733.998 40.7C733.265 41.3 732.498 41.9 731.698 42.5C731.031 43 730.265 43.5333 729.398 44.1C728.565 44.6667 727.731 45.1667 726.898 45.6C726.231 45.9333 725.498 46.2167 724.698 46.45C723.898 46.65 723.198 46.7 722.598 46.6C721.998 46.4667 721.565 46.1333 721.298 45.6C721.031 45.0333 721.115 44.15 721.548 42.95C721.815 42.2167 722.065 41.55 722.298 40.95C722.531 40.3167 722.781 39.7333 723.048 39.2C723.348 38.6333 723.665 38.0833 723.998 37.55C724.365 37.0167 724.798 36.4333 725.298 35.8C725.431 35.5667 725.698 35.4167 726.098 35.35C726.531 35.25 726.931 35.2333 727.298 35.3C727.665 35.3667 727.931 35.5333 728.098 35.8C728.298 36.0333 728.248 36.35 727.948 36.75ZM732.858 39.65C733.191 39.0833 733.641 38.5 734.208 37.9C734.808 37.3 735.441 36.8167 736.108 36.45C736.574 36.1833 737.074 36 737.608 35.9C738.141 35.8 738.641 35.8 739.108 35.9C739.608 36 740.024 36.2167 740.358 36.55C740.724 36.8833 740.974 37.35 741.108 37.95C741.174 38.1833 741.141 38.3833 741.008 38.55C740.874 38.7167 740.708 38.8333 740.508 38.9C740.274 38.9667 740.074 38.9333 739.908 38.8C739.741 38.6667 739.624 38.5 739.558 38.3C739.458 37.7667 739.258 37.5333 738.958 37.6C738.658 37.6333 738.324 37.7667 737.958 38C737.491 38.3 737.041 38.6833 736.608 39.15C736.208 39.5833 735.874 40.0167 735.608 40.45C734.741 41.8833 734.424 42.9 734.658 43.5C734.924 44.0667 735.891 44.2333 737.558 44C738.391 43.8667 739.274 43.65 740.208 43.35C741.141 43.05 742.058 42.7 742.958 42.3C743.858 41.8667 744.708 41.4167 745.508 40.95C746.308 40.45 746.974 39.95 747.508 39.45C747.674 39.2833 747.858 39.2167 748.058 39.25C748.291 39.25 748.491 39.3333 748.658 39.5C748.991 39.9 748.974 40.2833 748.608 40.65C748.008 41.1833 747.274 41.7167 746.408 42.25C745.541 42.7833 744.608 43.2833 743.608 43.75C742.641 44.1833 741.641 44.5667 740.608 44.9C739.608 45.2 738.674 45.4167 737.808 45.55C736.641 45.7167 735.574 45.75 734.608 45.65C733.674 45.55 732.958 45.2667 732.458 44.8C731.924 44.3333 731.674 43.6833 731.708 42.85C731.708 42.0167 732.091 40.95 732.858 39.65ZM752.61 37.95C752.343 38.0833 752.076 38.25 751.81 38.45C751.543 38.65 751.276 38.9333 751.01 39.3C751.843 39.1333 752.443 38.9667 752.81 38.8C753.343 38.6 753.693 38.4167 753.86 38.25C754.026 38.0833 754.076 37.95 754.01 37.85C753.943 37.75 753.776 37.7 753.51 37.7C753.243 37.7 752.943 37.7833 752.61 37.95ZM751.81 44C752.543 43.9 753.326 43.7167 754.16 43.45C755.026 43.1833 755.876 42.85 756.71 42.45C757.576 42.05 758.376 41.6 759.11 41.1C759.876 40.5667 760.543 40.0167 761.11 39.45C761.276 39.2833 761.46 39.2 761.66 39.2C761.893 39.1667 762.093 39.2333 762.26 39.4C762.626 39.8 762.626 40.1833 762.26 40.55C761.66 41.1833 760.926 41.7833 760.06 42.35C759.226 42.9167 758.343 43.4333 757.41 43.9C756.51 44.3333 755.576 44.7 754.61 45C753.676 45.3 752.793 45.5 751.96 45.6C751.56 45.6667 751.076 45.7167 750.51 45.75C749.976 45.75 749.443 45.7167 748.91 45.65C748.376 45.5833 747.893 45.45 747.46 45.25C746.993 45.0167 746.643 44.6833 746.41 44.25C746.21 43.8833 746.126 43.5 746.16 43.1C746.16 42.7 746.226 42.3 746.36 41.9C746.46 41.4667 746.61 41.0667 746.81 40.7C746.976 40.3 747.16 39.95 747.36 39.65C747.893 38.8833 748.526 38.1833 749.26 37.55C749.993 36.8833 750.826 36.4167 751.76 36.15C752.693 35.9167 753.493 35.9167 754.16 36.15C754.826 36.3833 755.276 36.7333 755.51 37.2C755.743 37.6667 755.71 38.2 755.41 38.8C755.143 39.3667 754.51 39.85 753.51 40.25C753.043 40.4167 752.493 40.5667 751.86 40.7C751.26 40.8333 750.56 40.9333 749.76 41C749.16 42.0333 748.943 42.8 749.11 43.3C749.143 43.5333 749.276 43.7 749.51 43.8C749.743 43.9 749.993 43.9833 750.26 44.05C750.56 44.0833 750.843 44.1 751.11 44.1C751.41 44.0667 751.643 44.0333 751.81 44ZM764.333 39.5C764.966 40.1667 765.566 40.8333 766.133 41.5C766.699 42.1333 767.166 42.9 767.533 43.8C767.599 43.7333 767.649 43.7 767.683 43.7C767.749 43.6667 767.816 43.6333 767.883 43.6C770.216 42.2667 771.983 40.8833 773.183 39.45C773.316 39.2833 773.483 39.2 773.683 39.2C773.916 39.1667 774.116 39.2167 774.283 39.35C774.449 39.5167 774.549 39.7167 774.583 39.95C774.616 40.15 774.549 40.3333 774.383 40.5C773.049 42.1 771.133 43.6 768.633 45C768.533 45.0667 768.416 45.1333 768.283 45.2C768.183 45.2667 768.066 45.3333 767.933 45.4C767.999 46 767.933 46.65 767.733 47.35C767.566 48.0167 767.233 48.7333 766.733 49.5C765.966 50.6333 765.049 51.4667 763.983 52C762.983 52.5 761.999 52.7667 761.033 52.8C760.066 52.8 759.199 52.6667 758.433 52.4C757.666 52.1333 757.066 51.7667 756.633 51.3C756.166 50.8 755.966 50.2667 756.033 49.7C756.099 49.1333 756.466 48.5833 757.133 48.05C757.799 47.4833 758.866 47 760.333 46.6C762.066 46.1333 763.566 45.6167 764.833 45.05C764.666 44.2167 764.333 43.4833 763.833 42.85C763.333 42.2167 762.849 41.6667 762.383 41.2C762.049 40.8667 761.749 40.5167 761.483 40.15C761.216 39.75 761.049 39.3667 760.983 39C760.883 38.6 760.916 38.2 761.083 37.8C761.249 37.4 761.583 37.0167 762.083 36.65C762.316 36.4833 762.599 36.3333 762.933 36.2C763.266 36.0667 763.616 35.9833 763.983 35.95C764.349 35.8833 764.699 35.9 765.033 36C765.366 36.0667 765.633 36.25 765.833 36.55C766.066 36.8833 766.066 37.2833 765.833 37.75C765.633 38.1833 765.133 38.7667 764.333 39.5ZM762.583 50.15C763.149 49.7833 763.633 49.2833 764.033 48.65C764.466 48.05 764.733 47.4333 764.833 46.8C763.533 47.3333 762.166 47.7667 760.733 48.1C759.133 48.5333 758.183 48.9833 757.883 49.45C757.583 49.9167 757.666 50.3 758.133 50.6C758.566 50.8667 759.233 51 760.133 51C760.999 51 761.816 50.7167 762.583 50.15Z" fill="#F1523C"/>
</svg>
