<svg width="775" height="345" viewBox="0 0 775 345" fill="none" xmlns="http://www.w3.org/2000/svg">
<path d="M10.6201 145C10.6201 145 10.6201 108.062 10.6201 34.1846C10.6201 34.1846 18.2373 34.1846 33.4717 34.1846C41.9189 34.1846 48.2666 34.5996 52.5146 35.4297C56.8115 36.2109 60.6445 37.7246 64.0137 39.9707C67.8223 42.5586 70.7764 45.9277 72.876 50.0781C74.9756 54.1797 76.0254 58.7207 76.0254 63.7012C76.0254 68.9258 75.0732 73.1494 73.1689 76.3721C71.3135 79.5459 68.1641 82.2803 63.7207 84.5752C67.4316 86.0889 70.2637 87.5293 72.2168 88.8965C74.2188 90.2637 76.001 92.0215 77.5635 94.1699C80.9326 98.7598 82.6172 104.692 82.6172 111.968C82.6172 117.827 81.2988 123.149 78.6621 127.935C76.0254 132.72 72.3145 136.504 67.5293 139.287C60.9375 143.096 51.8311 145 40.21 145H10.6201ZM31.2012 125.371H41.3818C48.5596 125.371 53.7842 124.272 57.0557 122.075C60.3271 119.829 61.9629 116.265 61.9629 111.382C61.9629 106.499 60.2295 102.886 56.7627 100.542C53.3447 98.1982 48.0713 97.0264 40.9424 97.0264H31.2012V125.371ZM31.2012 76.8848H37.793C44.043 76.8848 48.5596 76.0059 51.3428 74.248C54.126 72.4414 55.5176 69.5361 55.5176 65.5322C55.5176 58.0127 50.2197 54.2529 39.624 54.2529H31.2012V76.8848ZM153.149 61.8701C153.149 61.8701 159.888 61.8701 173.364 61.8701C173.364 61.8701 173.364 89.5801 173.364 145C173.364 145 166.772 145 153.589 145C153.589 145 153.589 126.689 153.589 90.0684C153.589 90.0684 141.187 108.379 116.382 145C116.382 145 109.644 145 96.167 145C96.167 145 96.167 117.29 96.167 61.8701C96.167 61.8701 102.759 61.8701 115.942 61.8701C115.942 61.8701 115.942 80.1807 115.942 116.802C115.942 116.802 128.345 98.4912 153.149 61.8701ZM281.396 164.775C281.396 164.775 276.636 164.775 267.114 164.775C267.114 164.775 265.723 158.184 262.939 145C262.939 145 242.48 145 201.562 145C201.562 145 200.171 151.592 197.388 164.775C197.388 164.775 192.578 164.775 182.959 164.775C182.959 164.775 182.959 152.129 182.959 126.836C182.959 126.836 187.231 126.836 195.776 126.836C195.776 126.836 205.005 105.181 223.462 61.8701C223.462 61.8701 229.272 61.8701 240.894 61.8701C240.894 61.8701 250.146 83.5254 268.652 126.836C268.652 126.836 272.9 126.836 281.396 126.836C281.396 126.836 281.396 139.482 281.396 164.775ZM247.925 126.836C247.925 126.836 242.676 114.336 232.178 89.3359C232.178 89.3359 226.929 101.836 216.431 126.836C216.431 126.836 226.929 126.836 247.925 126.836ZM310.913 108.525C310.913 108.525 310.913 114.629 310.913 126.836C310.913 126.836 316.016 126.836 326.221 126.836C329.199 126.836 331.616 125.981 333.472 124.272C335.327 122.563 336.255 120.366 336.255 117.681C336.255 114.995 335.327 112.798 333.472 111.089C331.616 109.38 329.199 108.525 326.221 108.525H310.913ZM327.539 90.4346C335.986 90.4346 342.896 93.0957 348.267 98.418C353.687 103.691 356.396 110.112 356.396 117.681C356.396 125.249 353.687 131.694 348.267 137.017C342.896 142.339 335.986 145 327.539 145H290.991C290.991 145 290.991 117.29 290.991 61.8701C290.991 61.8701 297.632 61.8701 310.913 61.8701C310.913 61.8701 310.913 71.3916 310.913 90.4346C310.913 90.4346 316.455 90.4346 327.539 90.4346ZM363.867 145C363.867 145 363.867 117.29 363.867 61.8701C363.867 61.8701 370.508 61.8701 383.789 61.8701C383.789 61.8701 383.789 89.5801 383.789 145C383.789 145 377.148 145 363.867 145ZM8.12988 344.759C8.12988 344.759 8.12988 307.796 8.12988 233.87C8.12988 233.87 14.209 233.87 26.3672 233.87C26.3672 233.87 26.3672 237.142 26.3672 243.685C32.959 235.872 42.0654 231.966 53.6865 231.966C61.5967 231.966 68.7012 233.821 75 237.532C81.2988 241.194 86.2061 246.321 89.7217 252.913C93.2861 259.505 95.0684 266.927 95.0684 275.179C95.0684 283.479 93.2861 290.975 89.7217 297.664C86.1572 304.305 81.2012 309.529 74.8535 313.338C68.5547 317.098 61.4502 318.978 53.54 318.978C48.4619 318.978 43.8965 318.196 39.8438 316.634C35.791 315.071 31.8604 312.605 28.0518 309.236V344.759H8.12988ZM50.6836 250.276C43.9453 250.276 38.2812 252.718 33.6914 257.601C29.1504 262.435 26.8799 268.489 26.8799 275.765C26.8799 282.845 29.2236 288.777 33.9111 293.562C38.5986 298.299 44.3848 300.667 51.2695 300.667C57.959 300.667 63.5742 298.274 68.1152 293.489C72.7051 288.655 75 282.698 75 275.618C75 268.294 72.7051 262.239 68.1152 257.454C63.5254 252.669 57.7148 250.276 50.6836 250.276ZM191.235 233.87C191.235 233.87 191.235 261.58 191.235 317C191.235 317 185.156 317 172.998 317C172.998 317 172.998 313.411 172.998 306.233C168.994 310.774 164.844 314.046 160.547 316.048C156.299 318.001 151.245 318.978 145.386 318.978C137.378 318.978 130.176 317.146 123.779 313.484C117.432 309.773 112.451 304.622 108.838 298.03C105.273 291.438 103.491 284.017 103.491 275.765C103.491 267.415 105.298 259.92 108.911 253.279C112.524 246.59 117.554 241.365 123.999 237.605C130.444 233.846 137.72 231.966 145.825 231.966C151.831 231.966 157.007 233.016 161.353 235.115C165.698 237.166 169.58 240.462 172.998 245.003V233.87H191.235ZM147.583 250.276C140.649 250.276 134.912 252.718 130.371 257.601C125.879 262.483 123.633 268.685 123.633 276.204C123.633 283.479 125.903 289.388 130.444 293.929C135.034 298.421 140.967 300.667 148.242 300.667C155.469 300.667 161.279 298.372 165.674 293.782C170.117 289.192 172.339 283.187 172.339 275.765C172.339 268.245 170.02 262.117 165.381 257.381C160.791 252.645 154.858 250.276 147.583 250.276ZM248.291 251.448C241.846 251.448 236.279 253.841 231.592 258.626C226.904 263.411 224.561 269.173 224.561 275.911C224.561 282.845 226.904 288.704 231.592 293.489C236.279 298.274 241.943 300.667 248.584 300.667C255.273 300.667 260.962 298.299 265.649 293.562C270.337 288.777 272.681 282.942 272.681 276.058C272.681 269.173 270.312 263.362 265.576 258.626C260.889 253.841 255.127 251.448 248.291 251.448ZM248.877 233.577C253.613 233.577 258.203 234.285 262.646 235.701C267.139 237.117 271.191 239.144 274.805 241.78C278.418 244.368 281.567 247.42 284.253 250.936C286.987 254.402 289.087 258.309 290.552 262.654C292.065 266.951 292.822 271.419 292.822 276.058C292.822 283.87 290.845 291.072 286.89 297.664C282.983 304.256 277.637 309.456 270.85 313.265C264.111 317.073 256.738 318.978 248.73 318.978C241.162 318.978 234.155 317.317 227.71 313.997C221.313 310.628 216.162 305.77 212.256 299.422C210.645 296.785 209.326 293.782 208.301 290.413C207.324 287.044 206.616 283.235 206.177 278.987C205.786 274.69 205.518 270.906 205.371 267.635C205.273 264.314 205.225 260.018 205.225 254.744C205.225 237.898 209.009 224.959 216.577 215.926C224.146 206.844 235.669 201.692 251.147 200.472L287.256 197.615V215.486L251.88 218.416C241.187 219.344 233.228 222.371 228.003 227.498C222.827 232.576 220.19 239.852 220.093 249.324L220.386 249.471C222.339 245.662 225.952 242.073 231.226 238.704C236.499 235.286 242.383 233.577 248.877 233.577ZM345.85 231.966C353.76 231.966 361.084 233.919 367.822 237.825C374.561 241.731 379.883 247.054 383.789 253.792C387.695 260.481 389.648 267.757 389.648 275.618C389.648 283.431 387.671 290.682 383.716 297.371C379.81 304.012 374.463 309.285 367.676 313.191C360.889 317.049 353.516 318.978 345.557 318.978C337.549 318.978 330.127 317.049 323.291 313.191C316.504 309.285 311.133 304.012 307.178 297.371C303.223 290.682 301.245 283.431 301.245 275.618C301.245 269.661 302.393 263.997 304.688 258.626C307.031 253.206 310.181 248.567 314.136 244.71C318.14 240.804 322.9 237.703 328.418 235.408C333.936 233.113 339.746 231.966 345.85 231.966ZM345.044 250.276C338.599 250.276 333.032 252.767 328.345 257.747C323.706 262.679 321.387 268.587 321.387 275.472C321.387 282.405 323.73 288.338 328.418 293.27C333.105 298.201 338.745 300.667 345.337 300.667C351.978 300.667 357.666 298.226 362.402 293.343C367.139 288.411 369.507 282.503 369.507 275.618C369.507 268.489 367.139 262.483 362.402 257.601C357.666 252.718 351.88 250.276 345.044 250.276ZM453.223 252.034C453.223 252.034 446.753 252.034 433.813 252.034C433.813 252.034 433.813 273.689 433.813 317C433.813 317 427.173 317 413.892 317C413.892 317 413.892 295.345 413.892 252.034C413.892 252.034 407.446 252.034 394.556 252.034C394.556 252.034 394.556 245.979 394.556 233.87C394.556 233.87 414.111 233.87 453.223 233.87C453.223 233.87 453.223 239.925 453.223 252.034Z" fill="#1D1D1D"/>
<path d="M323.848 209.5C324.482 210.167 325.082 210.833 325.648 211.5C326.215 212.133 326.682 212.9 327.048 213.8C327.115 213.733 327.165 213.7 327.198 213.7C327.265 213.667 327.332 213.633 327.398 213.6C329.732 212.267 331.498 210.883 332.698 209.45C332.832 209.283 332.998 209.2 333.198 209.2C333.432 209.167 333.632 209.217 333.798 209.35C333.965 209.517 334.065 209.717 334.098 209.95C334.132 210.15 334.065 210.333 333.898 210.5C332.565 212.1 330.648 213.6 328.148 215C328.048 215.067 327.932 215.133 327.798 215.2C327.698 215.267 327.582 215.333 327.448 215.4C327.515 216 327.448 216.65 327.248 217.35C327.082 218.017 326.748 218.733 326.248 219.5C325.482 220.633 324.565 221.467 323.498 222C322.498 222.5 321.515 222.767 320.548 222.8C319.582 222.8 318.715 222.667 317.948 222.4C317.182 222.133 316.582 221.767 316.148 221.3C315.682 220.8 315.482 220.267 315.548 219.7C315.615 219.133 315.982 218.583 316.648 218.05C317.315 217.483 318.382 217 319.848 216.6C321.582 216.133 323.082 215.617 324.348 215.05C324.182 214.217 323.848 213.483 323.348 212.85C322.848 212.217 322.365 211.667 321.898 211.2C321.565 210.867 321.265 210.517 320.998 210.15C320.732 209.75 320.565 209.367 320.498 209C320.398 208.6 320.432 208.2 320.598 207.8C320.765 207.4 321.098 207.017 321.598 206.65C321.832 206.483 322.115 206.333 322.448 206.2C322.782 206.067 323.132 205.983 323.498 205.95C323.865 205.883 324.215 205.9 324.548 206C324.882 206.067 325.148 206.25 325.348 206.55C325.582 206.883 325.582 207.283 325.348 207.75C325.148 208.183 324.648 208.767 323.848 209.5ZM322.098 220.15C322.665 219.783 323.148 219.283 323.548 218.65C323.982 218.05 324.248 217.433 324.348 216.8C323.048 217.333 321.682 217.767 320.248 218.1C318.648 218.533 317.698 218.983 317.398 219.45C317.098 219.917 317.182 220.3 317.648 220.6C318.082 220.867 318.748 221 319.648 221C320.515 221 321.332 220.717 322.098 220.15ZM337.809 207.95C337.542 208.083 337.276 208.25 337.009 208.45C336.742 208.65 336.476 208.933 336.209 209.3C337.042 209.133 337.642 208.967 338.009 208.8C338.542 208.6 338.892 208.417 339.059 208.25C339.226 208.083 339.276 207.95 339.209 207.85C339.142 207.75 338.976 207.7 338.709 207.7C338.442 207.7 338.142 207.783 337.809 207.95ZM337.009 214C337.742 213.9 338.526 213.717 339.359 213.45C340.226 213.183 341.076 212.85 341.909 212.45C342.776 212.05 343.576 211.6 344.309 211.1C345.076 210.567 345.742 210.017 346.309 209.45C346.476 209.283 346.659 209.2 346.859 209.2C347.092 209.167 347.292 209.233 347.459 209.4C347.826 209.8 347.826 210.183 347.459 210.55C346.859 211.183 346.126 211.783 345.259 212.35C344.426 212.917 343.542 213.433 342.609 213.9C341.709 214.333 340.776 214.7 339.809 215C338.876 215.3 337.992 215.5 337.159 215.6C336.759 215.667 336.276 215.717 335.709 215.75C335.176 215.75 334.642 215.717 334.109 215.65C333.576 215.583 333.092 215.45 332.659 215.25C332.192 215.017 331.842 214.683 331.609 214.25C331.409 213.883 331.326 213.5 331.359 213.1C331.359 212.7 331.426 212.3 331.559 211.9C331.659 211.467 331.809 211.067 332.009 210.7C332.176 210.3 332.359 209.95 332.559 209.65C333.092 208.883 333.726 208.183 334.459 207.55C335.192 206.883 336.026 206.417 336.959 206.15C337.892 205.917 338.692 205.917 339.359 206.15C340.026 206.383 340.476 206.733 340.709 207.2C340.942 207.667 340.909 208.2 340.609 208.8C340.342 209.367 339.709 209.85 338.709 210.25C338.242 210.417 337.692 210.567 337.059 210.7C336.459 210.833 335.759 210.933 334.959 211C334.359 212.033 334.142 212.8 334.309 213.3C334.342 213.533 334.476 213.7 334.709 213.8C334.942 213.9 335.192 213.983 335.459 214.05C335.759 214.083 336.042 214.1 336.309 214.1C336.609 214.067 336.842 214.033 337.009 214ZM347.232 210.8C347.065 210.9 346.865 210.933 346.632 210.9C346.432 210.867 346.265 210.75 346.132 210.55C345.999 210.383 345.965 210.2 346.032 210C346.065 209.767 346.165 209.583 346.332 209.45C346.565 209.283 346.815 209.067 347.082 208.8C347.349 208.5 347.599 208.183 347.832 207.85C347.732 207.783 347.582 207.65 347.382 207.45C346.815 206.95 346.532 206.483 346.532 206.05C346.532 205.583 346.699 205.183 347.032 204.85C347.265 204.583 347.599 204.367 348.032 204.2C348.465 204.067 348.849 204.05 349.182 204.15C349.615 204.217 349.965 204.417 350.232 204.75C350.499 205.083 350.565 205.55 350.432 206.15C350.399 206.25 350.365 206.35 350.332 206.45C350.332 206.517 350.315 206.6 350.282 206.7C350.415 206.767 350.532 206.85 350.632 206.95C350.732 207.017 350.849 207.083 350.982 207.15C352.015 207.85 352.665 208.517 352.932 209.15C353.199 209.783 353.249 210.417 353.082 211.05C352.915 211.683 352.615 212.35 352.182 213.05C351.782 213.75 351.432 214.55 351.132 215.45C350.832 216.317 350.749 216.8 350.882 216.9C351.015 216.967 351.465 216.817 352.232 216.45C353.165 216.05 354.165 215.533 355.232 214.9C356.332 214.233 357.382 213.567 358.382 212.9C359.382 212.2 360.282 211.55 361.082 210.95C361.882 210.317 362.482 209.817 362.882 209.45C363.049 209.283 363.232 209.217 363.432 209.25C363.665 209.283 363.865 209.383 364.032 209.55C364.165 209.717 364.215 209.9 364.182 210.1C364.182 210.3 364.099 210.483 363.932 210.65C363.532 211.017 362.915 211.517 362.082 212.15C361.249 212.783 360.315 213.467 359.282 214.2C358.249 214.9 357.165 215.583 356.032 216.25C354.899 216.917 353.849 217.467 352.882 217.9C352.049 218.267 351.265 218.517 350.532 218.65C349.832 218.783 349.249 218.733 348.782 218.5C348.315 218.267 348.015 217.85 347.882 217.25C347.782 216.65 347.932 215.817 348.332 214.75C348.532 214.25 348.782 213.733 349.082 213.2C349.382 212.667 349.615 212.133 349.782 211.6C349.982 211.067 350.049 210.567 349.982 210.1C349.949 209.6 349.665 209.15 349.132 208.75C348.532 209.617 347.899 210.3 347.232 210.8ZM364.035 206.35C364.135 206.083 364.385 205.883 364.785 205.75C365.185 205.583 365.568 205.517 365.935 205.55C366.335 205.55 366.635 205.683 366.835 205.95C367.068 206.183 367.051 206.583 366.785 207.15C366.451 207.65 366.101 208.433 365.735 209.5C365.368 210.567 365.101 211.617 364.935 212.65C364.868 213.117 364.801 213.533 364.735 213.9C364.701 214.233 364.718 214.533 364.785 214.8C364.951 214.7 365.101 214.6 365.235 214.5C365.401 214.367 365.568 214.233 365.735 214.1C366.935 213.133 367.985 212.117 368.885 211.05C369.785 209.95 370.618 208.75 371.385 207.45C371.418 207.317 371.468 207.117 371.535 206.85C371.601 206.583 371.685 206.333 371.785 206.1C371.918 205.833 372.068 205.617 372.235 205.45C372.401 205.283 372.585 205.217 372.785 205.25C373.451 205.283 373.885 205.583 374.085 206.15V206.2C374.218 206.567 374.185 206.983 373.985 207.45C373.785 207.917 373.485 208.433 373.085 209C373.085 209.033 373.101 209.067 373.135 209.1C373.335 209.567 373.618 209.933 373.985 210.2C374.385 210.5 374.835 210.7 375.335 210.8C375.901 210.9 376.485 210.85 377.085 210.65C377.718 210.45 378.351 210.05 378.985 209.45C379.151 209.283 379.335 209.217 379.535 209.25C379.768 209.25 379.968 209.333 380.135 209.5C380.468 209.9 380.451 210.283 380.085 210.65C379.218 211.417 378.351 211.933 377.485 212.2C376.651 212.467 375.851 212.533 375.085 212.4C374.318 212.267 373.635 211.95 373.035 211.45C372.635 211.183 372.285 210.817 371.985 210.35C371.718 210.617 371.435 210.9 371.135 211.2C370.868 211.5 370.601 211.783 370.335 212.05C369.735 212.65 369.168 213.167 368.635 213.6C368.301 213.933 367.968 214.233 367.635 214.5C367.335 214.767 367.035 215.033 366.735 215.3C366.368 215.6 366.001 215.867 365.635 216.1C365.301 216.333 364.985 216.533 364.685 216.7C363.851 217.133 363.185 217.15 362.685 216.75V216.7C362.585 216.667 362.501 216.567 362.435 216.4C362.168 215.933 362.051 215.3 362.085 214.5C362.085 213.667 362.168 212.783 362.335 211.85C362.501 210.783 362.735 209.75 363.035 208.75C363.368 207.717 363.701 206.917 364.035 206.35ZM386.448 202.85L385.248 203.75C385.015 203.917 384.748 204.033 384.448 204.1C384.181 204.167 383.948 204.183 383.748 204.15C383.548 204.083 383.415 203.95 383.348 203.75C383.315 203.55 383.415 203.25 383.648 202.85L384.048 202.1C384.281 201.7 384.598 201.467 384.998 201.4C385.431 201.3 385.815 201.317 386.148 201.45C386.515 201.583 386.748 201.783 386.848 202.05C386.981 202.317 386.848 202.583 386.448 202.85ZM383.948 206.75C383.215 207.717 382.448 208.833 381.648 210.1C380.881 211.333 380.298 212.5 379.898 213.6C379.698 214.167 379.615 214.583 379.648 214.85C379.715 215.083 379.865 215.217 380.098 215.25C380.331 215.283 380.615 215.233 380.948 215.1C381.281 214.933 381.648 214.75 382.048 214.55C382.748 214.15 383.498 213.667 384.298 213.1C385.098 212.533 385.848 211.983 386.548 211.45C387.248 210.917 387.831 210.45 388.298 210.05C388.765 209.65 388.998 209.45 388.998 209.45C389.165 209.317 389.348 209.267 389.548 209.3C389.748 209.3 389.931 209.383 390.098 209.55C390.265 209.717 390.331 209.917 390.298 210.15C390.265 210.35 390.165 210.533 389.998 210.7C389.265 211.3 388.498 211.9 387.698 212.5C387.031 213 386.265 213.533 385.398 214.1C384.565 214.667 383.731 215.167 382.898 215.6C382.231 215.933 381.498 216.217 380.698 216.45C379.898 216.65 379.198 216.7 378.598 216.6C377.998 216.467 377.565 216.133 377.298 215.6C377.031 215.033 377.115 214.15 377.548 212.95C377.815 212.217 378.065 211.55 378.298 210.95C378.531 210.317 378.781 209.733 379.048 209.2C379.348 208.633 379.665 208.083 379.998 207.55C380.365 207.017 380.798 206.433 381.298 205.8C381.431 205.567 381.698 205.417 382.098 205.35C382.531 205.25 382.931 205.233 383.298 205.3C383.665 205.367 383.931 205.533 384.098 205.8C384.298 206.033 384.248 206.35 383.948 206.75ZM388.858 209.65C389.191 209.083 389.641 208.5 390.208 207.9C390.808 207.3 391.441 206.817 392.108 206.45C392.574 206.183 393.074 206 393.608 205.9C394.141 205.8 394.641 205.8 395.108 205.9C395.608 206 396.024 206.217 396.358 206.55C396.724 206.883 396.974 207.35 397.108 207.95C397.174 208.183 397.141 208.383 397.008 208.55C396.874 208.717 396.708 208.833 396.508 208.9C396.274 208.967 396.074 208.933 395.908 208.8C395.741 208.667 395.624 208.5 395.558 208.3C395.458 207.767 395.258 207.533 394.958 207.6C394.658 207.633 394.324 207.767 393.958 208C393.491 208.3 393.041 208.683 392.608 209.15C392.208 209.583 391.874 210.017 391.608 210.45C390.741 211.883 390.424 212.9 390.658 213.5C390.924 214.067 391.891 214.233 393.558 214C394.391 213.867 395.274 213.65 396.208 213.35C397.141 213.05 398.058 212.7 398.958 212.3C399.858 211.867 400.708 211.417 401.508 210.95C402.308 210.45 402.974 209.95 403.508 209.45C403.674 209.283 403.858 209.217 404.058 209.25C404.291 209.25 404.491 209.333 404.658 209.5C404.991 209.9 404.974 210.283 404.608 210.65C404.008 211.183 403.274 211.717 402.408 212.25C401.541 212.783 400.608 213.283 399.608 213.75C398.641 214.183 397.641 214.567 396.608 214.9C395.608 215.2 394.674 215.417 393.808 215.55C392.641 215.717 391.574 215.75 390.608 215.65C389.674 215.55 388.958 215.267 388.458 214.8C387.924 214.333 387.674 213.683 387.708 212.85C387.708 212.017 388.091 210.95 388.858 209.65ZM408.61 207.95C408.343 208.083 408.076 208.25 407.81 208.45C407.543 208.65 407.276 208.933 407.01 209.3C407.843 209.133 408.443 208.967 408.81 208.8C409.343 208.6 409.693 208.417 409.86 208.25C410.026 208.083 410.076 207.95 410.01 207.85C409.943 207.75 409.776 207.7 409.51 207.7C409.243 207.7 408.943 207.783 408.61 207.95ZM407.81 214C408.543 213.9 409.326 213.717 410.16 213.45C411.026 213.183 411.876 212.85 412.71 212.45C413.576 212.05 414.376 211.6 415.11 211.1C415.876 210.567 416.543 210.017 417.11 209.45C417.276 209.283 417.46 209.2 417.66 209.2C417.893 209.167 418.093 209.233 418.26 209.4C418.626 209.8 418.626 210.183 418.26 210.55C417.66 211.183 416.926 211.783 416.06 212.35C415.226 212.917 414.343 213.433 413.41 213.9C412.51 214.333 411.576 214.7 410.61 215C409.676 215.3 408.793 215.5 407.96 215.6C407.56 215.667 407.076 215.717 406.51 215.75C405.976 215.75 405.443 215.717 404.91 215.65C404.376 215.583 403.893 215.45 403.46 215.25C402.993 215.017 402.643 214.683 402.41 214.25C402.21 213.883 402.126 213.5 402.16 213.1C402.16 212.7 402.226 212.3 402.36 211.9C402.46 211.467 402.61 211.067 402.81 210.7C402.976 210.3 403.16 209.95 403.36 209.65C403.893 208.883 404.526 208.183 405.26 207.55C405.993 206.883 406.826 206.417 407.76 206.15C408.693 205.917 409.493 205.917 410.16 206.15C410.826 206.383 411.276 206.733 411.51 207.2C411.743 207.667 411.71 208.2 411.41 208.8C411.143 209.367 410.51 209.85 409.51 210.25C409.043 210.417 408.493 210.567 407.86 210.7C407.26 210.833 406.56 210.933 405.76 211C405.16 212.033 404.943 212.8 405.11 213.3C405.143 213.533 405.276 213.7 405.51 213.8C405.743 213.9 405.993 213.983 406.26 214.05C406.56 214.083 406.843 214.1 407.11 214.1C407.41 214.067 407.643 214.033 407.81 214ZM420.333 209.5C420.966 210.167 421.566 210.833 422.133 211.5C422.699 212.133 423.166 212.9 423.533 213.8C423.599 213.733 423.649 213.7 423.683 213.7C423.749 213.667 423.816 213.633 423.883 213.6C426.216 212.267 427.983 210.883 429.183 209.45C429.316 209.283 429.483 209.2 429.683 209.2C429.916 209.167 430.116 209.217 430.283 209.35C430.449 209.517 430.549 209.717 430.583 209.95C430.616 210.15 430.549 210.333 430.383 210.5C429.049 212.1 427.133 213.6 424.633 215C424.533 215.067 424.416 215.133 424.283 215.2C424.183 215.267 424.066 215.333 423.933 215.4C423.999 216 423.933 216.65 423.733 217.35C423.566 218.017 423.233 218.733 422.733 219.5C421.966 220.633 421.049 221.467 419.983 222C418.983 222.5 417.999 222.767 417.033 222.8C416.066 222.8 415.199 222.667 414.433 222.4C413.666 222.133 413.066 221.767 412.633 221.3C412.166 220.8 411.966 220.267 412.033 219.7C412.099 219.133 412.466 218.583 413.133 218.05C413.799 217.483 414.866 217 416.333 216.6C418.066 216.133 419.566 215.617 420.833 215.05C420.666 214.217 420.333 213.483 419.833 212.85C419.333 212.217 418.849 211.667 418.383 211.2C418.049 210.867 417.749 210.517 417.483 210.15C417.216 209.75 417.049 209.367 416.983 209C416.883 208.6 416.916 208.2 417.083 207.8C417.249 207.4 417.583 207.017 418.083 206.65C418.316 206.483 418.599 206.333 418.933 206.2C419.266 206.067 419.616 205.983 419.983 205.95C420.349 205.883 420.699 205.9 421.033 206C421.366 206.067 421.633 206.25 421.833 206.55C422.066 206.883 422.066 207.283 421.833 207.75C421.633 208.183 421.133 208.767 420.333 209.5ZM418.583 220.15C419.149 219.783 419.633 219.283 420.033 218.65C420.466 218.05 420.733 217.433 420.833 216.8C419.533 217.333 418.166 217.767 416.733 218.1C415.133 218.533 414.183 218.983 413.883 219.45C413.583 219.917 413.666 220.3 414.133 220.6C414.566 220.867 415.233 221 416.133 221C416.999 221 417.816 220.717 418.583 220.15Z" fill="#F1523C"/>
</svg>
