<svg width="584" height="160" viewBox="0 0 584 160" fill="none" xmlns="http://www.w3.org/2000/svg">
<path d="M17.2852 127C17.2852 127 17.2852 102.684 17.2852 54.0508C17.2852 54.0508 11.7969 54.0508 0.820312 54.0508C0.820312 54.0508 0.820312 48.8164 0.820312 38.3477C0.820312 38.3477 17.2656 38.3477 50.1562 38.3477C50.1562 38.3477 50.1562 43.582 50.1562 54.0508C50.1562 54.0508 44.668 54.0508 33.6914 54.0508C33.6914 54.0508 33.6914 78.3672 33.6914 127C33.6914 127 28.2227 127 17.2852 127ZM118.301 100.867C118.301 100.867 101.133 100.867 66.7969 100.867C67.7734 104.891 69.9023 108.074 73.1836 110.418C76.4648 112.762 80.4688 113.934 85.1953 113.934C88.4766 113.934 91.2109 113.445 93.3984 112.469C95.5859 111.453 97.7148 109.734 99.7852 107.312H117.188C116.25 110.32 114.492 113.406 111.914 116.57C105.039 124.578 96.25 128.582 85.5469 128.582C80.5469 128.582 75.8203 127.684 71.3672 125.887C66.9141 124.09 63.0859 121.668 59.8828 118.621C56.7188 115.535 54.1992 111.863 52.3242 107.605C50.4492 103.309 49.5117 98.7773 49.5117 94.0117C49.5117 87.6055 51.0547 81.7266 54.1406 76.375C57.2656 70.9844 61.5039 66.7461 66.8555 63.6602C72.2461 60.5352 78.1445 58.9727 84.5508 58.9727C91.0742 58.9727 96.9531 60.5156 102.188 63.6016C107.422 66.6484 111.504 70.9062 114.434 76.375C117.402 81.8047 118.887 87.918 118.887 94.7148C118.887 96.9023 118.691 98.9531 118.301 100.867ZM66.3281 86.8047H103.184C102.168 82.5469 100.078 79.2852 96.9141 77.0195C93.75 74.7539 89.707 73.6211 84.7852 73.6211C80.0195 73.6211 76.0547 74.7539 72.8906 77.0195C69.7656 79.2461 67.5781 82.5078 66.3281 86.8047ZM117.773 127C117.773 127 125.625 115.555 141.328 92.6641C141.328 92.6641 134.512 81.9414 120.879 60.4961C120.879 60.4961 126.895 60.4961 138.926 60.4961C138.926 60.4961 142.91 67.1758 150.879 80.5352C150.879 80.5352 154.805 73.8555 162.656 60.4961C162.656 60.4961 168.652 60.4961 180.645 60.4961C180.645 60.4961 173.887 71.2188 160.371 92.6641C160.371 92.6641 168.262 104.109 184.043 127C184.043 127 177.637 127 164.824 127C164.824 127 160.176 119.402 150.879 104.207C150.879 104.207 146.25 111.805 136.992 127C136.992 127 130.586 127 117.773 127ZM193.242 127C193.242 127 193.242 121.883 193.242 111.648C193.242 111.648 198.555 111.648 209.18 111.648C209.18 111.648 209.18 116.766 209.18 127C209.18 127 203.867 127 193.242 127ZM309.316 60.4961V127H293.379V103.094C287.793 104.148 282.91 104.676 278.73 104.676C271.582 104.676 265.996 102.508 261.973 98.1719C257.949 93.7969 255.938 87.6836 255.938 79.832V60.4961H271.875V79.832C271.875 83.8555 272.637 86.5898 274.16 88.0352C275.684 89.4414 278.594 90.1445 282.891 90.1445C286.562 90.1445 290.059 89.793 293.379 89.0898V60.4961H309.316ZM389.355 60.4961C389.355 60.4961 389.355 82.6641 389.355 127C389.355 127 384.492 127 374.766 127C374.766 127 374.766 124.129 374.766 118.387C371.562 122.02 368.242 124.637 364.805 126.238C361.406 127.801 357.363 128.582 352.676 128.582C346.27 128.582 340.508 127.117 335.391 124.188C330.312 121.219 326.328 117.098 323.438 111.824C320.586 106.551 319.16 100.613 319.16 94.0117C319.16 87.332 320.605 81.3359 323.496 76.0234C326.387 70.6719 330.41 66.4922 335.566 63.4844C340.723 60.4766 346.543 58.9727 353.027 58.9727C357.832 58.9727 361.973 59.8125 365.449 61.4922C368.926 63.1328 372.031 65.7695 374.766 69.4023V60.4961H389.355ZM354.434 73.6211C348.887 73.6211 344.297 75.5742 340.664 79.4805C337.07 83.3867 335.273 88.3477 335.273 94.3633C335.273 100.184 337.09 104.91 340.723 108.543C344.395 112.137 349.141 113.934 354.961 113.934C360.742 113.934 365.391 112.098 368.906 108.426C372.461 104.754 374.238 99.9492 374.238 94.0117C374.238 87.9961 372.383 83.0938 368.672 79.3047C365 75.5156 360.254 73.6211 354.434 73.6211ZM449.766 105.145C449.766 105.145 455.762 105.145 467.754 105.145C464.98 112.605 460.723 118.387 454.98 122.488C449.277 126.551 442.539 128.582 434.766 128.582C429.922 128.582 425.293 127.664 420.879 125.828C416.504 123.992 412.734 121.531 409.57 118.445C406.406 115.359 403.887 111.668 402.012 107.371C400.137 103.074 399.199 98.543 399.199 93.7773C399.199 87.3711 400.742 81.5117 403.828 76.1992C406.914 70.8477 411.133 66.6484 416.484 63.6016C421.875 60.5156 427.793 58.9727 434.238 58.9727C439.004 58.9727 443.535 59.832 447.832 61.5508C452.168 63.2305 455.957 65.6523 459.199 68.8164C461.309 70.8867 462.969 72.918 464.18 74.9102C465.43 76.8633 466.621 79.4609 467.754 82.7031H449.766C446.641 76.6484 441.465 73.6211 434.238 73.6211C428.691 73.6211 424.141 75.4961 420.586 79.2461C417.07 82.957 415.312 87.7617 415.312 93.6602C415.312 99.4805 417.148 104.324 420.82 108.191C424.531 112.02 429.141 113.934 434.648 113.934C437.93 113.934 440.762 113.23 443.145 111.824C445.566 110.418 447.773 108.191 449.766 105.145ZM519.961 75.0273C519.961 75.0273 514.785 75.0273 504.434 75.0273C504.434 75.0273 504.434 92.3516 504.434 127C504.434 127 499.121 127 488.496 127C488.496 127 488.496 109.676 488.496 75.0273C488.496 75.0273 483.34 75.0273 473.027 75.0273C473.027 75.0273 473.027 70.1836 473.027 60.4961C473.027 60.4961 488.672 60.4961 519.961 60.4961C519.961 60.4961 519.961 65.3398 519.961 75.0273ZM544.512 97.8203C544.512 97.8203 544.512 102.703 544.512 112.469C544.512 112.469 548.594 112.469 556.758 112.469C559.141 112.469 561.074 111.785 562.559 110.418C564.043 109.051 564.785 107.293 564.785 105.145C564.785 102.996 564.043 101.238 562.559 99.8711C561.074 98.5039 559.141 97.8203 556.758 97.8203H544.512ZM557.812 83.3477C564.57 83.3477 570.098 85.4766 574.395 89.7344C578.73 93.9531 580.898 99.0898 580.898 105.145C580.898 111.199 578.73 116.355 574.395 120.613C570.098 124.871 564.57 127 557.812 127H528.574C528.574 127 528.574 104.832 528.574 60.4961C528.574 60.4961 533.887 60.4961 544.512 60.4961C544.512 60.4961 544.512 68.1133 544.512 83.3477C544.512 83.3477 548.945 83.3477 557.812 83.3477Z" fill="#1D1D1D"/>
<path d="M370.85 40.65C371.183 40.0833 371.633 39.5 372.2 38.9C372.8 38.3 373.433 37.8167 374.1 37.45C374.567 37.1833 375.067 37 375.6 36.9C376.133 36.8 376.633 36.8 377.1 36.9C377.6 37 378.017 37.2167 378.35 37.55C378.717 37.8833 378.967 38.35 379.1 38.95C379.167 39.1833 379.133 39.3833 379 39.55C378.867 39.7167 378.7 39.8333 378.5 39.9C378.267 39.9667 378.067 39.9333 377.9 39.8C377.733 39.6667 377.617 39.5 377.55 39.3C377.45 38.7667 377.25 38.5333 376.95 38.6C376.65 38.6333 376.317 38.7667 375.95 39C375.483 39.3 375.033 39.6833 374.6 40.15C374.2 40.5833 373.867 41.0167 373.6 41.45C372.733 42.8833 372.417 43.9 372.65 44.5C372.917 45.0667 373.883 45.2333 375.55 45C376.383 44.8667 377.267 44.65 378.2 44.35C379.133 44.05 380.05 43.7 380.95 43.3C381.85 42.8667 382.7 42.4167 383.5 41.95C384.3 41.45 384.967 40.95 385.5 40.45C385.667 40.2833 385.85 40.2167 386.05 40.25C386.283 40.25 386.483 40.3333 386.65 40.5C386.983 40.9 386.967 41.2833 386.6 41.65C386 42.1833 385.267 42.7167 384.4 43.25C383.533 43.7833 382.6 44.2833 381.6 44.75C380.633 45.1833 379.633 45.5667 378.6 45.9C377.6 46.2 376.667 46.4167 375.8 46.55C374.633 46.7167 373.567 46.75 372.6 46.65C371.667 46.55 370.95 46.2667 370.45 45.8C369.917 45.3333 369.667 44.6833 369.7 43.85C369.7 43.0167 370.083 41.95 370.85 40.65ZM389.802 39.75C389.435 39.9833 389.085 40.2667 388.752 40.6C388.452 40.9333 388.185 41.2833 387.952 41.65C387.552 42.25 387.302 42.85 387.202 43.45C387.069 44.1167 387.102 44.5667 387.302 44.8C387.502 45 387.785 45.0833 388.152 45.05C388.519 44.9833 388.902 44.8333 389.302 44.6C389.735 44.3333 390.102 44.0333 390.402 43.7C390.802 43.2 391.119 42.6833 391.352 42.15C391.252 42.0833 391.152 42.0167 391.052 41.95C390.952 41.85 390.869 41.7667 390.802 41.7C390.269 41.1667 389.935 40.5167 389.802 39.75ZM389.452 37.65C389.652 37.6167 389.869 37.65 390.102 37.75C390.335 37.45 390.602 37.3 390.902 37.3C391.202 37.2333 391.485 37.2833 391.752 37.45C392.019 37.6167 392.269 37.85 392.502 38.15C392.735 38.45 392.935 38.8 393.102 39.2C393.235 39.5333 393.302 39.8833 393.302 40.25C393.335 40.6167 393.319 40.9833 393.252 41.35L393.702 41.5C394.469 41.6333 395.302 41.65 396.202 41.55C396.702 41.4833 397.169 41.35 397.602 41.15C398.069 40.95 398.435 40.7167 398.702 40.45C398.869 40.2833 399.052 40.2167 399.252 40.25C399.485 40.25 399.685 40.3333 399.852 40.5C400.019 40.6667 400.102 40.85 400.102 41.05C400.102 41.25 400.019 41.4333 399.852 41.6C399.419 42 398.902 42.3333 398.302 42.6C397.702 42.8333 397.069 43 396.402 43.1C395.335 43.2667 394.335 43.25 393.402 43.05C393.135 42.9833 392.919 42.9167 392.752 42.85C392.485 43.4833 392.102 44.1 391.602 44.7C391.035 45.3667 390.285 45.8833 389.352 46.25C388.452 46.5833 387.585 46.7167 386.752 46.65C385.919 46.5833 385.252 46.2833 384.752 45.75C384.219 45.1833 384.069 44.3167 384.302 43.15C384.469 42.2833 384.785 41.5 385.252 40.8C385.719 40.0667 386.302 39.4167 387.002 38.85C387.735 38.25 388.552 37.85 389.452 37.65ZM391.702 40.35C391.702 40.15 391.669 39.95 391.602 39.75C391.569 39.6167 391.485 39.45 391.352 39.25C391.352 39.3167 391.352 39.3667 391.352 39.4C391.385 39.4333 391.402 39.4833 391.402 39.55C391.435 39.8167 391.535 40.0833 391.702 40.35ZM399.786 38.85C399.986 38.5833 400.269 38.4167 400.636 38.35C401.036 38.25 401.402 38.25 401.736 38.35C402.069 38.4167 402.302 38.5833 402.436 38.85C402.569 39.0833 402.502 39.4 402.236 39.8C401.569 40.7333 400.836 41.8167 400.036 43.05C399.269 44.2833 398.602 45.4667 398.036 46.6C397.669 47.4 397.386 48.0667 397.186 48.6C397.486 48.3333 397.819 48.0167 398.186 47.65C398.552 47.25 398.952 46.8167 399.386 46.35C399.952 45.75 400.552 45.1167 401.186 44.45C401.852 43.7833 402.519 43.15 403.186 42.55C403.886 41.9167 404.569 41.3333 405.236 40.8C405.902 40.2667 406.536 39.8167 407.136 39.45C407.169 39.4167 407.202 39.4 407.236 39.4C407.269 39.3667 407.302 39.3333 407.336 39.3C407.869 39.0333 408.352 38.85 408.786 38.75C409.552 38.5833 410.119 38.7167 410.486 39.15C410.852 39.5833 411.119 40.1833 411.286 40.95C411.352 41.2167 411.402 41.5 411.436 41.8C411.469 42.1 411.502 42.4 411.536 42.7C411.602 43.1333 411.652 43.55 411.686 43.95C411.752 44.35 411.836 44.7 411.936 45C412.102 45.5667 412.352 45.9167 412.686 46.05C413.019 46.1833 413.386 46.2 413.786 46.1C414.186 45.9667 414.586 45.7667 414.986 45.5C415.386 45.2 415.736 44.9333 416.036 44.7C416.602 44.2333 417.269 43.6667 418.036 43C418.802 42.3 419.669 41.45 420.636 40.45C420.802 40.2833 420.986 40.2 421.186 40.2C421.419 40.2 421.619 40.2833 421.786 40.45C421.952 40.6167 422.036 40.8167 422.036 41.05C422.036 41.25 421.952 41.4333 421.786 41.6C420.852 42.5667 419.986 43.4 419.186 44.1C418.419 44.7667 417.702 45.35 417.036 45.85C416.536 46.2167 415.936 46.6 415.236 47C414.569 47.4 413.886 47.7 413.186 47.9C412.519 48.0667 411.869 48.0667 411.236 47.9C410.602 47.7333 410.086 47.2667 409.686 46.5C409.452 46.0333 409.269 45.55 409.136 45.05C409.036 44.5167 408.936 43.9667 408.836 43.4C408.769 43.1333 408.719 42.8333 408.686 42.5C408.652 42.1333 408.586 41.8167 408.486 41.55C408.386 41.2833 408.236 41.1 408.036 41C407.869 40.9 407.619 40.9667 407.286 41.2C406.786 41.5667 406.236 42 405.636 42.5C405.069 42.9667 404.486 43.4833 403.886 44.05C403.319 44.6167 402.736 45.2 402.136 45.8C401.569 46.3667 401.036 46.9167 400.536 47.45C400.069 47.9167 399.636 48.3667 399.236 48.8C398.836 49.2 398.469 49.55 398.136 49.85V49.9C397.736 50.3 397.302 50.6167 396.836 50.85C396.369 51.0833 395.936 51.1667 395.536 51.1C395.302 51.1 395.102 51.0667 394.936 51C394.769 50.9 394.636 50.8 394.536 50.7C394.402 50.5667 394.319 50.45 394.286 50.35C394.052 49.8833 394.052 49.2833 394.286 48.55C394.486 47.7833 394.819 46.9333 395.286 46C395.886 44.8333 396.619 43.6 397.486 42.3C398.319 40.9667 399.086 39.8167 399.786 38.85ZM421.758 38.85C421.958 38.5833 422.242 38.4167 422.608 38.35C423.008 38.25 423.375 38.25 423.708 38.35C424.042 38.4167 424.275 38.5833 424.408 38.85C424.542 39.0833 424.475 39.4 424.208 39.8C423.542 40.7333 422.808 41.8167 422.008 43.05C421.242 44.2833 420.575 45.4667 420.008 46.6C419.642 47.4 419.358 48.0667 419.158 48.6C419.458 48.3333 419.792 48.0167 420.158 47.65C420.525 47.25 420.925 46.8167 421.358 46.35C421.925 45.75 422.525 45.1167 423.158 44.45C423.825 43.7833 424.492 43.15 425.158 42.55C425.858 41.9167 426.542 41.3333 427.208 40.8C427.875 40.2667 428.508 39.8167 429.108 39.45C429.142 39.4167 429.175 39.4 429.208 39.4C429.242 39.3667 429.275 39.3333 429.308 39.3C429.842 39.0333 430.325 38.85 430.758 38.75C431.525 38.5833 432.092 38.7167 432.458 39.15C432.825 39.5833 433.092 40.1833 433.258 40.95C433.325 41.2167 433.375 41.5 433.408 41.8C433.442 42.1 433.475 42.4 433.508 42.7C433.575 43.1333 433.625 43.55 433.658 43.95C433.725 44.35 433.808 44.7 433.908 45C434.075 45.5667 434.325 45.9167 434.658 46.05C434.992 46.1833 435.358 46.2 435.758 46.1C436.158 45.9667 436.558 45.7667 436.958 45.5C437.358 45.2 437.708 44.9333 438.008 44.7C438.575 44.2333 439.242 43.6667 440.008 43C440.775 42.3 441.642 41.45 442.608 40.45C442.775 40.2833 442.958 40.2 443.158 40.2C443.392 40.2 443.592 40.2833 443.758 40.45C443.925 40.6167 444.008 40.8167 444.008 41.05C444.008 41.25 443.925 41.4333 443.758 41.6C442.825 42.5667 441.958 43.4 441.158 44.1C440.392 44.7667 439.675 45.35 439.008 45.85C438.508 46.2167 437.908 46.6 437.208 47C436.542 47.4 435.858 47.7 435.158 47.9C434.492 48.0667 433.842 48.0667 433.208 47.9C432.575 47.7333 432.058 47.2667 431.658 46.5C431.425 46.0333 431.242 45.55 431.108 45.05C431.008 44.5167 430.908 43.9667 430.808 43.4C430.742 43.1333 430.692 42.8333 430.658 42.5C430.625 42.1333 430.558 41.8167 430.458 41.55C430.358 41.2833 430.208 41.1 430.008 41C429.842 40.9 429.592 40.9667 429.258 41.2C428.758 41.5667 428.208 42 427.608 42.5C427.042 42.9667 426.458 43.4833 425.858 44.05C425.292 44.6167 424.708 45.2 424.108 45.8C423.542 46.3667 423.008 46.9167 422.508 47.45C422.042 47.9167 421.608 48.3667 421.208 48.8C420.808 49.2 420.442 49.55 420.108 49.85V49.9C419.708 50.3 419.275 50.6167 418.808 50.85C418.342 51.0833 417.908 51.1667 417.508 51.1C417.275 51.1 417.075 51.0667 416.908 51C416.742 50.9 416.608 50.8 416.508 50.7C416.375 50.5667 416.292 50.45 416.258 50.35C416.025 49.8833 416.025 49.2833 416.258 48.55C416.458 47.7833 416.792 46.9333 417.258 46C417.858 44.8333 418.592 43.6 419.458 42.3C420.292 40.9667 421.058 39.8167 421.758 38.85ZM447.731 38.95C447.464 39.0833 447.198 39.25 446.931 39.45C446.664 39.65 446.398 39.9333 446.131 40.3C446.964 40.1333 447.564 39.9667 447.931 39.8C448.464 39.6 448.814 39.4167 448.981 39.25C449.148 39.0833 449.198 38.95 449.131 38.85C449.064 38.75 448.898 38.7 448.631 38.7C448.364 38.7 448.064 38.7833 447.731 38.95ZM446.931 45C447.664 44.9 448.448 44.7167 449.281 44.45C450.148 44.1833 450.998 43.85 451.831 43.45C452.698 43.05 453.498 42.6 454.231 42.1C454.998 41.5667 455.664 41.0167 456.231 40.45C456.398 40.2833 456.581 40.2 456.781 40.2C457.014 40.1667 457.214 40.2333 457.381 40.4C457.748 40.8 457.748 41.1833 457.381 41.55C456.781 42.1833 456.048 42.7833 455.181 43.35C454.348 43.9167 453.464 44.4333 452.531 44.9C451.631 45.3333 450.698 45.7 449.731 46C448.798 46.3 447.914 46.5 447.081 46.6C446.681 46.6667 446.198 46.7167 445.631 46.75C445.098 46.75 444.564 46.7167 444.031 46.65C443.498 46.5833 443.014 46.45 442.581 46.25C442.114 46.0167 441.764 45.6833 441.531 45.25C441.331 44.8833 441.248 44.5 441.281 44.1C441.281 43.7 441.348 43.3 441.481 42.9C441.581 42.4667 441.731 42.0667 441.931 41.7C442.098 41.3 442.281 40.95 442.481 40.65C443.014 39.8833 443.648 39.1833 444.381 38.55C445.114 37.8833 445.948 37.4167 446.881 37.15C447.814 36.9167 448.614 36.9167 449.281 37.15C449.948 37.3833 450.398 37.7333 450.631 38.2C450.864 38.6667 450.831 39.2 450.531 39.8C450.264 40.3667 449.631 40.85 448.631 41.25C448.164 41.4167 447.614 41.5667 446.981 41.7C446.381 41.8333 445.681 41.9333 444.881 42C444.281 43.0333 444.064 43.8 444.231 44.3C444.264 44.5333 444.398 44.7 444.631 44.8C444.864 44.9 445.114 44.9833 445.381 45.05C445.681 45.0833 445.964 45.1 446.231 45.1C446.531 45.0667 446.764 45.0333 446.931 45ZM456.104 40.65C456.437 40.0833 456.887 39.5 457.454 38.9C458.054 38.3 458.687 37.8167 459.354 37.45C459.821 37.1833 460.321 37 460.854 36.9C461.387 36.8 461.887 36.8 462.354 36.9C462.854 37 463.271 37.2167 463.604 37.55C463.971 37.8833 464.221 38.35 464.354 38.95C464.421 39.1833 464.387 39.3833 464.254 39.55C464.121 39.7167 463.954 39.8333 463.754 39.9C463.521 39.9667 463.321 39.9333 463.154 39.8C462.987 39.6667 462.871 39.5 462.804 39.3C462.704 38.7667 462.504 38.5333 462.204 38.6C461.904 38.6333 461.571 38.7667 461.204 39C460.737 39.3 460.287 39.6833 459.854 40.15C459.454 40.5833 459.121 41.0167 458.854 41.45C457.987 42.8833 457.671 43.9 457.904 44.5C458.171 45.0667 459.137 45.2333 460.804 45C461.637 44.8667 462.521 44.65 463.454 44.35C464.387 44.05 465.304 43.7 466.204 43.3C467.104 42.8667 467.954 42.4167 468.754 41.95C469.554 41.45 470.221 40.95 470.754 40.45C470.921 40.2833 471.104 40.2167 471.304 40.25C471.537 40.25 471.737 40.3333 471.904 40.5C472.237 40.9 472.221 41.2833 471.854 41.65C471.254 42.1833 470.521 42.7167 469.654 43.25C468.787 43.7833 467.854 44.2833 466.854 44.75C465.887 45.1833 464.887 45.5667 463.854 45.9C462.854 46.2 461.921 46.4167 461.054 46.55C459.887 46.7167 458.821 46.75 457.854 46.65C456.921 46.55 456.204 46.2667 455.704 45.8C455.171 45.3333 454.921 44.6833 454.954 43.85C454.954 43.0167 455.337 41.95 456.104 40.65ZM472.506 28.5C471.973 28.5 471.706 28.2333 471.706 27.7C471.673 27.5 471.723 27.3167 471.856 27.15C472.023 26.9833 472.223 26.9 472.456 26.9L478.506 26.75C479.106 25.8167 479.656 24.95 480.156 24.15C480.656 23.35 481.089 22.6667 481.456 22.1C481.823 21.5 482.123 21.05 482.356 20.75C482.589 20.4167 482.706 20.25 482.706 20.25C482.806 20.05 483.056 19.9167 483.456 19.85C483.856 19.7833 484.239 19.7833 484.606 19.85C484.973 19.8833 485.256 20.0167 485.456 20.25C485.656 20.45 485.623 20.7333 485.356 21.1C485.356 21.1333 485.006 21.6667 484.306 22.7C483.639 23.7 482.789 25.0333 481.756 26.7L486.206 26.55C486.739 26.55 487.006 26.8167 487.006 27.35C487.039 27.5833 486.973 27.7833 486.806 27.95C486.673 28.0833 486.489 28.15 486.256 28.15L480.756 28.3C480.023 29.5 479.256 30.7833 478.456 32.15C477.656 33.4833 476.873 34.85 476.106 36.25C475.339 37.6167 474.606 38.9833 473.906 40.35C473.239 41.7167 472.656 43 472.156 44.2C471.389 45.9667 470.956 47.3 470.856 48.2C470.789 49.0667 470.973 49.6 471.406 49.8C471.873 49.9667 472.556 49.8667 473.456 49.5C474.356 49.1 475.439 48.5333 476.706 47.8C477.606 47.2667 478.506 46.6833 479.406 46.05C480.306 45.3833 481.139 44.7333 481.906 44.1C482.673 43.4333 483.356 42.7833 483.956 42.15C484.589 41.5167 485.073 40.95 485.406 40.45C485.506 40.2833 485.656 40.1833 485.856 40.15C486.089 40.0833 486.306 40.1167 486.506 40.25C486.673 40.3833 486.773 40.5667 486.806 40.8C486.873 41 486.839 41.1833 486.706 41.35C486.339 41.8833 485.839 42.4833 485.206 43.15C484.606 43.7833 483.906 44.4333 483.106 45.1C482.339 45.7667 481.489 46.4333 480.556 47.1C479.656 47.7667 478.739 48.3833 477.806 48.95C476.239 49.9167 474.723 50.6333 473.256 51.1C471.789 51.5667 470.606 51.6667 469.706 51.4C468.773 51.1 468.223 50.35 468.056 49.15C467.856 47.9167 468.273 46.0667 469.306 43.6C469.806 42.4667 470.373 41.25 471.006 39.95C471.639 38.65 472.323 37.35 473.056 36.05C473.789 34.7167 474.539 33.4 475.306 32.1C476.073 30.8 476.806 29.55 477.506 28.35L472.506 28.5ZM492.854 33.85L491.654 34.75C491.421 34.9167 491.154 35.0333 490.854 35.1C490.588 35.1667 490.354 35.1833 490.154 35.15C489.954 35.0833 489.821 34.95 489.754 34.75C489.721 34.55 489.821 34.25 490.054 33.85L490.454 33.1C490.688 32.7 491.004 32.4667 491.404 32.4C491.838 32.3 492.221 32.3167 492.554 32.45C492.921 32.5833 493.154 32.7833 493.254 33.05C493.388 33.3167 493.254 33.5833 492.854 33.85ZM490.354 37.75C489.621 38.7167 488.854 39.8333 488.054 41.1C487.288 42.3333 486.704 43.5 486.304 44.6C486.104 45.1667 486.021 45.5833 486.054 45.85C486.121 46.0833 486.271 46.2167 486.504 46.25C486.738 46.2833 487.021 46.2333 487.354 46.1C487.688 45.9333 488.054 45.75 488.454 45.55C489.154 45.15 489.904 44.6667 490.704 44.1C491.504 43.5333 492.254 42.9833 492.954 42.45C493.654 41.9167 494.238 41.45 494.704 41.05C495.171 40.65 495.404 40.45 495.404 40.45C495.571 40.3167 495.754 40.2667 495.954 40.3C496.154 40.3 496.338 40.3833 496.504 40.55C496.671 40.7167 496.738 40.9167 496.704 41.15C496.671 41.35 496.571 41.5333 496.404 41.7C495.671 42.3 494.904 42.9 494.104 43.5C493.438 44 492.671 44.5333 491.804 45.1C490.971 45.6667 490.138 46.1667 489.304 46.6C488.638 46.9333 487.904 47.2167 487.104 47.45C486.304 47.65 485.604 47.7 485.004 47.6C484.404 47.4667 483.971 47.1333 483.704 46.6C483.438 46.0333 483.521 45.15 483.954 43.95C484.221 43.2167 484.471 42.55 484.704 41.95C484.938 41.3167 485.188 40.7333 485.454 40.2C485.754 39.6333 486.071 39.0833 486.404 38.55C486.771 38.0167 487.204 37.4333 487.704 36.8C487.838 36.5667 488.104 36.4167 488.504 36.35C488.938 36.25 489.338 36.2333 489.704 36.3C490.071 36.3667 490.338 36.5333 490.504 36.8C490.704 37.0333 490.654 37.35 490.354 37.75ZM499.714 39.75C499.347 39.9833 498.997 40.2667 498.664 40.6C498.364 40.9333 498.097 41.2833 497.864 41.65C497.464 42.25 497.214 42.85 497.114 43.45C496.981 44.1167 497.014 44.5667 497.214 44.8C497.414 45 497.697 45.0833 498.064 45.05C498.431 44.9833 498.814 44.8333 499.214 44.6C499.647 44.3333 500.014 44.0333 500.314 43.7C500.714 43.2 501.031 42.6833 501.264 42.15C501.164 42.0833 501.064 42.0167 500.964 41.95C500.864 41.85 500.781 41.7667 500.714 41.7C500.181 41.1667 499.847 40.5167 499.714 39.75ZM499.364 37.65C499.564 37.6167 499.781 37.65 500.014 37.75C500.247 37.45 500.514 37.3 500.814 37.3C501.114 37.2333 501.397 37.2833 501.664 37.45C501.931 37.6167 502.181 37.85 502.414 38.15C502.647 38.45 502.847 38.8 503.014 39.2C503.147 39.5333 503.214 39.8833 503.214 40.25C503.247 40.6167 503.231 40.9833 503.164 41.35L503.614 41.5C504.381 41.6333 505.214 41.65 506.114 41.55C506.614 41.4833 507.081 41.35 507.514 41.15C507.981 40.95 508.347 40.7167 508.614 40.45C508.781 40.2833 508.964 40.2167 509.164 40.25C509.397 40.25 509.597 40.3333 509.764 40.5C509.931 40.6667 510.014 40.85 510.014 41.05C510.014 41.25 509.931 41.4333 509.764 41.6C509.331 42 508.814 42.3333 508.214 42.6C507.614 42.8333 506.981 43 506.314 43.1C505.247 43.2667 504.247 43.25 503.314 43.05C503.047 42.9833 502.831 42.9167 502.664 42.85C502.397 43.4833 502.014 44.1 501.514 44.7C500.947 45.3667 500.197 45.8833 499.264 46.25C498.364 46.5833 497.497 46.7167 496.664 46.65C495.831 46.5833 495.164 46.2833 494.664 45.75C494.131 45.1833 493.981 44.3167 494.214 43.15C494.381 42.2833 494.697 41.5 495.164 40.8C495.631 40.0667 496.214 39.4167 496.914 38.85C497.647 38.25 498.464 37.85 499.364 37.65ZM501.614 40.35C501.614 40.15 501.581 39.95 501.514 39.75C501.481 39.6167 501.397 39.45 501.264 39.25C501.264 39.3167 501.264 39.3667 501.264 39.4C501.297 39.4333 501.314 39.4833 501.314 39.55C501.347 39.8167 501.447 40.0833 501.614 40.35ZM509.698 38.85C509.898 38.5833 510.181 38.4167 510.548 38.35C510.948 38.25 511.314 38.25 511.648 38.35C511.981 38.4167 512.214 38.5833 512.348 38.85C512.481 39.0833 512.414 39.4 512.148 39.8C511.481 40.7333 510.748 41.8167 509.948 43.05C509.181 44.2833 508.514 45.4667 507.948 46.6C507.581 47.4 507.298 48.0667 507.098 48.6C507.398 48.3333 507.731 48.0167 508.098 47.65C508.464 47.25 508.864 46.8167 509.298 46.35C509.864 45.75 510.464 45.1167 511.098 44.45C511.764 43.7833 512.431 43.15 513.098 42.55C513.798 41.9167 514.481 41.3333 515.148 40.8C515.814 40.2667 516.448 39.8167 517.048 39.45C517.081 39.4167 517.114 39.4 517.148 39.4C517.181 39.3667 517.214 39.3333 517.248 39.3C517.781 39.0333 518.264 38.85 518.698 38.75C519.464 38.5833 520.031 38.7167 520.398 39.15C520.764 39.5833 521.031 40.1833 521.198 40.95C521.264 41.2167 521.314 41.5 521.348 41.8C521.381 42.1 521.414 42.4 521.448 42.7C521.514 43.1333 521.564 43.55 521.598 43.95C521.664 44.35 521.748 44.7 521.848 45C522.014 45.5667 522.264 45.9167 522.598 46.05C522.931 46.1833 523.298 46.2 523.698 46.1C524.098 45.9667 524.498 45.7667 524.898 45.5C525.298 45.2 525.648 44.9333 525.948 44.7C526.514 44.2333 527.181 43.6667 527.948 43C528.714 42.3 529.581 41.45 530.548 40.45C530.714 40.2833 530.898 40.2 531.098 40.2C531.331 40.2 531.531 40.2833 531.698 40.45C531.864 40.6167 531.948 40.8167 531.948 41.05C531.948 41.25 531.864 41.4333 531.698 41.6C530.764 42.5667 529.898 43.4 529.098 44.1C528.331 44.7667 527.614 45.35 526.948 45.85C526.448 46.2167 525.848 46.6 525.148 47C524.481 47.4 523.798 47.7 523.098 47.9C522.431 48.0667 521.781 48.0667 521.148 47.9C520.514 47.7333 519.998 47.2667 519.598 46.5C519.364 46.0333 519.181 45.55 519.048 45.05C518.948 44.5167 518.848 43.9667 518.748 43.4C518.681 43.1333 518.631 42.8333 518.598 42.5C518.564 42.1333 518.498 41.8167 518.398 41.55C518.298 41.2833 518.148 41.1 517.948 41C517.781 40.9 517.531 40.9667 517.198 41.2C516.698 41.5667 516.148 42 515.548 42.5C514.981 42.9667 514.398 43.4833 513.798 44.05C513.231 44.6167 512.648 45.2 512.048 45.8C511.481 46.3667 510.948 46.9167 510.448 47.45C509.981 47.9167 509.548 48.3667 509.148 48.8C508.748 49.2 508.381 49.55 508.048 49.85V49.9C507.648 50.3 507.214 50.6167 506.748 50.85C506.281 51.0833 505.848 51.1667 505.448 51.1C505.214 51.1 505.014 51.0667 504.848 51C504.681 50.9 504.548 50.8 504.448 50.7C504.314 50.5667 504.231 50.45 504.198 50.35C503.964 49.8833 503.964 49.2833 504.198 48.55C504.398 47.7833 504.731 46.9333 505.198 46C505.798 44.8333 506.531 43.6 507.398 42.3C508.231 40.9667 508.998 39.8167 509.698 38.85Z" fill="#F1523C"/>
</svg>
