<svg width="398" height="160" viewBox="0 0 398 160" fill="none" xmlns="http://www.w3.org/2000/svg">
<path d="M17.2852 127C17.2852 127 17.2852 102.684 17.2852 54.0508C17.2852 54.0508 11.7969 54.0508 0.820312 54.0508C0.820312 54.0508 0.820312 48.8164 0.820312 38.3477C0.820312 38.3477 17.2656 38.3477 50.1562 38.3477C50.1562 38.3477 50.1562 43.582 50.1562 54.0508C50.1562 54.0508 44.668 54.0508 33.6914 54.0508C33.6914 54.0508 33.6914 78.3672 33.6914 127C33.6914 127 28.2227 127 17.2852 127ZM118.301 100.867C118.301 100.867 101.133 100.867 66.7969 100.867C67.7734 104.891 69.9023 108.074 73.1836 110.418C76.4648 112.762 80.4688 113.934 85.1953 113.934C88.4766 113.934 91.2109 113.445 93.3984 112.469C95.5859 111.453 97.7148 109.734 99.7852 107.312H117.188C116.25 110.32 114.492 113.406 111.914 116.57C105.039 124.578 96.25 128.582 85.5469 128.582C80.5469 128.582 75.8203 127.684 71.3672 125.887C66.9141 124.09 63.0859 121.668 59.8828 118.621C56.7188 115.535 54.1992 111.863 52.3242 107.605C50.4492 103.309 49.5117 98.7773 49.5117 94.0117C49.5117 87.6055 51.0547 81.7266 54.1406 76.375C57.2656 70.9844 61.5039 66.7461 66.8555 63.6602C72.2461 60.5352 78.1445 58.9727 84.5508 58.9727C91.0742 58.9727 96.9531 60.5156 102.188 63.6016C107.422 66.6484 111.504 70.9062 114.434 76.375C117.402 81.8047 118.887 87.918 118.887 94.7148C118.887 96.9023 118.691 98.9531 118.301 100.867ZM66.3281 86.8047H103.184C102.168 82.5469 100.078 79.2852 96.9141 77.0195C93.75 74.7539 89.707 73.6211 84.7852 73.6211C80.0195 73.6211 76.0547 74.7539 72.8906 77.0195C69.7656 79.2461 67.5781 82.5078 66.3281 86.8047ZM128.73 127C128.73 127 128.73 104.832 128.73 60.4961C128.73 60.4961 134.043 60.4961 144.668 60.4961C144.668 60.4961 144.668 70.7109 144.668 91.1406C144.668 91.1406 152.344 80.9258 167.695 60.4961C167.695 60.4961 174.141 60.4961 187.031 60.4961C187.031 60.4961 178.184 71.5117 160.488 93.543C160.488 93.543 169.805 104.695 188.438 127C188.438 127 181.523 127 167.695 127C167.695 127 160.02 116.805 144.668 96.4141C144.668 96.4141 144.668 106.609 144.668 127C144.668 127 139.355 127 128.73 127ZM237.773 105.145C237.773 105.145 243.77 105.145 255.762 105.145C252.988 112.605 248.73 118.387 242.988 122.488C237.285 126.551 230.547 128.582 222.773 128.582C217.93 128.582 213.301 127.664 208.887 125.828C204.512 123.992 200.742 121.531 197.578 118.445C194.414 115.359 191.895 111.668 190.02 107.371C188.145 103.074 187.207 98.543 187.207 93.7773C187.207 87.3711 188.75 81.5117 191.836 76.1992C194.922 70.8477 199.141 66.6484 204.492 63.6016C209.883 60.5156 215.801 58.9727 222.246 58.9727C227.012 58.9727 231.543 59.832 235.84 61.5508C240.176 63.2305 243.965 65.6523 247.207 68.8164C249.316 70.8867 250.977 72.918 252.188 74.9102C253.438 76.8633 254.629 79.4609 255.762 82.7031H237.773C234.648 76.6484 229.473 73.6211 222.246 73.6211C216.699 73.6211 212.148 75.4961 208.594 79.2461C205.078 82.957 203.32 87.7617 203.32 93.6602C203.32 99.4805 205.156 104.324 208.828 108.191C212.539 112.02 217.148 113.934 222.656 113.934C225.938 113.934 228.77 113.23 231.152 111.824C233.574 110.418 235.781 108.191 237.773 105.145ZM307.969 75.0273C307.969 75.0273 302.793 75.0273 292.441 75.0273C292.441 75.0273 292.441 92.3516 292.441 127C292.441 127 287.129 127 276.504 127C276.504 127 276.504 109.676 276.504 75.0273C276.504 75.0273 271.348 75.0273 261.035 75.0273C261.035 75.0273 261.035 70.1836 261.035 60.4961C261.035 60.4961 276.68 60.4961 307.969 60.4961C307.969 60.4961 307.969 65.3398 307.969 75.0273ZM332.52 97.8203C332.52 97.8203 332.52 102.703 332.52 112.469C332.52 112.469 336.602 112.469 344.766 112.469C347.148 112.469 349.082 111.785 350.566 110.418C352.051 109.051 352.793 107.293 352.793 105.145C352.793 102.996 352.051 101.238 350.566 99.8711C349.082 98.5039 347.148 97.8203 344.766 97.8203H332.52ZM345.82 83.3477C352.578 83.3477 358.105 85.4766 362.402 89.7344C366.738 93.9531 368.906 99.0898 368.906 105.145C368.906 111.199 366.738 116.355 362.402 120.613C358.105 124.871 352.578 127 345.82 127H316.582C316.582 127 316.582 104.832 316.582 60.4961C316.582 60.4961 321.895 60.4961 332.52 60.4961C332.52 60.4961 332.52 68.1133 332.52 83.3477C332.52 83.3477 336.953 83.3477 345.82 83.3477ZM374.883 127C374.883 127 374.883 104.832 374.883 60.4961C374.883 60.4961 380.195 60.4961 390.82 60.4961C390.82 60.4961 390.82 82.6641 390.82 127C390.82 127 385.508 127 374.883 127Z" fill="#1D1D1D"/>
<path d="M270.75 28.5C270.217 28.5 269.95 28.2333 269.95 27.7C269.917 27.5 269.967 27.3167 270.1 27.15C270.267 26.9833 270.467 26.9 270.7 26.9L276.75 26.75C277.35 25.8167 277.9 24.95 278.4 24.15C278.9 23.35 279.333 22.6667 279.7 22.1C280.067 21.5 280.367 21.05 280.6 20.75C280.833 20.4167 280.95 20.25 280.95 20.25C281.05 20.05 281.3 19.9167 281.7 19.85C282.1 19.7833 282.483 19.7833 282.85 19.85C283.217 19.8833 283.5 20.0167 283.7 20.25C283.9 20.45 283.867 20.7333 283.6 21.1C283.6 21.1333 283.25 21.6667 282.55 22.7C281.883 23.7 281.033 25.0333 280 26.7L284.45 26.55C284.983 26.55 285.25 26.8167 285.25 27.35C285.283 27.5833 285.217 27.7833 285.05 27.95C284.917 28.0833 284.733 28.15 284.5 28.15L279 28.3C278.267 29.5 277.5 30.7833 276.7 32.15C275.9 33.4833 275.117 34.85 274.35 36.25C273.583 37.6167 272.85 38.9833 272.15 40.35C271.483 41.7167 270.9 43 270.4 44.2C269.633 45.9667 269.2 47.3 269.1 48.2C269.033 49.0667 269.217 49.6 269.65 49.8C270.117 49.9667 270.8 49.8667 271.7 49.5C272.6 49.1 273.683 48.5333 274.95 47.8C275.85 47.2667 276.75 46.6833 277.65 46.05C278.55 45.3833 279.383 44.7333 280.15 44.1C280.917 43.4333 281.6 42.7833 282.2 42.15C282.833 41.5167 283.317 40.95 283.65 40.45C283.75 40.2833 283.9 40.1833 284.1 40.15C284.333 40.0833 284.55 40.1167 284.75 40.25C284.917 40.3833 285.017 40.5667 285.05 40.8C285.117 41 285.083 41.1833 284.95 41.35C284.583 41.8833 284.083 42.4833 283.45 43.15C282.85 43.7833 282.15 44.4333 281.35 45.1C280.583 45.7667 279.733 46.4333 278.8 47.1C277.9 47.7667 276.983 48.3833 276.05 48.95C274.483 49.9167 272.967 50.6333 271.5 51.1C270.033 51.5667 268.85 51.6667 267.95 51.4C267.017 51.1 266.467 50.35 266.3 49.15C266.1 47.9167 266.517 46.0667 267.55 43.6C268.05 42.4667 268.617 41.25 269.25 39.95C269.883 38.65 270.567 37.35 271.3 36.05C272.033 34.7167 272.783 33.4 273.55 32.1C274.317 30.8 275.05 29.55 275.75 28.35L270.75 28.5ZM288.748 38.95C288.482 39.0833 288.215 39.25 287.948 39.45C287.682 39.65 287.415 39.9333 287.148 40.3C287.982 40.1333 288.582 39.9667 288.948 39.8C289.482 39.6 289.832 39.4167 289.998 39.25C290.165 39.0833 290.215 38.95 290.148 38.85C290.082 38.75 289.915 38.7 289.648 38.7C289.382 38.7 289.082 38.7833 288.748 38.95ZM287.948 45C288.682 44.9 289.465 44.7167 290.298 44.45C291.165 44.1833 292.015 43.85 292.848 43.45C293.715 43.05 294.515 42.6 295.248 42.1C296.015 41.5667 296.682 41.0167 297.248 40.45C297.415 40.2833 297.598 40.2 297.798 40.2C298.032 40.1667 298.232 40.2333 298.398 40.4C298.765 40.8 298.765 41.1833 298.398 41.55C297.798 42.1833 297.065 42.7833 296.198 43.35C295.365 43.9167 294.482 44.4333 293.548 44.9C292.648 45.3333 291.715 45.7 290.748 46C289.815 46.3 288.932 46.5 288.098 46.6C287.698 46.6667 287.215 46.7167 286.648 46.75C286.115 46.75 285.582 46.7167 285.048 46.65C284.515 46.5833 284.032 46.45 283.598 46.25C283.132 46.0167 282.782 45.6833 282.548 45.25C282.348 44.8833 282.265 44.5 282.298 44.1C282.298 43.7 282.365 43.3 282.498 42.9C282.598 42.4667 282.748 42.0667 282.948 41.7C283.115 41.3 283.298 40.95 283.498 40.65C284.032 39.8833 284.665 39.1833 285.398 38.55C286.132 37.8833 286.965 37.4167 287.898 37.15C288.832 36.9167 289.632 36.9167 290.298 37.15C290.965 37.3833 291.415 37.7333 291.648 38.2C291.882 38.6667 291.848 39.2 291.548 39.8C291.282 40.3667 290.648 40.85 289.648 41.25C289.182 41.4167 288.632 41.5667 287.998 41.7C287.398 41.8333 286.698 41.9333 285.898 42C285.298 43.0333 285.082 43.8 285.248 44.3C285.282 44.5333 285.415 44.7 285.648 44.8C285.882 44.9 286.132 44.9833 286.398 45.05C286.698 45.0833 286.982 45.1 287.248 45.1C287.548 45.0667 287.782 45.0333 287.948 45ZM306.871 39.5C306.871 39.5 306.721 39.5833 306.421 39.75C306.121 39.8833 305.738 40.0833 305.271 40.35C304.805 40.6167 304.271 40.9333 303.671 41.3C303.105 41.6667 302.538 42.0833 301.971 42.55C302.805 43.25 303.771 43.6167 304.871 43.65C305.971 43.6833 307.088 43.55 308.221 43.25C309.355 42.9167 310.438 42.4833 311.471 41.95C312.505 41.3833 313.388 40.8833 314.121 40.45C314.288 40.35 314.471 40.3333 314.671 40.4C314.905 40.4333 315.071 40.55 315.171 40.75C315.305 40.9167 315.338 41.1167 315.271 41.35C315.238 41.55 315.121 41.7 314.921 41.8C314.021 42.3667 312.955 42.95 311.721 43.55C310.488 44.1167 309.188 44.5833 307.821 44.95C306.488 45.2833 305.155 45.4333 303.821 45.4C302.488 45.3333 301.288 44.95 300.221 44.25C299.821 44.75 299.488 45.2833 299.221 45.85C298.955 46.3833 298.805 46.9333 298.771 47.5C298.771 47.7667 298.638 47.9667 298.371 48.1C298.138 48.2333 297.871 48.3 297.571 48.3C297.305 48.3 297.071 48.2333 296.871 48.1C296.638 47.9333 296.521 47.7167 296.521 47.45C296.588 46.6167 296.821 45.8333 297.221 45.1C297.621 44.3333 298.121 43.6167 298.721 42.95C298.288 42.4167 297.888 41.8 297.521 41.1C297.188 40.3667 296.888 39.5167 296.621 38.55C296.521 38.05 296.621 37.7 296.921 37.5C297.188 37.2667 297.505 37.15 297.871 37.15C298.238 37.15 298.588 37.25 298.921 37.45C299.288 37.6167 299.488 37.85 299.521 38.15C299.688 38.75 299.871 39.3 300.071 39.8C300.271 40.3 300.488 40.75 300.721 41.15C301.355 40.65 301.988 40.2 302.621 39.8C303.288 39.4 303.871 39.0667 304.371 38.8C304.871 38.5333 305.271 38.3167 305.571 38.15C305.905 37.9833 306.071 37.9 306.071 37.9C306.305 37.8 306.521 37.8167 306.721 37.95C306.955 38.05 307.121 38.2 307.221 38.4C307.321 38.6 307.355 38.8167 307.321 39.05C307.288 39.25 307.138 39.4 306.871 39.5ZM315.867 28.5C315.334 28.5 315.067 28.2333 315.067 27.7C315.034 27.5 315.084 27.3167 315.217 27.15C315.384 26.9833 315.584 26.9 315.817 26.9L321.867 26.75C322.467 25.8167 323.017 24.95 323.517 24.15C324.017 23.35 324.451 22.6667 324.817 22.1C325.184 21.5 325.484 21.05 325.717 20.75C325.951 20.4167 326.067 20.25 326.067 20.25C326.167 20.05 326.417 19.9167 326.817 19.85C327.217 19.7833 327.601 19.7833 327.967 19.85C328.334 19.8833 328.617 20.0167 328.817 20.25C329.017 20.45 328.984 20.7333 328.717 21.1C328.717 21.1333 328.367 21.6667 327.667 22.7C327.001 23.7 326.151 25.0333 325.117 26.7L329.567 26.55C330.101 26.55 330.367 26.8167 330.367 27.35C330.401 27.5833 330.334 27.7833 330.167 27.95C330.034 28.0833 329.851 28.15 329.617 28.15L324.117 28.3C323.384 29.5 322.617 30.7833 321.817 32.15C321.017 33.4833 320.234 34.85 319.467 36.25C318.701 37.6167 317.967 38.9833 317.267 40.35C316.601 41.7167 316.017 43 315.517 44.2C314.751 45.9667 314.317 47.3 314.217 48.2C314.151 49.0667 314.334 49.6 314.767 49.8C315.234 49.9667 315.917 49.8667 316.817 49.5C317.717 49.1 318.801 48.5333 320.067 47.8C320.967 47.2667 321.867 46.6833 322.767 46.05C323.667 45.3833 324.501 44.7333 325.267 44.1C326.034 43.4333 326.717 42.7833 327.317 42.15C327.951 41.5167 328.434 40.95 328.767 40.45C328.867 40.2833 329.017 40.1833 329.217 40.15C329.451 40.0833 329.667 40.1167 329.867 40.25C330.034 40.3833 330.134 40.5667 330.167 40.8C330.234 41 330.201 41.1833 330.067 41.35C329.701 41.8833 329.201 42.4833 328.567 43.15C327.967 43.7833 327.267 44.4333 326.467 45.1C325.701 45.7667 324.851 46.4333 323.917 47.1C323.017 47.7667 322.101 48.3833 321.167 48.95C319.601 49.9167 318.084 50.6333 316.617 51.1C315.151 51.5667 313.967 51.6667 313.067 51.4C312.134 51.1 311.584 50.35 311.417 49.15C311.217 47.9167 311.634 46.0667 312.667 43.6C313.167 42.4667 313.734 41.25 314.367 39.95C315.001 38.65 315.684 37.35 316.417 36.05C317.151 34.7167 317.901 33.4 318.667 32.1C319.434 30.8 320.167 29.55 320.867 28.35L315.867 28.5ZM331.966 40.5C332.599 41.1667 333.199 41.8333 333.766 42.5C334.332 43.1333 334.799 43.9 335.166 44.8C335.232 44.7333 335.282 44.7 335.316 44.7C335.382 44.6667 335.449 44.6333 335.516 44.6C337.849 43.2667 339.616 41.8833 340.816 40.45C340.949 40.2833 341.116 40.2 341.316 40.2C341.549 40.1667 341.749 40.2167 341.916 40.35C342.082 40.5167 342.182 40.7167 342.216 40.95C342.249 41.15 342.182 41.3333 342.016 41.5C340.682 43.1 338.766 44.6 336.266 46C336.166 46.0667 336.049 46.1333 335.916 46.2C335.816 46.2667 335.699 46.3333 335.566 46.4C335.632 47 335.566 47.65 335.366 48.35C335.199 49.0167 334.866 49.7333 334.366 50.5C333.599 51.6333 332.682 52.4667 331.616 53C330.616 53.5 329.632 53.7667 328.666 53.8C327.699 53.8 326.832 53.6667 326.066 53.4C325.299 53.1333 324.699 52.7667 324.266 52.3C323.799 51.8 323.599 51.2667 323.666 50.7C323.732 50.1333 324.099 49.5833 324.766 49.05C325.432 48.4833 326.499 48 327.966 47.6C329.699 47.1333 331.199 46.6167 332.466 46.05C332.299 45.2167 331.966 44.4833 331.466 43.85C330.966 43.2167 330.482 42.6667 330.016 42.2C329.682 41.8667 329.382 41.5167 329.116 41.15C328.849 40.75 328.682 40.3667 328.616 40C328.516 39.6 328.549 39.2 328.716 38.8C328.882 38.4 329.216 38.0167 329.716 37.65C329.949 37.4833 330.232 37.3333 330.566 37.2C330.899 37.0667 331.249 36.9833 331.616 36.95C331.982 36.8833 332.332 36.9 332.666 37C332.999 37.0667 333.266 37.25 333.466 37.55C333.699 37.8833 333.699 38.2833 333.466 38.75C333.266 39.1833 332.766 39.7667 331.966 40.5ZM330.216 51.15C330.782 50.7833 331.266 50.2833 331.666 49.65C332.099 49.05 332.366 48.4333 332.466 47.8C331.166 48.3333 329.799 48.7667 328.366 49.1C326.766 49.5333 325.816 49.9833 325.516 50.45C325.216 50.9167 325.299 51.3 325.766 51.6C326.199 51.8667 326.866 52 327.766 52C328.632 52 329.449 51.7167 330.216 51.15Z" fill="#F1523C"/>
</svg>
