<svg width="990" height="249" viewBox="0 0 990 249" fill="none" xmlns="http://www.w3.org/2000/svg">
<path d="M8.49609 107C8.49609 107 8.49609 77.4492 8.49609 18.3477C8.49609 18.3477 29.4727 18.3477 71.4258 18.3477C71.4258 18.3477 71.4258 47.8984 71.4258 107C71.4258 107 65.9375 107 54.9609 107C54.9609 107 54.9609 82.6836 54.9609 34.0508C54.9609 34.0508 44.9609 34.0508 24.9609 34.0508C24.9609 34.0508 24.9609 58.3672 24.9609 107C24.9609 107 19.4727 107 8.49609 107ZM118.945 38.9727C125.273 38.9727 131.133 40.5352 136.523 43.6602C141.914 46.7852 146.172 51.043 149.297 56.4336C152.422 61.7852 153.984 67.6055 153.984 73.8945C153.984 80.1445 152.402 85.9453 149.238 91.2969C146.113 96.6094 141.836 100.828 136.406 103.953C130.977 107.039 125.078 108.582 118.711 108.582C112.305 108.582 106.367 107.039 100.898 103.953C95.4688 100.828 91.1719 96.6094 88.0078 91.2969C84.8438 85.9453 83.2617 80.1445 83.2617 73.8945C83.2617 69.1289 84.1797 64.5977 86.0156 60.3008C87.8906 55.9648 90.4102 52.2539 93.5742 49.168C96.7773 46.043 100.586 43.5625 105 41.7266C109.414 39.8906 114.062 38.9727 118.945 38.9727ZM118.301 53.6211C113.145 53.6211 108.691 55.6133 104.941 59.5977C101.23 63.543 99.375 68.2695 99.375 73.7773C99.375 79.3242 101.25 84.0703 105 88.0156C108.75 91.9609 113.262 93.9336 118.535 93.9336C123.848 93.9336 128.398 91.9805 132.188 88.0742C135.977 84.1289 137.871 79.4023 137.871 73.8945C137.871 68.1914 135.977 63.3867 132.188 59.4805C128.398 55.5742 123.77 53.6211 118.301 53.6211ZM211.172 85.1445C211.172 85.1445 217.168 85.1445 229.16 85.1445C226.387 92.6055 222.129 98.3867 216.387 102.488C210.684 106.551 203.945 108.582 196.172 108.582C191.328 108.582 186.699 107.664 182.285 105.828C177.91 103.992 174.141 101.531 170.977 98.4453C167.812 95.3594 165.293 91.668 163.418 87.3711C161.543 83.0742 160.605 78.543 160.605 73.7773C160.605 67.3711 162.148 61.5117 165.234 56.1992C168.32 50.8477 172.539 46.6484 177.891 43.6016C183.281 40.5156 189.199 38.9727 195.645 38.9727C200.41 38.9727 204.941 39.832 209.238 41.5508C213.574 43.2305 217.363 45.6523 220.605 48.8164C222.715 50.8867 224.375 52.918 225.586 54.9102C226.836 56.8633 228.027 59.4609 229.16 62.7031H211.172C208.047 56.6484 202.871 53.6211 195.645 53.6211C190.098 53.6211 185.547 55.4961 181.992 59.2461C178.477 62.957 176.719 67.7617 176.719 73.6602C176.719 79.4805 178.555 84.3242 182.227 88.1914C185.938 92.0195 190.547 93.9336 196.055 93.9336C199.336 93.9336 202.168 93.2305 204.551 91.8242C206.973 90.418 209.18 88.1914 211.172 85.1445ZM281.719 93.1719C281.719 93.1719 278.594 93.1719 272.344 93.1719C272.344 93.1719 266.465 83.1328 254.707 63.0547C254.707 63.0547 254.707 77.7031 254.707 107C254.707 107 249.395 107 238.77 107C238.77 107 238.77 84.832 238.77 40.4961C238.77 40.4961 244.844 40.4961 256.992 40.4961C256.992 40.4961 263.672 51.8633 277.031 74.5977C277.031 74.5977 283.711 63.2305 297.07 40.4961C297.07 40.4961 303.145 40.4961 315.293 40.4961C315.293 40.4961 315.293 62.6641 315.293 107C315.293 107 309.98 107 299.355 107C299.355 107 299.355 92.3516 299.355 63.0547C299.355 63.0547 293.477 73.0938 281.719 93.1719ZM360.82 38.9727C367.148 38.9727 373.008 40.5352 378.398 43.6602C383.789 46.7852 388.047 51.043 391.172 56.4336C394.297 61.7852 395.859 67.6055 395.859 73.8945C395.859 80.1445 394.277 85.9453 391.113 91.2969C387.988 96.6094 383.711 100.828 378.281 103.953C372.852 107.039 366.953 108.582 360.586 108.582C354.18 108.582 348.242 107.039 342.773 103.953C337.344 100.828 333.047 96.6094 329.883 91.2969C326.719 85.9453 325.137 80.1445 325.137 73.8945C325.137 69.1289 326.055 64.5977 327.891 60.3008C329.766 55.9648 332.285 52.2539 335.449 49.168C338.652 46.043 342.461 43.5625 346.875 41.7266C351.289 39.8906 355.938 38.9727 360.82 38.9727ZM360.176 53.6211C355.02 53.6211 350.566 55.6133 346.816 59.5977C343.105 63.543 341.25 68.2695 341.25 73.7773C341.25 79.3242 343.125 84.0703 346.875 88.0156C350.625 91.9609 355.137 93.9336 360.41 93.9336C365.723 93.9336 370.273 91.9805 374.062 88.0742C377.852 84.1289 379.746 79.4023 379.746 73.8945C379.746 68.1914 377.852 63.3867 374.062 59.4805C370.273 55.5742 365.645 53.6211 360.176 53.6211ZM446.719 55.0273C446.719 55.0273 441.543 55.0273 431.191 55.0273C431.191 55.0273 431.191 72.3516 431.191 107C431.191 107 425.879 107 415.254 107C415.254 107 415.254 89.6758 415.254 55.0273C415.254 55.0273 410.098 55.0273 399.785 55.0273C399.785 55.0273 399.785 50.1836 399.785 40.4961C399.785 40.4961 415.43 40.4961 446.719 40.4961C446.719 40.4961 446.719 45.3398 446.719 55.0273ZM455.332 129.207C455.332 129.207 455.332 99.6367 455.332 40.4961C455.332 40.4961 460.195 40.4961 469.922 40.4961C469.922 40.4961 469.922 43.1133 469.922 48.3477C475.195 42.0977 482.48 38.9727 491.777 38.9727C498.105 38.9727 503.789 40.457 508.828 43.4258C513.867 46.3555 517.793 50.457 520.605 55.7305C523.457 61.0039 524.883 66.9414 524.883 73.543C524.883 80.1836 523.457 86.1797 520.605 91.5312C517.754 96.8438 513.789 101.023 508.711 104.07C503.672 107.078 497.988 108.582 491.66 108.582C487.598 108.582 483.945 107.957 480.703 106.707C477.461 105.457 474.316 103.484 471.27 100.789V129.207H455.332ZM489.375 53.6211C483.984 53.6211 479.453 55.5742 475.781 59.4805C472.148 63.3477 470.332 68.1914 470.332 74.0117C470.332 79.6758 472.207 84.4219 475.957 88.25C479.707 92.0391 484.336 93.9336 489.844 93.9336C495.195 93.9336 499.688 92.0195 503.32 88.1914C506.992 84.3242 508.828 79.5586 508.828 73.8945C508.828 68.0352 506.992 63.1914 503.32 59.3633C499.648 55.5352 495 53.6211 489.375 53.6211ZM580.371 40.4961C580.371 40.4961 585.762 40.4961 596.543 40.4961C596.543 40.4961 596.543 62.6641 596.543 107C596.543 107 591.27 107 580.723 107C580.723 107 580.723 92.3516 580.723 63.0547C580.723 63.0547 570.801 77.7031 550.957 107C550.957 107 545.566 107 534.785 107C534.785 107 534.785 84.832 534.785 40.4961C534.785 40.4961 540.059 40.4961 550.605 40.4961C550.605 40.4961 550.605 55.1445 550.605 84.4414C550.605 84.4414 560.527 69.793 580.371 40.4961ZM652.148 55.0273C652.148 55.0273 646.973 55.0273 636.621 55.0273C636.621 55.0273 636.621 72.3516 636.621 107C636.621 107 631.309 107 620.684 107C620.684 107 620.684 89.6758 620.684 55.0273C620.684 55.0273 615.527 55.0273 605.215 55.0273C605.215 55.0273 605.215 50.1836 605.215 40.4961C605.215 40.4961 620.859 40.4961 652.148 40.4961C652.148 40.4961 652.148 45.3398 652.148 55.0273ZM724.863 80.8672C724.863 80.8672 707.695 80.8672 673.359 80.8672C674.336 84.8906 676.465 88.0742 679.746 90.418C683.027 92.7617 687.031 93.9336 691.758 93.9336C695.039 93.9336 697.773 93.4453 699.961 92.4688C702.148 91.4531 704.277 89.7344 706.348 87.3125H723.75C722.812 90.3203 721.055 93.4062 718.477 96.5703C711.602 104.578 702.812 108.582 692.109 108.582C687.109 108.582 682.383 107.684 677.93 105.887C673.477 104.09 669.648 101.668 666.445 98.6211C663.281 95.5352 660.762 91.8633 658.887 87.6055C657.012 83.3086 656.074 78.7773 656.074 74.0117C656.074 67.6055 657.617 61.7266 660.703 56.375C663.828 50.9844 668.066 46.7461 673.418 43.6602C678.809 40.5352 684.707 38.9727 691.113 38.9727C697.637 38.9727 703.516 40.5156 708.75 43.6016C713.984 46.6484 718.066 50.9062 720.996 56.375C723.965 61.8047 725.449 67.918 725.449 74.7148C725.449 76.9023 725.254 78.9531 724.863 80.8672ZM672.891 66.8047H709.746C708.73 62.5469 706.641 59.2852 703.477 57.0195C700.312 54.7539 696.27 53.6211 691.348 53.6211C686.582 53.6211 682.617 54.7539 679.453 57.0195C676.328 59.2461 674.141 62.5078 672.891 66.8047ZM49.4531 212.172C49.4531 212.172 46.3281 212.172 40.0781 212.172C40.0781 212.172 34.1992 202.133 22.4414 182.055C22.4414 182.055 22.4414 196.703 22.4414 226C22.4414 226 17.1289 226 6.50391 226C6.50391 226 6.50391 203.832 6.50391 159.496C6.50391 159.496 12.5781 159.496 24.7266 159.496C24.7266 159.496 31.4062 170.863 44.7656 193.598C44.7656 193.598 51.4453 182.23 64.8047 159.496C64.8047 159.496 70.8789 159.496 83.0273 159.496C83.0273 159.496 83.0273 181.664 83.0273 226C83.0273 226 77.7148 226 67.0898 226C67.0898 226 67.0898 211.352 67.0898 182.055C67.0898 182.055 61.2109 192.094 49.4531 212.172ZM128.555 157.973C134.883 157.973 140.742 159.535 146.133 162.66C151.523 165.785 155.781 170.043 158.906 175.434C162.031 180.785 163.594 186.605 163.594 192.895C163.594 199.145 162.012 204.945 158.848 210.297C155.723 215.609 151.445 219.828 146.016 222.953C140.586 226.039 134.688 227.582 128.32 227.582C121.914 227.582 115.977 226.039 110.508 222.953C105.078 219.828 100.781 215.609 97.6172 210.297C94.4531 204.945 92.8711 199.145 92.8711 192.895C92.8711 188.129 93.7891 183.598 95.625 179.301C97.5 174.965 100.02 171.254 103.184 168.168C106.387 165.043 110.195 162.562 114.609 160.727C119.023 158.891 123.672 157.973 128.555 157.973ZM127.91 172.621C122.754 172.621 118.301 174.613 114.551 178.598C110.84 182.543 108.984 187.27 108.984 192.777C108.984 198.324 110.859 203.07 114.609 207.016C118.359 210.961 122.871 212.934 128.145 212.934C133.457 212.934 138.008 210.98 141.797 207.074C145.586 203.129 147.48 198.402 147.48 192.895C147.48 187.191 145.586 182.387 141.797 178.48C138.008 174.574 133.379 172.621 127.91 172.621ZM239.004 199.867C239.004 199.867 221.836 199.867 187.5 199.867C188.477 203.891 190.605 207.074 193.887 209.418C197.168 211.762 201.172 212.934 205.898 212.934C209.18 212.934 211.914 212.445 214.102 211.469C216.289 210.453 218.418 208.734 220.488 206.312H237.891C236.953 209.32 235.195 212.406 232.617 215.57C225.742 223.578 216.953 227.582 206.25 227.582C201.25 227.582 196.523 226.684 192.07 224.887C187.617 223.09 183.789 220.668 180.586 217.621C177.422 214.535 174.902 210.863 173.027 206.605C171.152 202.309 170.215 197.777 170.215 193.012C170.215 186.605 171.758 180.727 174.844 175.375C177.969 169.984 182.207 165.746 187.559 162.66C192.949 159.535 198.848 157.973 205.254 157.973C211.777 157.973 217.656 159.516 222.891 162.602C228.125 165.648 232.207 169.906 235.137 175.375C238.105 180.805 239.59 186.918 239.59 193.715C239.59 195.902 239.395 197.953 239.004 199.867ZM187.031 185.805H223.887C222.871 181.547 220.781 178.285 217.617 176.02C214.453 173.754 210.41 172.621 205.488 172.621C200.723 172.621 196.758 173.754 193.594 176.02C190.469 178.246 188.281 181.508 187.031 185.805ZM344.238 226C344.238 226 338.926 226 328.301 226C328.301 226 328.301 208.676 328.301 174.027C328.301 174.027 318.535 174.027 299.004 174.027C299.004 174.027 299.004 191.352 299.004 226C299.004 226 293.691 226 283.066 226C283.066 226 283.066 203.832 283.066 159.496H344.238C344.238 159.496 344.238 181.664 344.238 226ZM389.766 157.973C396.094 157.973 401.953 159.535 407.344 162.66C412.734 165.785 416.992 170.043 420.117 175.434C423.242 180.785 424.805 186.605 424.805 192.895C424.805 199.145 423.223 204.945 420.059 210.297C416.934 215.609 412.656 219.828 407.227 222.953C401.797 226.039 395.898 227.582 389.531 227.582C383.125 227.582 377.188 226.039 371.719 222.953C366.289 219.828 361.992 215.609 358.828 210.297C355.664 204.945 354.082 199.145 354.082 192.895C354.082 188.129 355 183.598 356.836 179.301C358.711 174.965 361.23 171.254 364.395 168.168C367.598 165.043 371.406 162.562 375.82 160.727C380.234 158.891 384.883 157.973 389.766 157.973ZM389.121 172.621C383.965 172.621 379.512 174.613 375.762 178.598C372.051 182.543 370.195 187.27 370.195 192.777C370.195 198.324 372.07 203.07 375.82 207.016C379.57 210.961 384.082 212.934 389.355 212.934C394.668 212.934 399.219 210.98 403.008 207.074C406.797 203.129 408.691 198.402 408.691 192.895C408.691 187.191 406.797 182.387 403.008 178.48C399.219 174.574 394.59 172.621 389.121 172.621ZM434.59 248.207C434.59 248.207 434.59 218.637 434.59 159.496C434.59 159.496 439.453 159.496 449.18 159.496C449.18 159.496 449.18 162.113 449.18 167.348C454.453 161.098 461.738 157.973 471.035 157.973C477.363 157.973 483.047 159.457 488.086 162.426C493.125 165.355 497.051 169.457 499.863 174.73C502.715 180.004 504.141 185.941 504.141 192.543C504.141 199.184 502.715 205.18 499.863 210.531C497.012 215.844 493.047 220.023 487.969 223.07C482.93 226.078 477.246 227.582 470.918 227.582C466.855 227.582 463.203 226.957 459.961 225.707C456.719 224.457 453.574 222.484 450.527 219.789V248.207H434.59ZM468.633 172.621C463.242 172.621 458.711 174.574 455.039 178.48C451.406 182.348 449.59 187.191 449.59 193.012C449.59 198.676 451.465 203.422 455.215 207.25C458.965 211.039 463.594 212.934 469.102 212.934C474.453 212.934 478.945 211.02 482.578 207.191C486.25 203.324 488.086 198.559 488.086 192.895C488.086 187.035 486.25 182.191 482.578 178.363C478.906 174.535 474.258 172.621 468.633 172.621ZM555.117 174.027C555.117 174.027 549.941 174.027 539.59 174.027C539.59 174.027 539.59 191.352 539.59 226C539.59 226 534.277 226 523.652 226C523.652 226 523.652 208.676 523.652 174.027C523.652 174.027 518.496 174.027 508.184 174.027C508.184 174.027 508.184 169.184 508.184 159.496C508.184 159.496 523.828 159.496 555.117 159.496C555.117 159.496 555.117 164.34 555.117 174.027ZM594.258 137.348C594.258 137.348 599.57 137.348 610.195 137.348C610.195 137.348 610.195 144.34 610.195 158.324C622.305 159.34 631.133 162.758 636.68 168.578C642.227 174.398 645 182.504 645 192.895C645 203.246 642.227 211.293 636.68 217.035C631.133 222.777 622.305 226.156 610.195 227.172V248.207H594.258C594.258 248.207 594.258 241.195 594.258 227.172C582.188 226.156 573.359 222.777 567.773 217.035C562.227 211.293 559.453 203.246 559.453 192.895C559.453 182.543 562.227 174.457 567.773 168.637C573.359 162.816 582.188 159.379 594.258 158.324V137.348ZM594.258 173.09C587.734 173.988 582.969 176.078 579.961 179.359C576.992 182.602 575.508 187.113 575.508 192.895C575.508 198.676 576.992 203.188 579.961 206.43C582.969 209.633 587.734 211.645 594.258 212.465V173.09ZM610.195 212.465C616.758 211.645 621.504 209.633 624.434 206.43C627.402 203.188 628.887 198.676 628.887 192.895C628.887 187.113 627.402 182.602 624.434 179.359C621.504 176.078 616.758 173.988 610.195 173.09V212.465ZM688.008 157.973C694.336 157.973 700.195 159.535 705.586 162.66C710.977 165.785 715.234 170.043 718.359 175.434C721.484 180.785 723.047 186.605 723.047 192.895C723.047 199.145 721.465 204.945 718.301 210.297C715.176 215.609 710.898 219.828 705.469 222.953C700.039 226.039 694.141 227.582 687.773 227.582C681.367 227.582 675.43 226.039 669.961 222.953C664.531 219.828 660.234 215.609 657.07 210.297C653.906 204.945 652.324 199.145 652.324 192.895C652.324 188.129 653.242 183.598 655.078 179.301C656.953 174.965 659.473 171.254 662.637 168.168C665.84 165.043 669.648 162.562 674.062 160.727C678.477 158.891 683.125 157.973 688.008 157.973ZM687.363 172.621C682.207 172.621 677.754 174.613 674.004 178.598C670.293 182.543 668.438 187.27 668.438 192.777C668.438 198.324 670.312 203.07 674.062 207.016C677.812 210.961 682.324 212.934 687.598 212.934C692.91 212.934 697.461 210.98 701.25 207.074C705.039 203.129 706.934 198.402 706.934 192.895C706.934 187.191 705.039 182.387 701.25 178.48C697.461 174.574 692.832 172.621 687.363 172.621ZM790.723 226C790.723 226 785.039 226 773.672 226C773.672 226 768.047 211.273 756.797 181.82C756.797 181.82 751.152 196.547 739.863 226C739.863 226 734.18 226 722.812 226C722.812 226 732.051 203.832 750.527 159.496C750.527 159.496 754.688 159.496 763.008 159.496C763.008 159.496 772.246 181.664 790.723 226ZM843.223 159.496C843.223 159.496 848.613 159.496 859.395 159.496C859.395 159.496 859.395 181.664 859.395 226C859.395 226 854.121 226 843.574 226C843.574 226 843.574 211.352 843.574 182.055C843.574 182.055 833.652 196.703 813.809 226C813.809 226 808.418 226 797.637 226C797.637 226 797.637 203.832 797.637 159.496C797.637 159.496 802.91 159.496 813.457 159.496C813.457 159.496 813.457 174.145 813.457 203.441C813.457 203.441 823.379 188.793 843.223 159.496ZM904.922 157.973C911.25 157.973 917.109 159.535 922.5 162.66C927.891 165.785 932.148 170.043 935.273 175.434C938.398 180.785 939.961 186.605 939.961 192.895C939.961 199.145 938.379 204.945 935.215 210.297C932.09 215.609 927.812 219.828 922.383 222.953C916.953 226.039 911.055 227.582 904.688 227.582C898.281 227.582 892.344 226.039 886.875 222.953C881.445 219.828 877.148 215.609 873.984 210.297C870.82 204.945 869.238 199.145 869.238 192.895C869.238 188.129 870.156 183.598 871.992 179.301C873.867 174.965 876.387 171.254 879.551 168.168C882.754 165.043 886.562 162.562 890.977 160.727C895.391 158.891 900.039 157.973 904.922 157.973ZM904.277 172.621C899.121 172.621 894.668 174.613 890.918 178.598C887.207 182.543 885.352 187.27 885.352 192.777C885.352 198.324 887.227 203.07 890.977 207.016C894.727 210.961 899.238 212.934 904.512 212.934C909.824 212.934 914.375 210.98 918.164 207.074C921.953 203.129 923.848 198.402 923.848 192.895C923.848 187.191 921.953 182.387 918.164 178.48C914.375 174.574 909.746 172.621 904.277 172.621Z" fill="#1D1D1D"/>
<path d="M494.321 33.3C494.288 33.3333 494.238 33.35 494.171 33.35C493.538 33.4833 493.071 33.5333 492.771 33.5C492.105 33.4 491.771 33.0667 491.771 32.5C491.705 32.1667 491.871 31.8 492.271 31.4C492.571 31.1 493.055 30.7833 493.721 30.45C494.421 30.0833 495.305 29.7833 496.371 29.55L497.121 29.35H497.171C497.805 28.6833 498.338 28.0167 498.771 27.35C499.238 26.65 499.605 25.9833 499.871 25.35C500.138 24.8167 500.321 24.35 500.421 23.95C500.521 23.55 500.588 23.2 500.621 22.9C500.655 22.4667 500.605 22.15 500.471 21.95C500.305 21.8167 500.105 21.7167 499.871 21.65C499.705 21.5833 499.505 21.5667 499.271 21.6C499.071 21.6 498.855 21.6167 498.621 21.65C496.788 22.35 495.271 23.4333 494.071 24.9C492.871 26.3667 491.855 28.0167 491.021 29.85C490.421 31.1833 489.855 32.5833 489.321 34.05C488.788 35.4833 488.288 36.8833 487.821 38.25C487.355 39.65 486.905 40.9667 486.471 42.2C486.038 43.4333 485.605 44.5167 485.171 45.45C484.871 45.8167 484.571 45.9833 484.271 45.95C483.971 45.9167 483.721 45.7833 483.521 45.55C483.288 45.35 483.121 45.1167 483.021 44.85C482.888 44.5833 482.855 44.3667 482.921 44.2C482.988 44.0333 483.071 43.8333 483.171 43.6C483.271 43.3667 483.371 43.1 483.471 42.8L483.671 42.3C483.738 42.0333 483.821 41.7667 483.921 41.5C483.988 41.2333 484.088 40.9667 484.221 40.7L484.371 40.2L490.571 22.05C490.605 21.7167 490.788 21.4167 491.121 21.15C491.455 20.85 491.788 20.65 492.121 20.55C492.455 20.4167 492.738 20.4167 492.971 20.55C493.238 20.6833 493.321 21 493.221 21.5L489.971 30.4C490.338 29.3667 490.755 28.3333 491.221 27.3C491.721 26.2333 492.288 25.25 492.921 24.35C493.588 23.4167 494.338 22.5833 495.171 21.85C496.005 21.1167 496.971 20.55 498.071 20.15C498.138 20.15 498.188 20.1333 498.221 20.1C498.921 19.8333 499.588 19.6833 500.221 19.65C500.988 19.5833 501.671 19.7167 502.271 20.05C502.971 20.4833 503.388 21.0833 503.521 21.85C503.721 22.8833 503.438 24.2667 502.671 26C502.305 26.8667 501.838 27.6667 501.271 28.4C503.005 27.9333 504.755 27.3167 506.521 26.55C508.288 25.75 509.755 24.7167 510.921 23.45C511.055 23.2833 511.221 23.2 511.421 23.2C511.655 23.1667 511.855 23.2333 512.021 23.4C512.188 23.5667 512.271 23.7667 512.271 24C512.305 24.2 512.238 24.3833 512.071 24.55C511.271 25.4167 510.355 26.1667 509.321 26.8C508.288 27.4333 507.188 28 506.021 28.5C504.888 28.9667 503.738 29.3667 502.571 29.7C501.405 30 500.321 30.2667 499.321 30.5C498.855 30.9667 498.321 31.3833 497.721 31.75C497.155 32.1167 496.538 32.45 495.871 32.75C495.571 32.8833 495.288 33 495.021 33.1C494.788 33.1667 494.555 33.2333 494.321 33.3ZM515.221 22.75C514.854 22.9833 514.504 23.2667 514.171 23.6C513.871 23.9333 513.604 24.2833 513.371 24.65C512.971 25.25 512.721 25.85 512.621 26.45C512.488 27.1167 512.521 27.5667 512.721 27.8C512.921 28 513.204 28.0833 513.571 28.05C513.938 27.9833 514.321 27.8333 514.721 27.6C515.154 27.3333 515.521 27.0333 515.821 26.7C516.221 26.2 516.538 25.6833 516.771 25.15C516.671 25.0833 516.571 25.0167 516.471 24.95C516.371 24.85 516.288 24.7667 516.221 24.7C515.688 24.1667 515.354 23.5167 515.221 22.75ZM514.871 20.65C515.071 20.6167 515.288 20.65 515.521 20.75C515.754 20.45 516.021 20.3 516.321 20.3C516.621 20.2333 516.904 20.2833 517.171 20.45C517.438 20.6167 517.688 20.85 517.921 21.15C518.154 21.45 518.354 21.8 518.521 22.2C518.654 22.5333 518.721 22.8833 518.721 23.25C518.754 23.6167 518.738 23.9833 518.671 24.35L519.121 24.5C519.888 24.6333 520.721 24.65 521.621 24.55C522.121 24.4833 522.588 24.35 523.021 24.15C523.488 23.95 523.854 23.7167 524.121 23.45C524.288 23.2833 524.471 23.2167 524.671 23.25C524.904 23.25 525.104 23.3333 525.271 23.5C525.438 23.6667 525.521 23.85 525.521 24.05C525.521 24.25 525.438 24.4333 525.271 24.6C524.838 25 524.321 25.3333 523.721 25.6C523.121 25.8333 522.488 26 521.821 26.1C520.754 26.2667 519.754 26.25 518.821 26.05C518.554 25.9833 518.338 25.9167 518.171 25.85C517.904 26.4833 517.521 27.1 517.021 27.7C516.454 28.3667 515.704 28.8833 514.771 29.25C513.871 29.5833 513.004 29.7167 512.171 29.65C511.338 29.5833 510.671 29.2833 510.171 28.75C509.638 28.1833 509.488 27.3167 509.721 26.15C509.888 25.2833 510.204 24.5 510.671 23.8C511.138 23.0667 511.721 22.4167 512.421 21.85C513.154 21.25 513.971 20.85 514.871 20.65ZM517.121 23.35C517.121 23.15 517.088 22.95 517.021 22.75C516.988 22.6167 516.904 22.45 516.771 22.25C516.771 22.3167 516.771 22.3667 516.771 22.4C516.804 22.4333 516.821 22.4833 516.821 22.55C516.854 22.8167 516.954 23.0833 517.121 23.35ZM525.004 24.8C524.838 24.9 524.638 24.9333 524.404 24.9C524.204 24.8667 524.038 24.75 523.904 24.55C523.771 24.3833 523.738 24.2 523.804 24C523.838 23.7667 523.938 23.5833 524.104 23.45C524.338 23.2833 524.588 23.0667 524.854 22.8C525.121 22.5 525.371 22.1833 525.604 21.85C525.504 21.7833 525.354 21.65 525.154 21.45C524.588 20.95 524.304 20.4833 524.304 20.05C524.304 19.5833 524.471 19.1833 524.804 18.85C525.038 18.5833 525.371 18.3667 525.804 18.2C526.238 18.0667 526.621 18.05 526.954 18.15C527.388 18.2167 527.738 18.4167 528.004 18.75C528.271 19.0833 528.338 19.55 528.204 20.15C528.171 20.25 528.138 20.35 528.104 20.45C528.104 20.5167 528.088 20.6 528.054 20.7C528.188 20.7667 528.304 20.85 528.404 20.95C528.504 21.0167 528.621 21.0833 528.754 21.15C529.788 21.85 530.438 22.5167 530.704 23.15C530.971 23.7833 531.021 24.4167 530.854 25.05C530.688 25.6833 530.388 26.35 529.954 27.05C529.554 27.75 529.204 28.55 528.904 29.45C528.604 30.3167 528.521 30.8 528.654 30.9C528.788 30.9667 529.238 30.8167 530.004 30.45C530.938 30.05 531.938 29.5333 533.004 28.9C534.104 28.2333 535.154 27.5667 536.154 26.9C537.154 26.2 538.054 25.55 538.854 24.95C539.654 24.3167 540.254 23.8167 540.654 23.45C540.821 23.2833 541.004 23.2167 541.204 23.25C541.438 23.2833 541.638 23.3833 541.804 23.55C541.938 23.7167 541.988 23.9 541.954 24.1C541.954 24.3 541.871 24.4833 541.704 24.65C541.304 25.0167 540.688 25.5167 539.854 26.15C539.021 26.7833 538.088 27.4667 537.054 28.2C536.021 28.9 534.938 29.5833 533.804 30.25C532.671 30.9167 531.621 31.4667 530.654 31.9C529.821 32.2667 529.038 32.5167 528.304 32.65C527.604 32.7833 527.021 32.7333 526.554 32.5C526.088 32.2667 525.788 31.85 525.654 31.25C525.554 30.65 525.704 29.8167 526.104 28.75C526.304 28.25 526.554 27.7333 526.854 27.2C527.154 26.6667 527.388 26.1333 527.554 25.6C527.754 25.0667 527.821 24.5667 527.754 24.1C527.721 23.6 527.438 23.15 526.904 22.75C526.304 23.6167 525.671 24.3 525.004 24.8ZM542.407 11.5C541.874 11.5 541.607 11.2333 541.607 10.7C541.574 10.5 541.624 10.3167 541.757 10.15C541.924 9.98333 542.124 9.9 542.357 9.9L548.407 9.75C549.007 8.81666 549.557 7.95 550.057 7.15C550.557 6.35 550.991 5.66666 551.357 5.1C551.724 4.5 552.024 4.05 552.257 3.75C552.491 3.41666 552.607 3.25 552.607 3.25C552.707 3.05 552.957 2.91667 553.357 2.85C553.757 2.78333 554.141 2.78333 554.507 2.85C554.874 2.88333 555.157 3.01667 555.357 3.25C555.557 3.45 555.524 3.73333 555.257 4.1C555.257 4.13333 554.907 4.66666 554.207 5.7C553.541 6.7 552.691 8.03333 551.657 9.7L556.107 9.55C556.641 9.55 556.907 9.81667 556.907 10.35C556.941 10.5833 556.874 10.7833 556.707 10.95C556.574 11.0833 556.391 11.15 556.157 11.15L550.657 11.3C549.924 12.5 549.157 13.7833 548.357 15.15C547.557 16.4833 546.774 17.85 546.007 19.25C545.241 20.6167 544.507 21.9833 543.807 23.35C543.141 24.7167 542.557 26 542.057 27.2C541.291 28.9667 540.857 30.3 540.757 31.2C540.691 32.0667 540.874 32.6 541.307 32.8C541.774 32.9667 542.457 32.8667 543.357 32.5C544.257 32.1 545.341 31.5333 546.607 30.8C547.507 30.2667 548.407 29.6833 549.307 29.05C550.207 28.3833 551.041 27.7333 551.807 27.1C552.574 26.4333 553.257 25.7833 553.857 25.15C554.491 24.5167 554.974 23.95 555.307 23.45C555.407 23.2833 555.557 23.1833 555.757 23.15C555.991 23.0833 556.207 23.1167 556.407 23.25C556.574 23.3833 556.674 23.5667 556.707 23.8C556.774 24 556.741 24.1833 556.607 24.35C556.241 24.8833 555.741 25.4833 555.107 26.15C554.507 26.7833 553.807 27.4333 553.007 28.1C552.241 28.7667 551.391 29.4333 550.457 30.1C549.557 30.7667 548.641 31.3833 547.707 31.95C546.141 32.9167 544.624 33.6333 543.157 34.1C541.691 34.5667 540.507 34.6667 539.607 34.4C538.674 34.1 538.124 33.35 537.957 32.15C537.757 30.9167 538.174 29.0667 539.207 26.6C539.707 25.4667 540.274 24.25 540.907 22.95C541.541 21.65 542.224 20.35 542.957 19.05C543.691 17.7167 544.441 16.4 545.207 15.1C545.974 13.8 546.707 12.55 547.407 11.35L542.407 11.5ZM563.506 17.75C563.539 17.7167 563.556 17.7 563.556 17.7C563.556 17.6667 563.572 17.6333 563.606 17.6C563.672 17.5333 563.722 17.45 563.756 17.35C563.789 17.25 563.839 17.1667 563.906 17.1C563.706 17.2333 563.472 17.4167 563.206 17.65C562.939 17.8833 562.622 18.1833 562.256 18.55C561.989 18.8167 561.706 19.1167 561.406 19.45C561.139 19.7833 560.839 20.1833 560.506 20.65C560.972 20.2833 561.422 19.9167 561.856 19.55C562.289 19.1833 562.639 18.8333 562.906 18.5C563.139 18.2667 563.339 18.0167 563.506 17.75ZM552.956 42.45C553.322 41.85 553.656 41.1833 553.956 40.45C554.256 39.7167 554.539 38.9333 554.806 38.1C555.272 36.5 555.556 34.8667 555.656 33.2C555.756 31.5333 555.606 30.1 555.206 28.9L555.006 29.3C554.039 30.9667 553.156 32.6333 552.356 34.3C551.556 35.9667 550.906 37.5333 550.406 39C549.972 40.2667 549.739 41.3667 549.706 42.3C549.639 43.2667 549.739 43.95 550.006 44.35C550.239 44.7833 550.622 44.8667 551.156 44.6C551.656 44.3333 552.256 43.6167 552.956 42.45ZM547.556 38.5C548.089 37 548.772 35.3833 549.606 33.65C550.406 31.9167 551.289 30.2 552.256 28.5C552.922 27.3 553.606 26.1333 554.306 25C555.006 23.8667 555.689 22.8167 556.356 21.85C557.022 20.85 557.639 19.9833 558.206 19.25C558.806 18.4833 559.322 17.8667 559.756 17.4C560.622 16.5333 561.422 15.9167 562.156 15.55C562.889 15.15 563.506 14.9333 564.006 14.9C564.472 14.9 564.856 15 565.156 15.2C565.522 15.4333 565.739 15.7833 565.806 16.25C565.906 16.9833 565.572 17.7833 564.806 18.65C564.706 18.8167 564.606 18.9667 564.506 19.1C564.406 19.2333 564.272 19.3833 564.106 19.55C563.706 20.0167 563.189 20.5167 562.556 21.05C561.922 21.55 561.272 22.05 560.606 22.55C559.972 23.0167 559.389 23.4333 558.856 23.8C558.356 24.1667 558.006 24.4167 557.806 24.55C557.572 24.9167 557.339 25.2833 557.106 25.65C556.906 26.0167 556.689 26.3833 556.456 26.75C557.322 26.95 558.372 27.05 559.606 27.05C560.872 27.0167 562.172 26.85 563.506 26.55C564.739 26.2833 565.889 25.9 566.956 25.4C568.056 24.9 568.956 24.25 569.656 23.45C570.022 23.0833 570.389 23.0667 570.756 23.4C570.922 23.5333 571.022 23.7167 571.056 23.95C571.089 24.15 571.022 24.3333 570.856 24.5C570.022 25.4667 568.989 26.25 567.756 26.85C566.522 27.4167 565.222 27.8333 563.856 28.1C562.589 28.3667 561.322 28.5333 560.056 28.6C558.789 28.6333 557.672 28.5667 556.706 28.4C557.172 29.8 557.339 31.4167 557.206 33.25C557.106 35.05 556.806 36.8 556.306 38.5C555.806 40.3333 555.139 41.9167 554.306 43.25C553.872 43.9833 553.322 44.6 552.656 45.1C551.989 45.6333 551.322 45.9833 550.656 46.15C549.956 46.35 549.306 46.3667 548.706 46.2C548.072 46.0667 547.572 45.7 547.206 45.1C546.839 44.5 546.672 43.65 546.706 42.55C546.706 41.4833 546.989 40.1333 547.556 38.5ZM573.961 22.75C573.594 22.9833 573.244 23.2667 572.911 23.6C572.611 23.9333 572.344 24.2833 572.111 24.65C571.711 25.25 571.461 25.85 571.361 26.45C571.228 27.1167 571.261 27.5667 571.461 27.8C571.661 28 571.944 28.0833 572.311 28.05C572.678 27.9833 573.061 27.8333 573.461 27.6C573.894 27.3333 574.261 27.0333 574.561 26.7C574.961 26.2 575.278 25.6833 575.511 25.15C575.411 25.0833 575.311 25.0167 575.211 24.95C575.111 24.85 575.028 24.7667 574.961 24.7C574.428 24.1667 574.094 23.5167 573.961 22.75ZM573.611 20.65C573.811 20.6167 574.028 20.65 574.261 20.75C574.494 20.45 574.761 20.3 575.061 20.3C575.361 20.2333 575.644 20.2833 575.911 20.45C576.178 20.6167 576.428 20.85 576.661 21.15C576.894 21.45 577.094 21.8 577.261 22.2C577.394 22.5333 577.461 22.8833 577.461 23.25C577.494 23.6167 577.478 23.9833 577.411 24.35L577.861 24.5C578.628 24.6333 579.461 24.65 580.361 24.55C580.861 24.4833 581.328 24.35 581.761 24.15C582.228 23.95 582.594 23.7167 582.861 23.45C583.028 23.2833 583.211 23.2167 583.411 23.25C583.644 23.25 583.844 23.3333 584.011 23.5C584.178 23.6667 584.261 23.85 584.261 24.05C584.261 24.25 584.178 24.4333 584.011 24.6C583.578 25 583.061 25.3333 582.461 25.6C581.861 25.8333 581.228 26 580.561 26.1C579.494 26.2667 578.494 26.25 577.561 26.05C577.294 25.9833 577.078 25.9167 576.911 25.85C576.644 26.4833 576.261 27.1 575.761 27.7C575.194 28.3667 574.444 28.8833 573.511 29.25C572.611 29.5833 571.744 29.7167 570.911 29.65C570.078 29.5833 569.411 29.2833 568.911 28.75C568.378 28.1833 568.228 27.3167 568.461 26.15C568.628 25.2833 568.944 24.5 569.411 23.8C569.878 23.0667 570.461 22.4167 571.161 21.85C571.894 21.25 572.711 20.85 573.611 20.65ZM575.861 23.35C575.861 23.15 575.828 22.95 575.761 22.75C575.728 22.6167 575.644 22.45 575.511 22.25C575.511 22.3167 575.511 22.3667 575.511 22.4C575.544 22.4333 575.561 22.4833 575.561 22.55C575.594 22.8167 575.694 23.0833 575.861 23.35ZM593.745 3.5C593.878 3.26666 594.111 3.11666 594.445 3.05C594.811 2.98333 595.161 3 595.495 3.1C595.828 3.16667 596.078 3.31667 596.245 3.55C596.411 3.78333 596.361 4.08333 596.095 4.45C594.961 6.01667 593.795 7.83333 592.595 9.9C591.428 11.9667 590.278 14.1167 589.145 16.35C588.011 18.55 586.928 20.7333 585.895 22.9C584.861 25.0667 583.945 27.05 583.145 28.85C582.811 29.55 582.561 30.1833 582.395 30.75C582.228 31.2833 582.195 31.7167 582.295 32.05C582.361 32.35 582.595 32.5167 582.995 32.55C583.428 32.55 584.078 32.3667 584.945 32C585.778 31.6667 586.678 31.2 587.645 30.6C588.611 30 589.578 29.3333 590.545 28.6C591.511 27.8333 592.445 27.0167 593.345 26.15C594.245 25.25 595.045 24.35 595.745 23.45C595.878 23.2833 596.045 23.1833 596.245 23.15C596.478 23.1167 596.678 23.1833 596.845 23.35C597.011 23.4833 597.111 23.6667 597.145 23.9C597.178 24.1 597.128 24.2833 596.995 24.45C596.261 25.3833 595.411 26.3167 594.445 27.25C593.478 28.1833 592.478 29.05 591.445 29.85C590.445 30.65 589.428 31.3667 588.395 32C587.361 32.6333 586.411 33.1167 585.545 33.45C584.411 33.9167 583.411 34.1333 582.545 34.1C581.645 34.0333 580.961 33.7667 580.495 33.3C579.995 32.8 579.745 32.1167 579.745 31.25C579.711 30.3833 580.011 29.3667 580.645 28.2C581.478 26.3667 582.411 24.35 583.445 22.15C584.478 19.95 585.561 17.75 586.695 15.55C587.861 13.3167 589.028 11.15 590.195 9.05C591.395 6.95 592.578 5.1 593.745 3.5ZM603.185 16.85L601.985 17.75C601.752 17.9167 601.485 18.0333 601.185 18.1C600.919 18.1667 600.685 18.1833 600.485 18.15C600.285 18.0833 600.152 17.95 600.085 17.75C600.052 17.55 600.152 17.25 600.385 16.85L600.785 16.1C601.019 15.7 601.335 15.4667 601.735 15.4C602.169 15.3 602.552 15.3167 602.885 15.45C603.252 15.5833 603.485 15.7833 603.585 16.05C603.719 16.3167 603.585 16.5833 603.185 16.85ZM600.685 20.75C599.952 21.7167 599.185 22.8333 598.385 24.1C597.619 25.3333 597.035 26.5 596.635 27.6C596.435 28.1667 596.352 28.5833 596.385 28.85C596.452 29.0833 596.602 29.2167 596.835 29.25C597.069 29.2833 597.352 29.2333 597.685 29.1C598.019 28.9333 598.385 28.75 598.785 28.55C599.485 28.15 600.235 27.6667 601.035 27.1C601.835 26.5333 602.585 25.9833 603.285 25.45C603.985 24.9167 604.569 24.45 605.035 24.05C605.502 23.65 605.735 23.45 605.735 23.45C605.902 23.3167 606.085 23.2667 606.285 23.3C606.485 23.3 606.669 23.3833 606.835 23.55C607.002 23.7167 607.069 23.9167 607.035 24.15C607.002 24.35 606.902 24.5333 606.735 24.7C606.002 25.3 605.235 25.9 604.435 26.5C603.769 27 603.002 27.5333 602.135 28.1C601.302 28.6667 600.469 29.1667 599.635 29.6C598.969 29.9333 598.235 30.2167 597.435 30.45C596.635 30.65 595.935 30.7 595.335 30.6C594.735 30.4667 594.302 30.1333 594.035 29.6C593.769 29.0333 593.852 28.15 594.285 26.95C594.552 26.2167 594.802 25.55 595.035 24.95C595.269 24.3167 595.519 23.7333 595.785 23.2C596.085 22.6333 596.402 22.0833 596.735 21.55C597.102 21.0167 597.535 20.4333 598.035 19.8C598.169 19.5667 598.435 19.4167 598.835 19.35C599.269 19.25 599.669 19.2333 600.035 19.3C600.402 19.3667 600.669 19.5333 600.835 19.8C601.035 20.0333 600.985 20.35 600.685 20.75ZM610.045 22.75C609.678 22.9833 609.328 23.2667 608.995 23.6C608.695 23.9333 608.428 24.2833 608.195 24.65C607.795 25.25 607.545 25.85 607.445 26.45C607.312 27.1167 607.345 27.5667 607.545 27.8C607.745 28 608.028 28.0833 608.395 28.05C608.762 27.9833 609.145 27.8333 609.545 27.6C609.978 27.3333 610.345 27.0333 610.645 26.7C611.045 26.2 611.362 25.6833 611.595 25.15C611.495 25.0833 611.395 25.0167 611.295 24.95C611.195 24.85 611.112 24.7667 611.045 24.7C610.512 24.1667 610.178 23.5167 610.045 22.75ZM609.695 20.65C609.895 20.6167 610.112 20.65 610.345 20.75C610.578 20.45 610.845 20.3 611.145 20.3C611.445 20.2333 611.728 20.2833 611.995 20.45C612.262 20.6167 612.512 20.85 612.745 21.15C612.978 21.45 613.178 21.8 613.345 22.2C613.478 22.5333 613.545 22.8833 613.545 23.25C613.578 23.6167 613.562 23.9833 613.495 24.35L613.945 24.5C614.712 24.6333 615.545 24.65 616.445 24.55C616.945 24.4833 617.412 24.35 617.845 24.15C618.312 23.95 618.678 23.7167 618.945 23.45C619.112 23.2833 619.295 23.2167 619.495 23.25C619.728 23.25 619.928 23.3333 620.095 23.5C620.262 23.6667 620.345 23.85 620.345 24.05C620.345 24.25 620.262 24.4333 620.095 24.6C619.662 25 619.145 25.3333 618.545 25.6C617.945 25.8333 617.312 26 616.645 26.1C615.578 26.2667 614.578 26.25 613.645 26.05C613.378 25.9833 613.162 25.9167 612.995 25.85C612.728 26.4833 612.345 27.1 611.845 27.7C611.278 28.3667 610.528 28.8833 609.595 29.25C608.695 29.5833 607.828 29.7167 606.995 29.65C606.162 29.5833 605.495 29.2833 604.995 28.75C604.462 28.1833 604.312 27.3167 604.545 26.15C604.712 25.2833 605.028 24.5 605.495 23.8C605.962 23.0667 606.545 22.4167 607.245 21.85C607.978 21.25 608.795 20.85 609.695 20.65ZM611.945 23.35C611.945 23.15 611.912 22.95 611.845 22.75C611.812 22.6167 611.728 22.45 611.595 22.25C611.595 22.3167 611.595 22.3667 611.595 22.4C611.628 22.4333 611.645 22.4833 611.645 22.55C611.678 22.8167 611.778 23.0833 611.945 23.35Z" fill="#F1523C"/>
</svg>
